<?xml version="1.0" encoding="utf-8"?>
<svg viewBox="0 0 500 500" xmlns="http://www.w3.org/2000/svg">
  <defs>
    <clipPath id="clip0">
      <rect x="3335" y="1309" width="196" height="171"/>
    </clipPath>
  </defs>
  <g clip-path="url(#clip0)" transform="matrix(2.4665420055389404, 0, 0, 2.4665420055389404, -8217.638671875, -3189.5927734374995)" style="">
    <path d="M3475.11 1359 3475.47 1359 3475.83 1359 3476.37 1359 3477.09 1359 3477.93 1359.06 3478.95 1359.18 3480.03 1359.3 3481.23 1359.54 3482.55 1359.77 3483.87 1360.13 3485.31 1360.61 3486.81 1361.15 3488.25 1361.86 3489.76 1362.69 3491.2 1363.59 3492.64 1364.66 3494.02 1365.91 3495.34 1367.28 3496.54 1368.95 3497.68 1370.68 3498.76 1372.65 3499.72 1374.85 3500.5 1377.24 3501.1 1379.92 3501.52 1382.78 3501.82 1385.88 3501.82 1386 3501.82 1386.47 3501.88 1387.01 3501.94 1387.79 3502 1388.8 3502 1389.93 3502 1391.18 3502 1392.67 3501.94 1394.28 3501.88 1395.89 3501.7 1397.68 3501.52 1399.53 3501.22 1401.43 3500.92 1403.34 3500.44 1405.37 3499.96 1407.33 3499.3 1409.3 3498.52 1411.27 3497.68 1413.17 3496.72 1415.02 3495.64 1416.75 3494.38 1418.48 3493 1420.09 3491.5 1421.52 3489.76 1422.83 3487.89 1424.02 3485.85 1425.03 3483.57 1425.81 3481.17 1426.46 3478.53 1426.82 3475.71 1427 3475.35 1427 3472.53 1426.82 3469.83 1426.46 3467.43 1425.81 3465.21 1425.03 3463.17 1424.02 3461.3 1422.83 3459.56 1421.52 3458 1420.09 3456.62 1418.48 3455.36 1416.75 3454.28 1415.02 3453.32 1413.17 3452.48 1411.27 3451.76 1409.3 3451.1 1407.33 3450.62 1405.37 3450.14 1403.34 3449.84 1401.43 3449.54 1399.53 3449.36 1397.68 3449.18 1395.89 3449.12 1394.28 3449.06 1392.67 3449 1391.18 3449.06 1389.93 3449.06 1388.8 3449.12 1387.79 3449.18 1387.01 3449.18 1386.47 3449.24 1386 3449.24 1385.88 3449.48 1382.78 3449.96 1379.92 3450.56 1377.24 3451.34 1374.85 3452.24 1372.65 3453.26 1370.68 3454.4 1368.95 3455.66 1367.28 3456.98 1365.91 3458.36 1364.66 3459.86 1363.59 3461.3 1362.69 3462.75 1361.86 3464.25 1361.15 3465.69 1360.61 3467.07 1360.13 3468.45 1359.77 3469.71 1359.54 3470.91 1359.3 3471.99 1359.18 3473.07 1359.06 3473.91 1359 3474.57 1359 3475.11 1359Z" fill-rule="evenodd" fill="#9E9E9E"/>
    <path d="M3455.67 1429 3466.21 1461.89 3467.63 1466.38 3472.37 1453.16 3471.01 1451.24 3469.94 1449.49 3469.11 1447.86 3468.46 1446.35 3468.1 1445.07 3467.87 1443.9 3467.81 1442.86 3467.93 1441.92 3468.16 1441.05 3468.52 1440.35 3468.93 1439.77 3469.47 1439.25 3470.06 1438.84 3470.71 1438.49 3471.36 1438.2 3472.01 1438.02 3472.72 1437.85 3473.38 1437.73 3473.97 1437.62 3474.44 1437.62 3474.91 1437.56 3475.21 1437.56 3475.39 1437.56 3475.74 1437.56 3476.16 1437.62 3476.69 1437.62 3477.22 1437.73 3477.88 1437.85 3478.53 1438.02 3479.18 1438.2 3479.83 1438.49 3480.48 1438.84 3481.07 1439.25 3481.61 1439.77 3482.02 1440.35 3482.38 1441.05 3482.61 1441.92 3482.73 1442.86 3482.67 1443.9 3482.5 1445.07 3482.08 1446.35 3481.43 1447.86 3480.6 1449.49 3479.53 1451.24 3478.23 1453.16 3482.91 1466.38 3484.33 1461.89 3494.87 1429 3494.99 1429.12 3495.35 1429.41 3495.94 1429.76 3496.77 1430.22 3497.83 1430.8 3499.2 1431.56 3500.68 1432.32 3502.39 1433.19 3504.29 1434.12 3506.36 1435.11 3508.67 1436.22 3511.16 1437.27 3513.88 1438.37 3516.67 1439.42 3519.16 1440.47 3521.35 1441.69 3523.18 1442.97 3524.9 1444.49 3526.26 1446.06 3527.39 1447.92 3528.33 1449.9 3529.05 1452 3529.64 1454.38 3530.11 1456.89 3530.41 1459.56 3530.64 1462.48 3530.82 1465.56 3530.88 1468.82 3530.94 1472.37 3531 1476.04 3531 1480 3455.9 1480 3455.9 1479.88 3455.84 1477.67 3455.84 1475.52 3455.79 1471.03 3455.67 1466.9 3455.55 1462.88 3455.25 1459.16 3454.84 1455.66 3454.25 1452.29 3453.42 1449.14 3452.47 1446.29 3451.23 1443.67 3449.8 1441.28 3448.09 1439.07 3446.19 1437.03 3444 1435.23 3446.19 1434.18 3448.15 1433.25 3449.86 1432.38 3451.34 1431.56 3452.65 1430.86 3453.71 1430.22 3454.6 1429.76 3455.19 1429.41 3455.55 1429.12 3455.67 1429Z" fill-rule="evenodd" fill="#9E9E9E"/>
    <path d="M3389.62 1359 3389.97 1359 3390.38 1359 3390.91 1359 3391.56 1359 3392.44 1359.06 3393.44 1359.18 3394.49 1359.3 3395.73 1359.54 3396.96 1359.77 3398.31 1360.13 3399.67 1360.61 3401.08 1361.15 3402.54 1361.86 3403.95 1362.69 3405.36 1363.59 3406.83 1364.66 3408.19 1365.91 3409.48 1367.28 3410.71 1368.95 3411.83 1370.68 3412.83 1372.65 3413.71 1374.85 3414.47 1377.24 3415.06 1379.92 3415.53 1382.78 3415.76 1385.88 3415.76 1386 3415.82 1386.47 3415.82 1387.01 3415.88 1387.79 3415.94 1388.8 3415.94 1389.93 3416 1391.18 3415.94 1392.67 3415.88 1394.28 3415.82 1395.89 3415.65 1397.68 3415.47 1399.53 3415.18 1401.43 3414.88 1403.34 3414.41 1405.37 3413.94 1407.33 3413.3 1409.3 3412.59 1411.27 3411.77 1413.17 3410.83 1415.02 3409.71 1416.75 3408.54 1418.48 3407.19 1420.09 3405.6 1421.52 3403.95 1422.83 3402.13 1424.02 3400.08 1425.03 3397.9 1425.81 3395.55 1426.46 3392.91 1426.82 3390.15 1427 3389.79 1427 3387.03 1426.82 3384.45 1426.46 3382.1 1425.81 3379.86 1425.03 3377.87 1424.02 3375.99 1422.83 3374.34 1421.52 3372.87 1420.09 3371.52 1418.48 3370.29 1416.75 3369.23 1415.02 3368.29 1413.17 3367.47 1411.27 3366.7 1409.3 3366.06 1407.33 3365.59 1405.37 3365.12 1403.34 3364.82 1401.43 3364.53 1399.53 3364.35 1397.68 3364.18 1395.89 3364.06 1394.28 3364.06 1392.67 3364 1391.18 3364.06 1389.93 3364.06 1388.8 3364.12 1387.79 3364.18 1387.01 3364.18 1386.47 3364.24 1386 3364.24 1385.88 3364.47 1382.78 3364.94 1379.92 3365.53 1377.24 3366.29 1374.85 3367.23 1372.65 3368.23 1370.68 3369.35 1368.95 3370.58 1367.28 3371.87 1365.91 3373.22 1364.66 3374.64 1363.59 3376.05 1362.69 3377.46 1361.86 3378.92 1361.15 3380.39 1360.61 3381.74 1360.13 3383.1 1359.77 3384.33 1359.54 3385.51 1359.3 3386.62 1359.18 3387.56 1359.06 3388.44 1359 3389.09 1359 3389.62 1359Z" fill-rule="evenodd" fill="#9E9E9E"/>
    <path d="M3370.96 1429 3381.45 1461.89 3382.87 1466.38 3387.58 1453.16 3386.23 1451.24 3385.17 1449.49 3384.34 1447.86 3383.75 1446.35 3383.34 1445.07 3383.1 1443.9 3383.04 1442.86 3383.16 1441.92 3383.4 1441.05 3383.75 1440.35 3384.22 1439.77 3384.75 1439.25 3385.34 1438.84 3385.93 1438.49 3386.58 1438.2 3387.29 1438.02 3387.94 1437.85 3388.53 1437.73 3389.11 1437.62 3389.65 1437.62 3390.06 1437.56 3390.35 1437.56 3390.53 1437.56 3390.88 1437.56 3391.3 1437.62 3391.83 1437.62 3392.42 1437.73 3393.01 1437.85 3393.71 1438.02 3394.36 1438.2 3395.07 1438.49 3395.66 1438.84 3396.25 1439.25 3396.78 1439.77 3397.25 1440.35 3397.6 1441.05 3397.84 1441.92 3397.9 1442.86 3397.84 1443.9 3397.66 1445.07 3397.25 1446.35 3396.66 1447.86 3395.83 1449.49 3394.71 1451.24 3393.36 1453.16 3398.07 1466.38 3399.55 1461.89 3409.98 1429 3410.1 1429.12 3410.45 1429.41 3411.1 1429.76 3411.93 1430.22 3412.99 1430.8 3414.23 1431.56 3415.7 1432.32 3417.41 1433.19 3419.3 1434.12 3421.48 1435.11 3423.72 1436.22 3426.19 1437.27 3428.85 1438.37 3431.68 1439.42 3434.15 1440.47 3436.33 1441.69 3438.22 1442.97 3439.81 1444.49 3441.17 1446.06 3442.29 1447.92 3443.23 1449.9 3444 1452 3444.59 1454.38 3445.06 1456.89 3445.35 1459.56 3445.59 1462.48 3445.82 1465.56 3445.88 1468.82 3445.94 1472.37 3446 1476.04 3446 1480 3335 1480 3335.06 1476.04 3335.06 1472.37 3335.12 1468.82 3335.24 1465.56 3335.41 1462.48 3335.59 1459.56 3335.94 1456.89 3336.36 1454.38 3336.95 1452 3337.71 1449.9 3338.65 1447.92 3339.77 1446.06 3341.13 1444.49 3342.78 1442.97 3344.67 1441.69 3346.79 1440.47 3349.27 1439.42 3352.09 1438.37 3354.81 1437.27 3357.22 1436.22 3359.52 1435.11 3361.59 1434.12 3363.47 1433.19 3365.18 1432.32 3366.66 1431.56 3368.01 1430.8 3369.07 1430.22 3369.9 1429.76 3370.49 1429.41 3370.84 1429.12 3370.96 1429Z" fill-rule="evenodd" fill="#9E9E9E"/>
    <path d="M3449.42 1325.76 3448.94 1325.76 3448.47 1325.82 3448 1325.94 3447.58 1326.12 3446.64 1326.65 3445.81 1327.42 3445.16 1328.31 3444.81 1329.32 3444.63 1330.44 3444.81 1331.68 3445.16 1332.69 3445.81 1333.58 3446.64 1334.35 3447.58 1334.88 3448 1335 3448.47 1335.18 3449.42 1335.24 3450.66 1335.06 3451.78 1334.59 3452.72 1333.88 3453.43 1332.87 3453.9 1331.8 3454.08 1330.44 3453.9 1329.2 3453.43 1328.07 3452.72 1327.12 3451.78 1326.41 3450.66 1325.94 3449.42 1325.76ZM3434.89 1325.47 3433.65 1325.58 3432.47 1326.06 3431.52 1326.83 3430.82 1327.78 3430.34 1328.9 3430.17 1330.14 3430.34 1331.45 3430.82 1332.57 3431.52 1333.52 3432.47 1334.29 3433.65 1334.76 3434.89 1334.94 3436.13 1334.76 3437.25 1334.29 3438.2 1333.52 3438.96 1332.57 3439.44 1331.45 3439.61 1330.14 3439.44 1328.9 3438.96 1327.78 3438.2 1326.83 3437.25 1326.06 3436.13 1325.58 3434.89 1325.47ZM3420.48 1325.17 3419.24 1325.29 3418.18 1325.7 3417.23 1326.35 3416.53 1327.18 3415.99 1328.19 3415.76 1329.32 3415.76 1330.44 3415.99 1331.63 3416.53 1332.57 3417.23 1333.4 3418.18 1334.05 3419.24 1334.47 3420.48 1334.65 3421.72 1334.47 3422.84 1333.99 3423.79 1333.22 3424.5 1332.28 3424.97 1331.15 3425.15 1329.85 3424.97 1328.6 3424.5 1327.48 3423.79 1326.53 3422.84 1325.82 3421.72 1325.35 3420.48 1325.17ZM3421.19 1309 3448.82 1309 3451.07 1309.18 3453.19 1309.65 3455.2 1310.42 3457.03 1311.43 3458.74 1312.79 3460.28 1314.27 3461.58 1315.99 3462.58 1317.88 3463.35 1319.96 3463.82 1322.09 3464 1324.28 3464 1335.59 3463.82 1337.9 3463.35 1340.04 3462.58 1342.05 3461.58 1344 3460.28 1345.66 3458.74 1347.2 3457.03 1348.45 3455.14 1349.57 3453.14 1350.34 3451.01 1350.82 3448.82 1350.99 3421.19 1350.99 3419.24 1350.87 3417.41 1350.52 3415.7 1349.93 3414.05 1349.22 3412.33 1350.28 3410.62 1351.05 3408.91 1351.59 3407.26 1351.88 3405.66 1352 3404.18 1351.94 3402.83 1351.76 3402.41 1351.59 3402.12 1351.29 3402 1350.87 3402 1350.46 3402.18 1350.1 3402.53 1349.81 3403.89 1349.04 3405.01 1347.97 3406.02 1346.91 3406.9 1345.72 3407.61 1344.6 3408.14 1343.47 3407.26 1341.64 3406.49 1339.74 3406.07 1337.73 3405.96 1335.59 3405.96 1324.28 3406.13 1322.09 3406.61 1319.9 3407.43 1317.83 3408.44 1315.99 3409.74 1314.27 3411.21 1312.79 3412.92 1311.43 3414.81 1310.42 3416.82 1309.65 3418.95 1309.18 3421.19 1309Z" fill-rule="evenodd" fill="#9E9E9E"/>
  </g>
</svg>