<?xml version="1.0" encoding="utf-8"?>
<svg viewBox="0 0 500 500" xmlns="http://www.w3.org/2000/svg">
  <defs>
    <clipPath id="clip0">
      <rect x="770" y="620" width="112" height="112"/>
    </clipPath>
  </defs>
  <g clip-path="url(#clip0)" transform="matrix(4.271067142486572, 0, 0, 4.271067142486572, -3277.9013671874995, -2637.2414550781245)" style="">
    <path d="M845.05 680.315 843.333 680.414 841.682 680.678 840.097 681.172 838.578 681.799 837.158 682.623 835.837 683.579 834.648 684.633 833.558 685.82 832.601 687.138 831.808 688.589 831.148 690.105 830.686 691.687 830.388 693.335 830.289 695.082 830.355 696.763 830.686 698.411 831.148 700.027 831.808 701.543 832.568 702.96 833.525 704.279 834.615 705.498 835.837 706.586 837.158 707.542 838.578 708.3 840.097 708.959 841.682 709.421 843.333 709.717 845.05 709.816 846.767 709.717 848.418 709.421 850.003 708.959 851.522 708.3 852.942 707.542 854.263 706.586 855.451 705.498 856.541 704.279 857.499 702.96 858.291 701.543 858.951 700.027 859.414 698.411 859.711 696.763 859.777 695.082 859.711 693.335 859.414 691.687 858.951 690.105 858.291 688.589 857.499 687.138 856.541 685.82 855.451 684.633 854.263 683.579 852.942 682.623 851.522 681.799 850.003 681.172 848.418 680.678 846.767 680.414 845.05 680.315ZM839.634 658 850.399 658 850.399 663.571 852.81 664.065 855.121 664.724 857.366 665.515 859.513 666.504 861.56 667.658 863.508 668.943 867.504 664.988 875.132 672.569 871.136 676.558 872.391 678.568 873.547 680.612 874.504 682.787 875.363 684.996 876.023 687.303 876.519 689.644 876.519 689.611 882 689.611 882 700.356 876.453 700.356 875.924 702.729 875.297 705.07 874.471 707.278 873.514 709.421 872.358 711.497 871.037 713.409 875.033 717.398 867.438 724.979 863.442 721.023 861.461 722.276 859.381 723.397 857.201 724.419 854.989 725.243 852.711 725.902 850.333 726.396 850.333 732 839.634 732 839.634 726.396 837.257 725.935 834.912 725.243 832.667 724.452 830.553 723.463 828.473 722.309 826.558 721.023 822.562 724.979 814.968 717.398 818.93 713.475 817.675 711.497 816.553 709.388 815.529 707.245 814.736 705.037 814.043 702.729 813.548 700.389 808 700.389 808 689.644 813.548 689.644 814.01 687.303 814.703 684.963 815.496 682.721 816.487 680.579 817.642 678.535 818.93 676.591 814.968 672.602 822.595 664.988 826.558 668.943 828.539 667.691 830.62 666.57 832.766 665.548 834.978 664.757 837.29 664.065 839.634 663.571 839.634 658Z" fill-rule="evenodd" style="fill: rgb(109, 109, 109);"/>
    <path d="M794.5 634.767 793.065 634.867 791.696 635.167 790.394 635.667 789.193 636.333 788.091 637.133 787.157 638.1 786.322 639.2 785.655 640.4 785.154 641.7 784.854 643.067 784.753 644.5 784.854 645.933 785.154 647.3 785.655 648.6 786.322 649.8 787.157 650.867 788.091 651.833 789.193 652.7 790.394 653.333 791.696 653.8 793.065 654.167 794.5 654.267 795.935 654.167 797.304 653.8 798.606 653.333 799.807 652.7 800.875 651.833 801.843 650.867 802.678 649.8 803.345 648.6 803.813 647.3 804.113 645.933 804.213 644.5 804.113 643.067 803.813 641.7 803.345 640.4 802.645 639.2 801.81 638.1 800.875 637.133 799.774 636.333 798.572 635.667 797.304 635.167 795.935 634.867 794.5 634.767ZM790.929 620 798.005 620 798.005 623.667 799.874 624.067 801.677 624.667 803.446 625.367 805.115 626.233 806.65 627.267 809.354 624.667 814.36 629.7 811.757 632.267 812.792 633.867 813.626 635.5 814.36 637.267 814.928 639.067 815.328 640.933 819 640.933 819 648 815.328 648 814.928 649.867 814.36 651.733 813.626 653.433 812.792 655.1 811.757 656.667 814.36 659.367 809.254 664.367 806.65 661.767 805.081 662.767 803.412 663.633 801.677 664.4 799.874 664.933 798.005 665.333 798.005 669 790.929 669 790.929 665.333 789.026 664.933 787.224 664.367 785.454 663.633 783.819 662.767 782.25 661.767 779.646 664.367 774.64 659.367 777.243 656.667 776.242 655.067 775.374 653.4 774.606 651.7 774.072 649.867 773.672 648 770 648 770 640.933 773.672 640.933 774.072 639.033 774.64 637.2 775.374 635.467 776.242 633.833 777.243 632.267 774.64 629.7 779.646 624.667 782.25 627.267 783.852 626.233 785.488 625.367 787.257 624.667 789.026 624.067 790.929 623.667 790.929 620Z" fill-rule="evenodd" style="fill: rgb(109, 109, 109);"/>
  </g>
</svg>