<?xml version="1.0" encoding="utf-8"?>
<svg viewBox="0 0 500 500" xmlns="http://www.w3.org/2000/svg">
  <defs>
    <clipPath id="clip0">
      <rect x="3096" y="907" width="190" height="191"/>
    </clipPath>
  </defs>
  <g clip-path="url(#clip0)" transform="matrix(2.470410108566284, 0, 0, 2.470410108566284, -7638.38916015625, -2231.6618652343745)" style="">
    <path d="M3171.11 916 3276.83 916 3277.93 916.166 3278.92 916.552 3279.74 917.215 3280.4 918.043 3280.78 919.036 3281 920.14 3281 998.805 3280.78 999.964 3280.4 1000.96 3279.74 1001.79 3278.92 1002.45 3277.93 1002.89 3276.83 1003 3171.38 1003 3171.55 1002.94 3171.71 1002.89 3171.82 1002.72 3172.04 1002.67 3172.21 1002.56 3172.48 1002.45 3172.75 1002.28 3173.14 1002.06 3173.58 1001.79 3174.18 1001.4 3174.89 1000.96 3175.77 1000.46 3176.81 999.798 3178.02 999.025 3179.39 998.142 3180.98 997.149 3182.84 995.989 3184.92 994.72 3272.67 994.72 3272.67 924.336 3175.22 924.336 3175.22 950.999 3174.95 949.564 3174.45 948.294 3173.8 947.079 3172.97 946.031 3172.15 944.982 3171.27 944.043 3170.34 943.215 3169.47 942.553 3168.7 941.946 3167.99 941.504 3167.49 941.228 3167.11 940.952 3167 940.897 3167 920.14 3167.11 919.036 3167.55 918.043 3168.21 917.215 3169.03 916.552 3170.01 916.166 3171.11 916Z" fill-rule="evenodd" style="fill: rgb(63, 81, 181);"/>
    <path d="M3241.2 958 3242.15 958.055 3243.09 958.33 3243.93 958.826 3264.38 974.569 3265.16 975.34 3265.72 976.33 3266 977.321 3266 978.422 3265.72 979.413 3265.11 980.404 3264.38 981.119 3263.6 981.56 3262.71 981.835 3261.76 982 3260.87 981.89 3260.04 981.615 3259.2 981.119 3240.86 967.028 3222.58 976.33 3221.52 976.716 3220.35 976.771 3219.24 976.551 3218.18 976 3217.4 975.229 3216.79 974.239 3214 967.633 3220.91 962.294 3222.81 966.862 3239.41 958.44 3240.25 958.11 3241.2 958Z" fill-rule="evenodd" style="fill: rgb(63, 81, 181);"/>
    <path d="M3183.97 929 3184.99 929.109 3185.96 929.434 3186.77 930.084 3187.52 930.951 3193.42 940.436 3207.28 937.781 3208.24 937.726 3209.15 937.943 3209.96 938.268 3210.71 938.756 3211.36 939.461 3211.79 940.274 3212 940.816 3204.7 946.615 3192.24 948.946 3191.22 949 3190.31 948.838 3189.45 948.458 3188.64 947.862 3188.05 947.103 3180.64 935.287 3180.21 934.312 3180 933.282 3180.11 932.198 3180.48 931.222 3181.07 930.355 3181.93 929.651 3182.9 929.163 3183.97 929Z" fill-rule="evenodd" style="fill: rgb(63, 81, 181);"/>
    <path d="M3221.41 944 3222.45 944.277 3223.37 944.776 3224.13 945.607 3224.73 946.549 3224.95 947.547 3225 948.655 3224.73 949.708 3224.18 950.65 3223.48 951.481 3205.33 966 3204.46 964.282 3203.48 962.897 3202.45 961.677 3201.25 960.569 3200 959.627 3218.37 944.887 3219.29 944.332 3220.33 944 3221.41 944Z" fill-rule="evenodd" style="fill: rgb(63, 81, 181);"/>
    <path d="M3114.11 944 3121.6 944 3127.38 959.008 3130.96 969.049 3128.98 958.401 3128.92 957.628 3129.03 956.966 3129.31 956.249 3132.39 950.731 3129.58 945.655 3129.42 945.103 3129.58 944.552 3130.02 944.165 3130.57 944 3138 944 3138.55 944.165 3138.99 944.552 3139.1 945.103 3138.99 945.655 3136.3 950.731 3139.38 956.249 3139.66 956.966 3139.77 957.628 3139.71 958.401 3137.45 969.049 3141.31 959.008 3146.98 944 3154.46 944 3156.89 944.165 3159.14 944.662 3161.35 945.379 3163.44 946.428 3165.31 947.697 3167.02 949.186 3168.56 950.952 3169.82 952.773 3170.87 954.814 3171.58 957.021 3172.14 959.339 3172.3 961.711 3172.3 964.691 3172.3 967.449 3172.3 970.153 3172.36 972.856 3172.36 975.726 3187.55 966.346 3188.87 965.628 3190.36 965.297 3191.79 965.187 3193.22 965.408 3194.54 965.849 3195.81 966.566 3197.02 967.56 3197.9 968.773 3198.56 970.098 3198.95 971.532 3199 972.967 3198.83 974.401 3198.39 975.726 3197.62 976.995 3196.69 978.098 3195.48 979.036 3168.89 995.588 3167.68 996.195 3166.41 996.582 3165.09 996.747 3163.77 996.637 3162.45 996.306 3161.24 995.754 3160.13 994.982 3159.2 994.154 3158.43 993.05 3157.88 991.892 3157.49 990.623 3157.38 989.188 3157.38 987.974 3157.38 986.429 3157.38 984.609 3157.38 982.512 3157.33 980.195 3157.33 977.767 3157.33 975.284 3157.33 972.801 3157.33 970.318 3157.27 967.946 3157.27 965.684 3157.27 963.587 3157.27 961.821 3157.11 961.159 3156.78 960.718 3156.28 960.387 3155.62 960.221 3155.07 960.387 3154.52 960.718 3154.24 961.214 3154.08 961.821 3154.08 968.111 3154.13 973.96 3154.13 979.367 3154.13 984.333 3154.13 988.967 3154.13 993.216 3154.13 997.078 3154.13 1000.61 3154.13 1003.86 3154.13 1006.73 3154.19 1009.33 3154.19 1011.64 3154.19 1013.69 3154.19 1015.45 3154.19 1017 3154.19 1018.38 3154.24 1019.53 3154.24 1020.42 3154.24 1021.24 3154.24 1021.8 3154.24 1022.35 3154.24 1022.68 3154.24 1022.9 3154.24 1023.12 3154.24 1023.23 3154.24 1023.23 3152.37 1024.94 3150.72 1026.93 3149.29 1029.02 3148.08 1031.29 3147.09 1033.66 3146.32 1036.2 3145.88 1038.9 3145.77 1041.6 3145.88 1044.25 3146.32 1046.85 3147.03 1049.38 3148.02 1051.76 3149.23 1054.02 3146.43 1054.18 3143.73 1054.68 3141.14 1055.34 3138.61 1056.34 3136.24 1057.55 3136.24 1017.93 3136.08 1017.22 3135.69 1016.55 3135.03 1016.17 3134.32 1016 3133.54 1016.17 3132.88 1016.55 3132.5 1017.22 3132.33 1017.93 3132.33 1060.25 3130.3 1062.18 3128.48 1064.34 3126.94 1066.6 3125.56 1069.08 3124.52 1071.67 3123.69 1074.38 3123.2 1077.25 3123.03 1080.17 3122.98 1097 3121.21 1096.78 3119.56 1096.17 3118.08 1095.34 3116.81 1094.24 3115.76 1092.92 3114.99 1091.43 3114.5 1089.77 3114.33 1088.01 3114.33 961.821 3114.22 961.214 3113.89 960.718 3113.4 960.442 3112.85 960.332 3112.24 960.442 3111.8 960.718 3111.41 961.159 3111.3 961.821 3111.03 1016.94 3110.86 1018.49 3110.48 1019.87 3109.76 1021.13 3108.83 1022.24 3107.73 1023.18 3106.46 1023.84 3105.03 1024.22 3103.54 1024.44 3103.54 1024.44 3102 1024.22 3100.57 1023.78 3099.3 1023.12 3098.2 1022.18 3097.27 1021.08 3096.55 1019.81 3096.17 1018.43 3096 1016.83 3096.28 961.711 3096.44 959.339 3096.99 957.021 3097.71 954.814 3098.75 952.773 3100.02 950.897 3101.56 949.186 3103.27 947.697 3105.14 946.428 3107.23 945.379 3109.38 944.662 3111.69 944.165 3114.11 944Z" fill-rule="evenodd" style="fill: rgb(63, 81, 181);"/>
    <path d="M3134.03 907 3136.26 907.17 3138.33 907.736 3140.29 908.473 3142.15 909.605 3143.8 910.908 3145.34 912.551 3146.61 914.306 3147.62 916.289 3148.42 918.384 3148.84 920.65 3149 922.972 3148.84 925.351 3148.42 927.616 3147.62 929.712 3146.61 931.694 3145.34 933.45 3143.8 935.092 3142.15 936.395 3140.29 937.528 3138.33 938.264 3136.26 938.83 3134.03 939 3131.74 938.83 3129.67 938.264 3127.65 937.528 3125.8 936.395 3124.15 935.092 3122.66 933.45 3121.39 931.694 3120.38 929.712 3119.58 927.616 3119.16 925.351 3119 922.972 3119.16 920.65 3119.58 918.384 3120.38 916.289 3121.39 914.306 3122.66 912.551 3124.15 910.908 3125.8 909.605 3127.65 908.473 3129.67 907.736 3131.74 907.17 3134.03 907Z" fill-rule="evenodd" style="fill: rgb(63, 81, 181);"/>
    <path d="M3247.03 1026 3249.37 1026.16 3251.61 1026.65 3253.79 1027.41 3255.68 1028.5 3257.47 1029.8 3259.03 1031.32 3260.38 1033.06 3261.49 1034.96 3262.33 1037.02 3262.83 1039.19 3263 1041.53 3262.83 1043.81 3262.33 1045.98 3261.49 1047.99 3260.38 1049.94 3259.03 1051.68 3257.47 1053.2 3255.68 1054.5 3253.79 1055.59 3251.61 1056.29 3249.37 1056.84 3247.03 1057 3244.68 1056.84 3242.39 1056.29 3240.27 1055.59 3238.26 1054.5 3236.53 1053.2 3234.91 1051.68 3233.57 1049.94 3232.51 1047.99 3231.73 1045.98 3231.17 1043.81 3231 1041.53 3231.17 1039.19 3231.73 1037.02 3232.51 1034.96 3233.57 1033.06 3234.91 1031.32 3236.53 1029.8 3238.26 1028.5 3240.27 1027.41 3242.39 1026.65 3244.68 1026.16 3247.03 1026Z" fill-rule="evenodd" style="fill: rgb(63, 81, 181);"/>
    <path d="M3150.1 1061 3191.06 1061 3193.54 1061.17 3195.92 1061.69 3198.18 1062.54 3200.33 1063.63 3202.27 1065.06 3204.03 1066.78 3205.52 1068.61 3206.85 1070.72 3207.84 1073.01 3208.61 1075.41 3208.94 1077.98 3209.44 1075.47 3210.1 1073.07 3211.15 1070.84 3212.42 1068.72 3213.97 1066.89 3215.68 1065.23 3217.67 1063.8 3219.76 1062.66 3222.03 1061.86 3224.46 1061.34 3226.94 1061.17 3267.84 1061.17 3270.27 1061.34 3272.64 1061.86 3274.85 1062.6 3276.95 1063.69 3278.82 1065 3280.59 1066.55 3282.08 1068.38 3283.35 1070.32 3284.45 1072.49 3285.23 1074.78 3285.67 1077.18 3285.89 1079.7 3286 1098 3270.71 1098 3270.66 1079.81 3270.66 1079.76 3270.49 1079.19 3270.1 1078.67 3269.55 1078.38 3269 1078.33 3268.39 1078.44 3267.9 1078.79 3267.56 1079.36 3267.45 1079.93 3267.45 1098 3227.05 1098 3227.05 1079.81 3226.99 1079.24 3226.66 1078.73 3226.17 1078.38 3225.61 1078.27 3225.01 1078.38 3224.57 1078.73 3224.29 1079.24 3224.12 1079.81 3224.01 1098 3193.88 1098 3193.82 1079.64 3193.82 1079.59 3193.71 1078.9 3193.38 1078.38 3192.83 1078.1 3192.22 1077.93 3191.61 1078.1 3191.12 1078.38 3190.73 1078.9 3190.62 1079.59 3190.62 1098 3150.27 1098 3150.27 1079.64 3150.16 1079.01 3149.77 1078.56 3149.33 1078.21 3148.78 1078.1 3148.23 1078.21 3147.73 1078.56 3147.4 1079.01 3147.29 1079.64 3147.18 1098 3132 1098 3132.06 1079.53 3132.22 1077.01 3132.77 1074.61 3133.49 1072.32 3134.54 1070.15 3135.86 1068.21 3137.41 1066.43 3139.12 1064.83 3141.05 1063.52 3143.15 1062.43 3145.36 1061.69 3147.68 1061.17 3150.1 1061Z" fill-rule="evenodd" style="fill: rgb(63, 81, 181);"/>
    <path d="M3170.03 1026 3172.33 1026.16 3174.51 1026.6 3176.58 1027.36 3178.49 1028.33 3180.23 1029.58 3181.85 1031.05 3183.2 1032.62 3184.32 1034.47 3185.22 1036.42 3185.72 1038.49 3186 1040.71 3185.94 1043.1 3185.55 1045.38 3184.77 1047.55 3183.7 1049.56 3182.36 1051.35 3180.79 1052.93 3178.94 1054.39 3176.98 1055.48 3174.79 1056.29 3172.44 1056.84 3170.03 1057 3167.84 1056.84 3165.77 1056.4 3163.75 1055.75 3161.9 1054.88 3160.16 1053.74 3158.48 1052.28 3157.08 1050.65 3155.85 1048.8 3155.01 1046.9 3154.34 1044.89 3154.06 1042.83 3154 1040.71 3154.28 1038.49 3154.9 1036.48 3155.68 1034.47 3156.8 1032.62 3158.15 1031.05 3159.77 1029.58 3161.51 1028.39 3163.42 1027.36 3165.54 1026.6 3167.73 1026.16 3170.03 1026Z" fill-rule="evenodd" style="fill: rgb(63, 81, 181);"/>
  </g>
</svg>