<?xml version="1.0" encoding="utf-8"?>
<svg viewBox="0 0 71 71" xmlns="http://www.w3.org/2000/svg">
  <path d="M 31.723 1.453 C 20.323 4.553 13.223 13.153 12.023 25.253 C 11.523 30.753 10.523 33.953 8.023 38.353 C 4.523 44.553 4.823 46.653 9.323 47.253 C 11.223 47.553 11.523 48.253 11.823 53.553 C 12.223 61.453 13.123 62.353 19.723 61.853 L 25.023 61.353 L 25.023 65.653 C 25.023 68.053 25.323 70.153 25.823 70.353 C 26.223 70.653 33.323 69.653 41.523 68.153 L 56.523 65.453 L 56.823 56.053 C 57.123 47.453 57.323 46.453 59.923 43.453 C 61.523 41.653 63.423 38.453 64.123 36.353 C 65.923 31.253 65.723 21.453 63.723 16.953 C 58.723 5.053 44.023 -1.947 31.723 1.453 Z M 46.523 8.953 C 55.323 12.953 60.223 22.353 58.123 31.453 C 56.723 37.653 53.923 41.453 48.423 44.653 C 44.423 47.053 43.323 47.253 37.223 46.653 C 28.823 45.853 27.423 45.853 22.823 46.653 C 18.523 47.353 18.123 46.653 21.123 43.453 L 23.123 41.253 L 21.123 37.253 C 20.023 35.053 18.823 31.453 18.423 29.253 C 16.723 18.553 27.023 7.053 38.523 7.053 C 40.723 7.053 44.323 7.953 46.523 8.953 Z" stroke="none" style="fill: rgb(58, 178, 132);" transform="matrix(0.9999999999999999, 0, 0, 0.9999999999999999, -3.552713678800501e-15, -4.440892098500626e-16)"/>
  <path d="M 37.023 16.653 C 35.923 17.853 36.023 18.453 37.323 19.853 C 38.923 21.353 39.123 21.353 40.723 19.853 C 42.023 18.453 42.123 17.853 41.023 16.653 C 40.323 15.753 39.423 15.053 39.023 15.053 C 38.623 15.053 37.723 15.753 37.023 16.653 Z" stroke="none" style="fill: rgb(58, 178, 132);" transform="matrix(0.9999999999999999, 0, 0, 0.9999999999999999, -3.552713678800501e-15, -4.440892098500626e-16)"/>
  <path d="M 34.923 23.453 C 35.923 24.653 36.023 26.353 35.223 30.553 C 34.523 35.053 34.623 36.453 35.723 37.653 C 37.623 39.453 40.123 39.453 42.623 37.453 C 44.423 36.053 44.423 35.953 42.123 36.653 C 39.723 37.253 39.723 37.253 40.423 30.953 C 40.823 27.453 41.223 24.153 41.323 23.553 C 41.423 23.053 39.723 22.453 37.623 22.253 C 34.123 21.953 33.823 22.053 34.923 23.453 Z" stroke="none" style="fill: rgb(58, 178, 132);" transform="matrix(0.9999999999999999, 0, 0, 0.9999999999999999, -3.552713678800501e-15, -4.440892098500626e-16)"/>
</svg>
