<?xml version="1.0" encoding="utf-8"?>
<svg viewBox="0 0 500 500" xmlns="http://www.w3.org/2000/svg">
  <defs>
    <clipPath id="clip0">
      <rect x="1511" y="1661" width="158" height="174"/>
    </clipPath>
  </defs>
  <g clip-path="url(#clip0)" transform="matrix(2.6354150772094727, 0, 0, 2.6354150772094727, -3957.4255371093745, -4358.43359375)" style="">
    <path d="M1517.58 1681 1518.78 1681.21 1539.77 1687.45 1540.87 1687.87 1541.81 1688.44 1542.59 1689.22 1543.22 1690.06 1543.74 1691.1 1543.95 1691.67 1544.1 1692.3 1548.54 1713.64 1549.38 1713.64 1550.27 1713.69 1660.18 1723.9 1661.79 1724.21 1663.31 1724.73 1664.72 1725.51 1665.92 1726.39 1667.02 1727.49 1667.85 1728.74 1668.48 1730.09 1668.9 1731.55 1669 1733.06 1668.84 1734.62 1661.59 1771.32 1661.12 1772.88 1660.38 1774.29 1659.39 1775.59 1658.19 1776.68 1656.83 1777.51 1655.32 1778.19 1653.7 1778.61 1651.93 1778.71 1562.01 1778.71 1564.94 1792.82 1650.36 1792.77 1651.72 1792.92 1653.02 1793.39 1654.17 1794.07 1655.11 1795.06 1655.84 1796.2 1656.31 1797.45 1656.47 1798.91 1656.31 1800.26 1655.84 1801.56 1655.11 1802.71 1654.17 1803.65 1653.02 1804.38 1651.72 1804.79 1650.36 1804.95 1559.92 1805 1558.67 1804.9 1557.42 1804.48 1556.37 1803.85 1555.43 1803.07 1554.7 1802.03 1554.18 1800.94 1553.87 1799.74 1532.83 1698.18 1515.39 1692.97 1514.24 1692.5 1513.19 1691.88 1512.36 1691.05 1511.68 1690.01 1511.26 1688.96 1511 1687.82 1511 1686.62 1511.21 1685.37 1511.68 1684.23 1512.36 1683.24 1513.19 1682.35 1514.13 1681.73 1515.28 1681.26 1516.38 1681 1517.58 1681Z" fill="#9E9E9E" fill-rule="evenodd"/>
    <path d="M1576.95 1811 1578.96 1811.15 1580.81 1811.61 1582.51 1812.33 1584.11 1813.3 1585.5 1814.47 1586.68 1815.9 1587.66 1817.43 1588.38 1819.22 1588.85 1821.01 1589 1823 1588.85 1824.89 1588.38 1826.78 1587.66 1828.46 1586.68 1830.1 1585.5 1831.48 1584.11 1832.65 1582.51 1833.67 1580.81 1834.39 1578.96 1834.85 1576.95 1835 1575.04 1834.85 1573.19 1834.39 1571.49 1833.67 1569.89 1832.65 1568.5 1831.48 1567.32 1830.1 1566.34 1828.46 1565.62 1826.78 1565.15 1824.89 1565 1823 1565.15 1821.01 1565.62 1819.22 1566.34 1817.43 1567.32 1815.9 1568.5 1814.47 1569.89 1813.3 1571.49 1812.33 1573.19 1811.61 1575.04 1811.15 1576.95 1811Z" fill="#9E9E9E" fill-rule="evenodd"/>
    <path d="M1636.03 1811 1637.93 1811.15 1639.78 1811.61 1641.52 1812.33 1643.07 1813.3 1644.45 1814.47 1645.69 1815.9 1646.61 1817.43 1647.43 1819.22 1647.85 1821.01 1648 1823 1647.85 1824.89 1647.43 1826.78 1646.61 1828.46 1645.69 1830.1 1644.45 1831.48 1643.07 1832.65 1641.52 1833.67 1639.78 1834.39 1637.93 1834.85 1636.03 1835 1634.02 1834.85 1632.17 1834.39 1630.48 1833.67 1628.93 1832.65 1627.49 1831.48 1626.31 1830.1 1625.34 1828.46 1624.62 1826.78 1624.15 1824.89 1624 1823 1624.15 1821.01 1624.62 1819.22 1625.34 1817.43 1626.31 1815.9 1627.49 1814.47 1628.93 1813.3 1630.48 1812.33 1632.17 1811.61 1634.02 1811.15 1636.03 1811Z" fill="#9E9E9E" fill-rule="evenodd"/>
    <path d="M1608.55 1661 1614.69 1661.58 1615.74 1661.79 1616.63 1662.27 1617.31 1663.01 1617.84 1663.81 1618.15 1664.76 1618.15 1665.82 1617.63 1671.6 1620.3 1672.55 1622.93 1673.66 1625.34 1675.04 1627.65 1676.52 1629.91 1678.17 1634.37 1674.46 1635.26 1673.93 1636.2 1673.61 1637.15 1673.61 1638.09 1673.82 1638.99 1674.24 1639.72 1675.04 1643.71 1679.81 1644.23 1680.71 1644.5 1681.66 1644.55 1682.67 1644.34 1683.68 1643.87 1684.52 1643.18 1685.32 1638.78 1689.03 1639.98 1691.57 1641.03 1694.11 1641.87 1696.87 1642.5 1699.62 1642.87 1702.54 1648.59 1703.07 1649.59 1703.28 1650.43 1703.76 1651.16 1704.39 1651.69 1705.24 1651.95 1706.25 1652 1707.25 1651.42 1713.45 1651.21 1714.51 1650.74 1715.41 1650.11 1716.1 1649.27 1716.63 1648.33 1716.95 1647.33 1717 1641.61 1716.42 1623.72 1714.77 1624.34 1707.78 1624.4 1705.4 1624.14 1703.17 1623.61 1701 1622.82 1698.93 1621.83 1696.97 1620.51 1695.23 1619.04 1693.58 1617.37 1692.21 1615.53 1691.04 1613.48 1690.09 1611.38 1689.45 1609.13 1689.08 1606.77 1689.03 1604.56 1689.24 1602.36 1689.77 1600.36 1690.62 1598.47 1691.68 1596.74 1692.95 1595.12 1694.48 1593.75 1696.13 1592.6 1697.98 1591.7 1700.05 1591.02 1702.27 1590.66 1704.55 1590.03 1711.54 1572.13 1709.79 1567.78 1709.42 1566.41 1709.26 1565.41 1709.05 1564.52 1708.58 1563.79 1707.89 1563.26 1707.09 1563 1706.09 1563 1705.03 1563.58 1698.83 1563.84 1697.82 1564.26 1696.92 1564.99 1696.18 1565.83 1695.65 1566.78 1695.38 1567.78 1695.33 1573.5 1695.86 1574.39 1693.16 1575.49 1690.56 1576.8 1688.02 1578.32 1685.64 1579.95 1683.46 1576.28 1678.96 1575.75 1678.06 1575.44 1677.05 1575.44 1676.1 1575.65 1675.15 1576.07 1674.19 1576.75 1673.45 1581.52 1669.48 1582.42 1668.89 1583.36 1668.63 1584.36 1668.58 1585.3 1668.79 1586.19 1669.26 1586.93 1669.95 1590.66 1674.46 1593.07 1673.19 1595.64 1672.18 1598.32 1671.33 1601.05 1670.7 1603.88 1670.27 1604.4 1664.5 1604.67 1663.49 1605.09 1662.59 1605.77 1661.85 1606.61 1661.32 1607.55 1661.05 1608.55 1661Z" fill="#9E9E9E" fill-rule="evenodd"/>
  </g>
</svg>