<?xml version="1.0" encoding="utf-8"?>
<svg viewBox="0 0 500 500" xmlns="http://www.w3.org/2000/svg">
  <defs>
    <clipPath id="clip0">
      <rect x="2546" y="199" width="151" height="152"/>
    </clipPath>
  </defs>
  <g clip-path="url(#clip0)" transform="matrix(3.079072952270508, 0, 0, 3.079072952270508, -7827.263671875, -595.9937133789062)" style="">
    <path d="M2614.02 323 2615.94 323.091 2617.76 323.455 2619.49 324.047 2621.08 324.867 2622.58 325.868 2623.95 327.052 2625.09 328.418 2626.13 329.92 2626.91 331.559 2627.54 333.244 2627.91 335.065 2628 336.977 2627.91 338.889 2627.54 340.711 2626.91 342.441 2626.13 344.034 2625.09 345.537 2623.95 346.857 2622.58 348.041 2621.08 349.088 2619.49 349.862 2617.76 350.499 2615.94 350.863 2614.02 351 2612.11 350.863 2610.29 350.499 2608.56 349.862 2606.97 349.088 2605.46 348.041 2604.1 346.857 2602.91 345.537 2601.91 344.034 2601.09 342.441 2600.5 340.711 2600.14 338.889 2600 336.977 2600.14 335.065 2600.5 333.244 2601.09 331.559 2601.91 329.92 2602.91 328.418 2604.1 327.052 2605.46 325.868 2606.97 324.867 2608.56 324.047 2610.29 323.455 2612.11 323.091 2614.02 323Z" fill="#9E9E9E" fill-rule="evenodd"/>
    <path d="M2693.79 307 2694.56 307.045 2695.33 307.273 2695.96 307.727 2696.55 308.318 2696.86 309 2697 309.818 2696.91 310.591 2696.68 311.364 2696.23 312 2695.64 312.545 2694.96 312.955 2633.9 334 2633.85 333.364 2633.72 332.546 2633.49 331.591 2633.18 330.5 2632.63 329.364 2632 328.227 2693.02 307.182 2693.79 307Z" fill="#9E9E9E" fill-rule="evenodd"/>
    <path d="M2559.14 199 2560.99 199.045 2562.76 199.271 2564.48 199.768 2566.16 200.446 2567.74 201.35 2569.15 202.435 2570.41 203.701 2571.59 205.147 2572.5 206.774 2573.27 208.492 2611 318.056 2610.41 318.056 2609.73 318.147 2609.01 318.373 2608.19 318.599 2607.42 318.87 2606.7 319.141 2606.11 319.412 2605.7 319.729 2605.43 320 2567.65 210.436 2567.02 209.125 2566.2 207.95 2565.21 207 2564.12 206.142 2562.9 205.554 2561.58 205.192 2560.18 205.057 2558.77 205.147 2557.41 205.464 2556.1 206.051 2554.97 206.865 2553.97 207.814 2553.16 208.944 2552.57 210.164 2552.21 211.43 2552.02 212.786 2552.12 214.187 2552.43 215.543 2552.61 216.312 2552.61 217.125 2552.39 217.848 2551.89 218.526 2551.35 219.024 2550.62 219.385 2549.81 219.566 2549.04 219.521 2548.27 219.295 2547.59 218.888 2547.09 218.255 2546.73 217.577 2546.23 215.724 2546 213.916 2546 212.063 2546.23 210.3 2546.68 208.582 2547.4 206.91 2548.27 205.328 2549.4 203.882 2550.67 202.571 2552.12 201.486 2553.75 200.537 2555.47 199.768 2557.32 199.271 2559.14 199Z" fill="#9E9E9E" fill-rule="evenodd"/>
    <path d="M2627.98 210 2640 245.834 2602.25 259 2602.11 259 2590 223.347 2606.15 217.601 2610.1 228.731 2610.45 229.41 2610.99 229.998 2611.61 230.405 2612.27 230.632 2613.07 230.722 2613.82 230.541 2614.53 230.179 2615.11 229.636 2615.51 229.003 2615.73 228.279 2615.82 227.464 2615.64 226.695 2611.83 215.701 2627.98 210Z" fill="#9E9E9E" fill-rule="evenodd"/>
    <path d="M2636.85 261.223 2636.04 261.359 2635.37 261.724 2634.73 262.225 2634.28 262.954 2626.85 278.172 2626.58 278.946 2626.53 279.766 2626.67 280.541 2627.03 281.27 2627.52 281.908 2628.2 282.363 2628.97 282.637 2629.82 282.728 2630.59 282.546 2631.31 282.227 2631.99 281.68 2632.44 280.951 2636.72 272.157 2646.23 300.36 2646.59 301.089 2647.13 301.682 2647.76 302.092 2648.43 302.32 2649.25 302.365 2650.01 302.228 2650.73 301.864 2651.32 301.363 2651.72 300.725 2651.99 299.95 2652.04 299.176 2651.86 298.401 2642.35 270.198 2651.27 274.572 2652.04 274.846 2652.76 274.891 2653.48 274.754 2654.2 274.39 2654.79 273.889 2655.19 273.251 2655.51 272.476 2655.56 271.702 2655.42 270.927 2655.06 270.289 2654.61 269.697 2653.98 269.241 2638.43 261.541 2637.62 261.268 2636.85 261.223ZM2663.44 244 2683 301.272 2626.08 321 2624.37 319.998 2622.57 319.086 2604 264.731 2663.44 244Z" fill="#9E9E9E" fill-rule="evenodd"/>
  </g>
</svg>