<?xml version="1.0" encoding="utf-8"?>
<svg viewBox="0 0 500 500" xmlns="http://www.w3.org/2000/svg">
  <path fill-rule="evenodd" d="M 329.189 107.433 C 329.189 98.689 322.092 91.593 313.348 91.593 L 59.895 91.593 C 51.151 91.593 44.055 98.689 44.055 107.433 L 44.055 392.567 C 44.055 401.312 51.151 408.408 59.895 408.408 L 313.348 408.408 C 322.092 408.408 329.189 401.312 329.189 392.567 L 329.189 329.204 C 329.189 317.007 342.4 309.403 352.95 315.486 C 357.86 318.306 360.87 323.533 360.87 329.204 L 360.87 392.567 C 360.87 418.8 339.612 440.09 313.348 440.09 L 59.895 440.09 C 33.663 440.09 12.373 418.8 12.373 392.567 L 12.373 107.433 C 12.373 81.201 33.663 59.911 59.895 59.911 L 313.348 59.911 C 339.612 59.911 360.87 81.201 360.87 107.433 L 360.87 170.797 C 360.87 182.994 347.691 190.597 337.109 184.515 C 332.23 181.695 329.189 176.468 329.189 170.797 L 329.189 107.433 Z" style="fill: rgb(109, 109, 109);" transform="matrix(1, 0, 0, 1, -7.105427357601002e-15, 0)"/>
  <path fill-rule="evenodd" d="M 143.725 261.216 C 137.515 255.038 137.515 244.963 143.725 238.785 L 238.769 143.74 C 247.419 135.123 262.15 139.052 265.319 150.837 C 266.776 156.318 265.224 162.179 261.2 166.171 L 193.18 234.16 L 471.756 234.16 C 483.953 234.16 491.588 247.371 485.474 257.921 C 482.654 262.831 477.427 265.841 471.756 265.841 L 193.18 265.841 L 261.2 333.83 C 269.849 342.479 265.889 357.211 254.103 360.379 C 248.622 361.836 242.793 360.252 238.769 356.26 L 143.725 261.216 Z" style="fill: rgb(109, 109, 109);" transform="matrix(1, 0, 0, 1, -7.105427357601002e-15, 0)"/>
</svg>