<?xml version="1.0" encoding="utf-8"?>
<svg viewBox="0 0 500 500" xmlns="http://www.w3.org/2000/svg">
  <path fill-rule="evenodd" d="M 329.189 107.432 C 329.189 98.688 322.092 91.592 313.348 91.592 L 59.895 91.592 C 51.151 91.592 44.055 98.688 44.055 107.432 L 44.055 392.566 C 44.055 401.311 51.151 408.407 59.895 408.407 L 313.348 408.407 C 322.092 408.407 329.189 401.311 329.189 392.566 L 329.189 329.203 C 329.189 317.006 342.4 309.402 352.95 315.485 C 357.86 318.305 360.87 323.532 360.87 329.203 L 360.87 392.566 C 360.87 418.799 339.612 440.089 313.348 440.089 L 59.895 440.089 C 33.663 440.089 12.373 418.799 12.373 392.566 L 12.373 107.432 C 12.373 81.2 33.663 59.91 59.895 59.91 L 313.348 59.91 C 339.612 59.91 360.87 81.2 360.87 107.432 L 360.87 170.796 C 360.87 182.993 347.691 190.596 337.109 184.514 C 332.23 181.694 329.189 176.467 329.189 170.796 L 329.189 107.432 Z" style="fill: rgb(158, 158, 158);" transform="matrix(1, 0, 0, 1, -7.105427357601002e-15, 0)"/>
  <path fill-rule="evenodd" d="M 143.725 261.215 C 137.515 255.037 137.515 244.962 143.725 238.784 L 238.769 143.739 C 247.419 135.122 262.15 139.051 265.319 150.836 C 266.776 156.317 265.224 162.178 261.2 166.17 L 193.18 234.159 L 471.756 234.159 C 483.953 234.159 491.588 247.37 485.474 257.92 C 482.654 262.83 477.427 265.84 471.756 265.84 L 193.18 265.84 L 261.2 333.829 C 269.849 342.478 265.889 357.21 254.103 360.378 C 248.622 361.835 242.793 360.251 238.769 356.259 L 143.725 261.215 Z" style="fill: rgb(158, 158, 158);" transform="matrix(1, 0, 0, 1, -7.105427357601002e-15, 0)"/>
</svg>