<?xml version="1.0" encoding="utf-8"?>
<svg viewBox="0 0 500 500" xmlns="http://www.w3.org/2000/svg">
  <defs>
    <clipPath id="clip0">
      <rect x="3601" y="1340" width="167" height="137"/>
    </clipPath>
  </defs>
  <g clip-path="url(#clip0)" transform="matrix(2.9214251041412354, 0, 0, 2.9214251041412354, -10513.991210937498, -3864.8271484374995)" style="">
    <path d="M3730.71 1364.33 3730.14 1364.33 3729.52 1364.43 3728.99 1364.62 3728.56 1365 3728.42 1365.43 3728.42 1365.87 3728.61 1366.2 3728.9 1366.49 3729.33 1366.73 3730.14 1366.92 3731 1367.02 3731.67 1367.16 3732.15 1367.4 3732.48 1367.78 3732.67 1368.26 3732.72 1368.98 3732.72 1369.27 3732.67 1369.61 3731.05 1379.06 3730.19 1384.48 3730.19 1385.64 3730.57 1386.69 3731.05 1387.65 3731.81 1388.52 3732.63 1389.24 3733.53 1389.67 3734.44 1389.91 3736.21 1390.1 3738.08 1390.15 3739.61 1389.96 3741.09 1389.57 3742.38 1388.95 3743.62 1388.18 3744.77 1387.12 3745.2 1386.6 3745.48 1385.92 3745.53 1385.49 3745.39 1385.16 3745.1 1384.96 3744.77 1384.92 3744.29 1385.01 3743.81 1385.25 3743.33 1385.54 3742.9 1385.73 3741.95 1386.07 3740.99 1386.31 3740.47 1386.21 3740.08 1386.02 3739.7 1385.68 3739.51 1385.16 3739.32 1384.29 3739.32 1383.38 3739.61 1381.65 3739.94 1379.83 3740.94 1374.41 3741.95 1368.98 3742.14 1367.59 3742.23 1366.06 3742.14 1365.43 3741.9 1364.95 3741.47 1364.57 3740.99 1364.38 3740.32 1364.33 3730.71 1364.33ZM3738.27 1351.85 3737.12 1352 3736.07 1352.33 3735.16 1352.96 3734.35 1353.77 3733.73 1354.68 3733.39 1355.74 3733.25 1356.89 3733.34 1358.04 3733.73 1359.15 3734.35 1360.11 3735.11 1360.87 3736.07 1361.5 3737.12 1361.88 3738.27 1362.03 3739.41 1361.93 3740.47 1361.5 3741.37 1360.87 3742.19 1360.15 3742.76 1359.19 3743.14 1358.14 3743.29 1356.94 3743.14 1355.79 3742.81 1354.73 3742.19 1353.77 3741.42 1353 3740.51 1352.38 3739.46 1352 3738.27 1351.85ZM3737.02 1340 3739.65 1340.1 3742.28 1340.48 3744.86 1341.01 3747.4 1341.82 3749.88 1342.83 3752.32 1344.08 3754.62 1345.52 3756.81 1347.2 3758.92 1349.07 3760.78 1351.18 3762.45 1353.34 3763.94 1355.69 3765.13 1358.14 3766.18 1360.59 3766.95 1363.18 3767.52 1365.77 3767.9 1368.36 3768 1371 3767.9 1373.64 3767.52 1376.28 3766.95 1378.87 3766.18 1381.41 3765.13 1383.91 3763.94 1386.31 3762.45 1388.61 3760.78 1390.82 3758.92 1392.93 3756.81 1394.85 3754.57 1396.53 3752.18 1398.02 3749.79 1399.22 3747.25 1400.22 3744.67 1400.99 3742.09 1401.57 3739.41 1401.9 3736.74 1402 3734.11 1401.86 3731.43 1401.52 3728.8 1400.9 3726.27 1400.08 3723.73 1399.02 3721.3 1397.73 3721.25 1397.68 3719.24 1398.98 3717.19 1400.03 3715.18 1400.75 3713.27 1401.18 3711.4 1401.42 3709.68 1401.42 3708.06 1401.23 3707.53 1401.04 3707.24 1400.7 3707.05 1400.22 3707.1 1399.79 3707.29 1399.31 3707.72 1398.98 3709.01 1398.21 3710.16 1397.3 3711.16 1396.29 3712.07 1395.19 3712.84 1394.03 3713.55 1392.93 3714.08 1391.78 3713.74 1391.49 3711.98 1389.33 3710.4 1386.93 3709.11 1384.53 3708.06 1382.04 3707.2 1379.45 3706.57 1376.81 3706.19 1374.17 3706 1371.48 3706.05 1368.74 3706.38 1366.06 3706.91 1363.42 3707.67 1360.83 3708.68 1358.28 3709.97 1355.84 3711.45 1353.48 3713.17 1351.18 3715.08 1349.07 3717.14 1347.2 3719.38 1345.52 3721.68 1344.08 3724.12 1342.83 3726.6 1341.82 3729.14 1341.01 3731.72 1340.48 3734.35 1340.1 3737.02 1340Z" fill="#9E9E9E" fill-rule="evenodd"/>
    <path d="M3639.62 1422 3650.83 1457.49 3652.31 1462.26 3657.39 1448.05 3656.11 1446.18 3655.06 1444.47 3654.21 1442.89 3653.54 1441.41 3653.07 1440.08 3652.73 1438.89 3652.59 1437.84 3652.54 1436.84 3652.64 1435.93 3652.83 1435.17 3653.16 1434.45 3653.54 1433.83 3654.02 1433.31 3654.54 1432.83 3655.11 1432.45 3655.68 1432.16 3656.3 1431.87 3656.96 1431.64 3657.53 1431.49 3658.15 1431.4 3658.77 1431.3 3659.24 1431.25 3659.72 1431.16 3660.1 1431.11 3660.43 1431.11 3660.57 1431.11 3660.86 1431.16 3661.24 1431.16 3661.71 1431.25 3662.23 1431.3 3662.8 1431.4 3663.37 1431.49 3664.04 1431.68 3664.66 1431.87 3665.23 1432.16 3665.84 1432.49 3666.46 1432.83 3666.94 1433.31 3667.41 1433.83 3667.79 1434.45 3668.12 1435.17 3668.31 1435.93 3668.41 1436.84 3668.36 1437.84 3668.22 1438.89 3667.89 1440.08 3667.41 1441.41 3666.75 1442.89 3665.89 1444.47 3664.85 1446.18 3663.56 1448.05 3668.55 1462.31 3670.12 1457.49 3681.33 1422.05 3681.43 1422.1 3681.76 1422.33 3682.33 1422.67 3683.09 1423.15 3684.09 1423.67 3685.32 1424.39 3686.7 1425.15 3688.31 1426.01 3690.07 1426.91 3692.07 1427.87 3694.25 1428.92 3696.58 1429.97 3699.1 1431.02 3701.76 1432.16 3704.61 1433.26 3706.89 1434.21 3708.88 1435.26 3710.69 1436.41 3712.3 1437.65 3713.68 1439.08 3714.92 1440.6 3715.96 1442.23 3716.82 1444.04 3717.58 1445.95 3718.2 1448.05 3718.62 1450.24 3719.05 1452.58 3719.29 1455.06 3719.53 1457.73 3719.67 1460.54 3719.76 1463.5 3719.86 1466.6 3719.91 1469.89 3719.95 1473.37 3720 1477 3601 1477 3601.05 1473.37 3601.05 1469.89 3601.1 1466.6 3601.14 1463.45 3601.24 1460.54 3601.38 1457.73 3601.67 1455.06 3601.9 1452.53 3602.33 1450.24 3602.76 1448.05 3603.38 1445.95 3604.14 1443.99 3604.99 1442.23 3606.04 1440.6 3607.22 1439.03 3608.65 1437.6 3610.22 1436.36 3612.02 1435.21 3614.06 1434.16 3616.34 1433.26 3619.19 1432.16 3621.85 1431.02 3624.37 1429.92 3626.7 1428.87 3628.84 1427.87 3630.83 1426.87 3632.64 1425.96 3634.21 1425.1 3635.63 1424.34 3636.82 1423.67 3637.82 1423.1 3638.62 1422.62 3639.15 1422.29 3639.53 1422.1 3639.62 1422Z" fill="#9E9E9E" fill-rule="evenodd"/>
    <path d="M3661.03 1341 3663.27 1341.05 3665.38 1341.28 3667.34 1341.71 3669.2 1342.19 3670.82 1342.8 3672.4 1343.47 3673.84 1344.28 3675.37 1345.18 3676.66 1346.08 3677.76 1347.03 3678.76 1347.93 3679.52 1348.79 3680.15 1349.55 3680.67 1350.16 3680.96 1350.64 3681.15 1350.92 3681.2 1351.11 3681.24 1351.11 3681.44 1351.11 3681.72 1351.16 3682.01 1351.26 3682.49 1351.35 3682.92 1351.54 3683.49 1351.78 3684.07 1352.11 3684.64 1352.49 3685.26 1352.97 3685.93 1353.54 3686.55 1354.2 3687.12 1355.01 3687.75 1355.96 3688.32 1357 3688.8 1358.14 3689.23 1359.52 3689.61 1360.99 3689.9 1362.65 3690.14 1364.5 3690.18 1366.55 3690.18 1368.78 3690.04 1371.15 3689.75 1373.81 3689.37 1376.66 3688.89 1378.61 3688.32 1380.55 3688.75 1380.55 3689.28 1380.55 3689.75 1380.65 3690.23 1380.89 3690.66 1381.12 3691.09 1381.46 3691.38 1381.98 3691.67 1382.55 3691.9 1383.31 3692 1384.21 3692 1385.25 3691.95 1386.49 3691.71 1387.87 3691.38 1389.48 3690.95 1391.28 3690.28 1393.42 3689.61 1395.23 3688.94 1396.74 3688.37 1397.88 3687.79 1398.83 3687.22 1399.5 3686.69 1399.93 3686.17 1400.21 3685.69 1400.35 3685.26 1402.3 3684.69 1404.29 3683.97 1406.34 3682.97 1408.33 3681.91 1410.37 3680.62 1412.32 3679.19 1414.27 3677.56 1416.02 3675.8 1417.73 3673.88 1419.3 3671.83 1420.68 3669.58 1421.91 3667.24 1422.86 3665.04 1423.48 3662.79 1423.91 3660.55 1424 3658.21 1423.91 3655.96 1423.48 3653.76 1422.91 3651.37 1421.91 3649.17 1420.68 3647.07 1419.35 3645.16 1417.78 3643.39 1416.12 3641.81 1414.27 3640.33 1412.32 3639.09 1410.37 3638.03 1408.33 3637.08 1406.34 3636.36 1404.29 3635.74 1402.3 3635.41 1400.35 3634.88 1400.21 3634.4 1399.93 3633.83 1399.5 3633.25 1398.83 3632.68 1397.88 3632.06 1396.74 3631.39 1395.23 3630.77 1393.42 3630.1 1391.33 3629.62 1389.53 3629.33 1387.91 3629.1 1386.54 3629 1385.3 3629 1384.26 3629.19 1383.35 3629.38 1382.64 3629.62 1382.03 3629.96 1381.5 3630.34 1381.17 3630.77 1380.93 3631.25 1380.7 3631.72 1380.6 3632.25 1380.55 3632.78 1380.6 3632.11 1378.61 3631.68 1376.66 3631.25 1374.05 3630.96 1371.48 3630.96 1368.97 3631.15 1366.5 3631.58 1364.12 3632.25 1361.89 3633.06 1359.8 3634.02 1357.86 3635.12 1356 3636.36 1354.3 3637.65 1352.68 3639.04 1351.26 3641.14 1349.21 3643.48 1347.32 3645.87 1345.65 3647.98 1344.28 3650.22 1343.18 3652.52 1342.23 3654.52 1341.71 3656.53 1341.28 3658.59 1341.09 3661.03 1341Z" fill="#9E9E9E" fill-rule="evenodd"/>
  </g>
</svg>