<?xml version="1.0" encoding="UTF-8"?>
<svg version="1.1" xmlns="http://www.w3.org/2000/svg" width="3333" height="3333">
<path d="M0 0 C2.30186088 -0.00297054 4.60371723 -0.00708242 6.90557575 -0.01150417 C14.18582718 -0.02514413 21.46606768 -0.03482081 28.74633098 -0.03870606 C36.18657282 -0.04270361 43.6266855 -0.05485242 51.06688404 -0.08106136 C86.93058726 -0.20459455 122.64269997 -0.24813939 158.39539051 3.0117197 C161.51926801 3.29435123 164.64502062 3.55457169 167.77049732 3.81884098 C173.5137082 4.32094091 179.24622077 4.89947972 184.97850513 5.51268864 C185.96139515 5.6152396 186.94428516 5.71779057 187.95695972 5.82344913 C222.62789666 9.44638579 257.25403486 13.80450312 291.36497974 21.07909489 C297.60892961 22.40915547 303.8617351 23.67154278 310.13084888 24.87596989 C329.54771328 28.6238317 348.81573482 32.81272415 368.04100513 37.45018864 C369.10413929 37.70639988 370.16727345 37.96261112 371.26262379 38.22658634 C403.41660643 45.99662838 403.41660643 45.99662838 410.37205982 48.66283512 C414.43020725 50.21662281 418.53623692 51.44832682 422.71678638 52.62596989 C424.33799874 53.09039983 425.95908684 53.55526364 427.58006763 54.02050114 C428.42859303 54.26316715 429.27711842 54.50583317 430.1513567 54.7558527 C446.52165309 59.44951889 462.78353362 64.433783 478.97850513 69.70018864 C479.89660969 69.99696507 480.81471424 70.29374149 481.76064014 70.59951115 C484.38731293 71.45009245 487.01145015 72.30803334 489.63475513 73.16893864 C490.39878147 73.41645374 491.16280781 73.66396885 491.94998646 73.91898441 C496.50178848 75.42730601 500.83636161 77.20963895 505.19975758 79.19484806 C509.05312113 80.89487961 513.00163805 82.32630082 516.95506763 83.77440739 C517.83582462 84.10000141 518.71658161 84.42559544 519.62402821 84.76105595 C521.49121873 85.45123929 523.35884764 86.14023765 525.2268877 86.82811832 C530.05164834 88.60526571 534.87280498 90.39210831 539.69334888 92.18065739 C541.10324841 92.70373981 541.10324841 92.70373981 542.54163074 93.23738956 C552.90691827 97.09090529 563.20944576 101.09712385 573.47850513 105.20018864 C573.47850513 105.86018864 573.47850513 106.52018864 573.47850513 107.20018864 C574.67346607 107.57143864 575.86842701 107.94268864 577.09959888 108.32518864 C583.74737847 110.54500503 590.12621359 113.39090243 596.54100513 116.20018864 C597.1964632 116.4860886 597.85192127 116.77198856 598.52724171 117.06655216 C632.31868379 131.80741433 632.31868379 131.80741433 647.37962818 139.92162418 C657.91839686 145.57310367 668.66850573 150.81774934 679.37987232 156.1320734 C680.54108601 156.70956081 680.54108601 156.70956081 681.72575855 157.29871464 C683.19463222 158.02914191 684.66436081 158.75785321 686.13506031 159.48459721 C689.04153526 160.93062682 691.77313299 162.39660721 694.47850513 164.20018864 C694.47850513 164.86018864 694.47850513 165.52018864 694.47850513 166.20018864 C695.76543262 166.59065372 695.76543262 166.59065372 697.07835865 166.989007 C700.58256301 168.23725557 703.62821712 169.77780404 706.88084888 171.57909489 C707.47548435 171.90697498 708.07011982 172.23485508 708.68277454 172.57267094 C710.59696004 173.63051234 712.50669867 174.69606972 714.41600513 175.76268864 C715.73937343 176.49810616 717.06277853 177.23345746 718.38621998 177.96874332 C731.05596676 185.0242769 743.41225227 192.47565075 755.64525318 200.26097965 C760.41763582 203.29215823 765.21788653 206.27089558 770.04881763 209.20800114 C771.19750457 209.90778086 772.34618619 210.60756929 773.49486256 211.30736637 C775.70730923 212.65471151 777.92399011 213.99403494 780.14378834 215.32933903 C786.63557378 219.28189095 792.74219874 223.53801823 798.77953053 228.15404606 C802.09324678 230.66623565 805.49692471 232.99213562 808.97850513 235.26268864 C809.6081316 235.67913639 810.23775806 236.09558414 810.88646412 236.52465153 C813.78362956 238.43986351 816.69108843 240.33766448 819.60741138 242.22362614 C825.6335267 246.15544572 831.30184025 250.35658719 836.91185474 254.84789371 C841.52510335 258.51570646 846.27308017 261.9497498 851.10350513 265.32518864 C868.96291849 277.81937905 868.96291849 277.81937905 875.72850513 284.01268864 C879.739874 287.6739744 883.99573417 290.90691868 888.35350513 294.13768864 C897.91112311 301.23039483 906.97112699 308.67782544 915.73631763 316.73534489 C919.25789749 319.90075356 922.91355872 322.87607728 926.59178638 325.85643864 C934.83836669 332.55190303 942.78090267 339.327137 950.21678638 346.93065739 C952.83950711 349.56243759 955.58305157 351.99619492 958.40428638 354.41112614 C961.68599278 357.24167515 964.87810168 360.17106563 968.08397388 363.08690739 C969.71031199 364.52222373 971.38119305 365.90828515 973.08788013 367.24706364 C975.2134172 368.98361352 976.82274093 370.6412051 978.54100513 372.76268864 C981.3883858 376.08867158 984.40731891 379.02655043 987.66600513 381.95018864 C993.56138294 387.24205673 999.1860466 392.79041023 1004.79100513 398.38768864 C1006.06270557 399.65274235 1006.06270557 399.65274235 1007.36009693 400.9433527 C1011.69378126 405.2868427 1015.85520791 409.70522773 1019.85423756 414.35765934 C1022.42730735 417.2764866 1025.19692419 419.98195894 1027.97850513 422.70018864 C1032.03976113 426.71601286 1035.97596691 430.76032358 1039.67772388 435.11425114 C1042.03267622 437.8421135 1044.47414919 440.48794496 1046.91600513 443.13768864 C1053.02124887 449.78065709 1059.06840422 456.42070847 1064.72850513 463.45018864 C1068.15322569 467.6838518 1071.74650789 471.67927807 1075.47850513 475.63768864 C1080.11709886 480.57448809 1084.24895293 485.70714972 1088.23241138 491.19628239 C1091.49887867 495.56482733 1095.0465455 499.6717971 1098.60741138 503.80175114 C1100.47850513 506.20018864 1100.47850513 506.20018864 1100.47850513 508.20018864 C1101.13850513 508.20018864 1101.79850513 508.20018864 1102.47850513 508.20018864 C1104.03959027 510.21035306 1105.48586249 512.22427846 1106.91600513 514.32518864 C1110.5253207 519.50747171 1114.24219197 524.56391267 1118.16600513 529.51268864 C1118.63175953 530.10122623 1119.09751392 530.68976383 1119.57738209 531.2961359 C1121.51727996 533.74212407 1123.46428408 536.1823764 1125.41209888 538.62206364 C1129.14892784 543.35135294 1132.61416648 548.23545824 1136.01341724 553.2101984 C1138.4678798 556.78767151 1141.02055515 560.25963123 1143.66600513 563.70018864 C1149.16524278 570.95224809 1154.11020857 578.56736706 1159.12694263 586.15721989 C1161.72920462 590.08967218 1164.38852948 593.96992321 1167.10350513 597.82518864 C1171.31993144 603.86216537 1175.24362389 610.07037471 1179.14305592 616.31591129 C1179.85631031 617.4574567 1179.85631031 617.4574567 1180.58397388 618.62206364 C1181.05238697 619.37294254 1181.52080006 620.12382145 1182.00340748 620.89745426 C1184.040916 624.07815277 1186.1971167 627.17441687 1188.37035084 630.2636652 C1189.47850513 632.20018864 1189.47850513 632.20018864 1189.47850513 635.20018864 C1190.13850513 635.20018864 1190.79850513 635.20018864 1191.47850513 635.20018864 C1193.07909107 637.50414371 1193.07909107 637.50414371 1194.96288013 640.71971989 C1195.30095692 641.29292469 1195.6390337 641.86612949 1195.98735523 642.45670414 C1197.07469453 644.30471514 1198.15146148 646.15866241 1199.22850513 648.01268864 C1199.93880381 649.22074676 1200.64973447 650.42843354 1201.36131763 651.63573551 C1213.47850513 672.25519861 1213.47850513 672.25519861 1213.47850513 675.20018864 C1214.13850513 675.53018864 1214.79850513 675.86018864 1215.47850513 676.20018864 C1221.95872717 686.0598813 1227.02205934 696.93020009 1232.3779192 707.42821598 C1234.94392423 712.43373284 1237.5255509 717.36588343 1240.49413013 722.14550114 C1244.24503326 728.27408698 1247.13956673 734.79105169 1250.10350513 741.32518864 C1251.21852205 743.76629298 1252.33679913 746.20588235 1253.45506763 748.64550114 C1253.97359303 749.7801984 1254.49211842 750.91489567 1255.0263567 752.0839777 C1256.26084912 754.73311375 1257.54344832 757.34223814 1258.87694263 759.94237614 C1260.47850513 763.20018864 1260.47850513 763.20018864 1260.47850513 765.20018864 C1261.13850513 765.53018864 1261.79850513 765.86018864 1262.47850513 766.20018864 C1263.45879239 768.06598041 1264.35758186 769.97485299 1265.21678638 771.89940739 C1265.74739674 773.07938297 1266.27800709 774.25935856 1266.82469654 775.47509098 C1267.09848133 776.09188725 1267.37226612 776.70868351 1267.65434742 777.34417057 C1268.44410186 779.12271184 1269.24308005 780.8971487 1270.04246998 782.67138004 C1271.59285506 786.11444302 1273.13079198 789.56283702 1274.66600513 793.01268864 C1275.18614185 794.17477848 1275.70627857 795.33686832 1276.24217701 796.53417301 C1283.47850513 812.79049635 1283.47850513 812.79049635 1283.47850513 817.20018864 C1284.13850513 817.53018864 1284.79850513 817.86018864 1285.47850513 818.20018864 C1290.47920011 827.01761342 1293.6104947 837.15112127 1297.15453053 846.62548161 C1298.16741248 849.32894495 1299.19080022 852.02827627 1300.21483326 854.72753239 C1300.86977027 856.47078161 1301.52408855 858.21426343 1302.17772388 859.95800114 C1302.47982273 860.75199314 1302.78192158 861.54598515 1303.09317493 862.36403751 C1304.82377415 867.02317081 1306.0845468 871.56268274 1306.96173573 876.45870304 C1307.13226963 877.03339329 1307.30280354 877.60808353 1307.47850513 878.20018864 C1308.13850513 878.53018864 1308.79850513 878.86018864 1309.47850513 879.20018864 C1310.45039423 881.33807235 1311.29151723 883.4345728 1312.09178638 885.63768864 C1312.34914066 886.33579655 1312.60649494 887.03390446 1312.87164783 887.75316715 C1316.85458481 898.77184078 1320.20830921 910.00890382 1323.66600513 921.20018864 C1324.73429185 924.64875243 1325.80396051 928.09687278 1326.87628651 931.54418278 C1327.53774556 933.67148906 1328.19681909 935.79953914 1328.85306263 937.92846012 C1330.36516256 942.79958658 1331.97342165 947.58883898 1333.80237293 952.34923649 C1334.93476144 955.44921744 1335.79134985 958.62393738 1336.64256763 961.80956364 C1336.83603779 962.52233463 1337.02950794 963.23510563 1337.22884083 963.96947575 C1337.85824623 966.29518903 1338.48127691 968.62254569 1339.10350513 970.95018864 C1339.42665699 972.15173588 1339.42665699 972.15173588 1339.75633717 973.3775568 C1343.11554935 985.87202169 1346.34441025 998.39745331 1349.47850513 1010.95018864 C1349.66777576 1011.70795597 1349.85704639 1012.4657233 1350.0520525 1013.24645329 C1353.30682726 1026.30472786 1353.30682726 1026.30472786 1354.60350513 1032.34081364 C1355.36726809 1036.04124606 1355.36726809 1036.04124606 1356.41551685 1038.89721012 C1357.6909303 1042.86024837 1358.53773844 1046.83021594 1359.36131763 1050.90721989 C1359.62424862 1052.19277271 1359.62424862 1052.19277271 1359.89249134 1053.5042963 C1360.46885569 1056.33924901 1361.03729964 1059.1756902 1361.60350513 1062.01268864 C1361.89830265 1063.48489368 1361.89830265 1063.48489368 1362.19905567 1064.98684025 C1369.03746882 1099.29146962 1374.84712967 1133.93318343 1378.76024342 1168.70360661 C1378.88009514 1172.25365749 1378.88009514 1172.25365749 1380.47850513 1175.20018864 C1380.84209836 1178.07150573 1381.1478805 1180.92886035 1381.41600513 1183.80956364 C1381.50100269 1184.68735477 1381.58600025 1185.56514591 1381.67357349 1186.46953678 C1381.85379131 1188.33902771 1382.03186542 1190.2087263 1382.20799732 1192.07860661 C1382.47348666 1194.89691489 1382.74487876 1197.71460007 1383.01756763 1200.53221989 C1385.6347282 1227.73410502 1385.6347282 1227.73410502 1385.54100513 1237.01268864 C1385.5319817 1238.19475895 1385.52295826 1239.37682926 1385.51366138 1240.59471989 C1385.50205982 1241.45452457 1385.49045826 1242.31432926 1385.47850513 1243.20018864 C1386.13850513 1243.20018864 1386.79850513 1243.20018864 1387.47850513 1243.20018864 C1387.47850513 1302.27018864 1387.47850513 1361.34018864 1387.47850513 1422.20018864 C1386.81850513 1422.20018864 1386.15850513 1422.20018864 1385.47850513 1422.20018864 C1385.51113453 1423.32131046 1385.51113453 1423.32131046 1385.5444231 1424.46508121 C1385.70737076 1435.0077949 1384.8443427 1445.38788389 1383.87938404 1455.87816715 C1383.60313627 1458.89171256 1383.33899382 1461.90614984 1383.07616138 1464.92089176 C1382.90109752 1466.87212813 1382.72534002 1468.82330242 1382.54881763 1470.77440739 C1382.47164509 1471.65803455 1382.39447254 1472.54166172 1382.31496143 1473.45206547 C1381.80931429 1478.86023469 1380.98333888 1484.13371259 1379.97060108 1489.46906376 C1379.17977027 1493.85816252 1378.65420211 1498.27480211 1378.11131763 1502.70018864 C1376.43469234 1515.90535495 1374.42890841 1529.0524971 1372.35350513 1542.20018864 C1372.06586796 1544.02924747 1372.06586796 1544.02924747 1371.77241993 1545.895257 C1367.42290587 1573.44598471 1362.63440694 1600.98764841 1356.47850513 1628.20018864 C1355.81850513 1628.20018864 1355.15850513 1628.20018864 1354.47850513 1628.20018864 C1354.40829151 1629.11869854 1354.40829151 1629.11869854 1354.33665943 1630.0557642 C1353.81339753 1636.09177344 1352.79549859 1641.77928105 1351.29100513 1647.64159489 C1351.07255436 1648.51538288 1350.85410358 1649.38917088 1350.62903309 1650.28943729 C1349.91982092 1653.11584284 1349.19979575 1655.93934339 1348.47850513 1658.76268864 C1347.98150614 1660.7260238 1347.48468171 1662.68940316 1346.98802662 1664.65282536 C1343.921911 1676.73203755 1340.78521707 1688.79257545 1337.54100513 1700.82518864 C1337.27283985 1701.829464 1337.27283985 1701.829464 1336.99925709 1702.85402775 C1336.48992577 1704.75507677 1335.97071443 1706.65347022 1335.45116138 1708.55175114 C1335.16507008 1709.60185368 1334.87897877 1710.65195621 1334.58421803 1711.73388004 C1333.68614918 1714.54924358 1332.68879479 1717.21383382 1331.57371998 1719.94506168 C1329.43722864 1725.19626093 1327.67979564 1730.52395612 1325.98241138 1735.93065739 C1325.50927761 1737.42089169 1325.50927761 1737.42089169 1325.02658558 1738.94123173 C1324.02786983 1742.08894784 1323.03418491 1745.23822191 1322.04100513 1748.38768864 C1320.7314406 1752.52752988 1319.41980071 1756.66671086 1318.10741138 1760.80565739 C1317.63750278 1762.28919209 1317.63750278 1762.28919209 1317.15810108 1763.80269718 C1314.67406721 1771.62793237 1312.11246721 1779.42413606 1309.47850513 1787.20018864 C1308.81850513 1787.20018864 1308.15850513 1787.20018864 1307.47850513 1787.20018864 C1307.29082569 1788.51152775 1307.29082569 1788.51152775 1307.09935474 1789.84935856 C1306.51067287 1793.02657396 1305.66989828 1795.79063398 1304.54491138 1798.81346989 C1303.94972706 1800.42040714 1303.94972706 1800.42040714 1303.34251881 1802.05980778 C1302.69826954 1803.7689838 1302.69826954 1803.7689838 1302.04100513 1805.51268864 C1301.59797047 1806.69661198 1301.1549358 1807.88053532 1300.69847584 1809.10033512 C1297.59415643 1817.3498627 1294.4165226 1825.56969701 1291.16600513 1833.76268864 C1290.77034351 1834.76533756 1290.37468189 1835.76798649 1289.96703053 1836.80101871 C1287.78785748 1842.23455755 1285.38596825 1847.45869089 1282.72191334 1852.66967106 C1280.49274762 1857.20634938 1278.63364213 1861.89556166 1276.72850513 1866.57518864 C1270.50925934 1881.63873185 1264.08570696 1896.46850343 1256.35838795 1910.8261652 C1252.44700355 1918.13165115 1248.89362421 1925.59242346 1245.40868092 1933.10961246 C1242.84308028 1938.58227858 1240.02113289 1943.75258453 1236.85789967 1948.90209293 C1234.96923318 1952.04864472 1233.38659518 1955.26926948 1231.79100513 1958.57518864 C1224.57979122 1973.24427417 1216.46780871 1987.41005303 1208.06956959 2001.42723942 C1204.37793437 2007.60189375 1200.88936148 2013.8665593 1197.47850513 2020.20018864 C1193.943392 2026.73790104 1193.943392 2026.73790104 1191.99388599 2028.676507 C1189.40914084 2031.27541057 1187.83572947 2034.59300843 1186.04100513 2037.76268864 C1181.02669178 2046.45968224 1175.54228521 2054.78773704 1169.90599537 2063.09081364 C1168.46867265 2065.21471791 1167.04397866 2067.34654547 1165.62303638 2069.48143864 C1146.57938012 2098.07462961 1146.57938012 2098.07462961 1137.08177662 2110.22728825 C1133.38410792 2114.96754793 1129.90028207 2119.82030878 1126.47850513 2124.76268864 C1121.94843194 2131.28785622 1117.11699068 2137.47885315 1112.05492115 2143.598382 C1109.03529115 2147.25535287 1106.15363309 2150.94829936 1103.41600513 2154.82518864 C1099.92087545 2159.73746124 1096.07194162 2164.25216916 1092.11546803 2168.79174137 C1088.55670014 2172.89139281 1085.16962066 2177.09013512 1081.85350513 2181.38768864 C1077.75851786 2186.682262 1073.42616183 2191.65534613 1068.86913013 2196.56346989 C1066.5112915 2199.16402721 1064.29991382 2201.83757853 1062.10350513 2204.57518864 C1057.30028711 2210.52405053 1052.12202426 2216.07878398 1046.90672779 2221.66307926 C1041.54257287 2227.43619369 1036.31637346 2233.33590253 1031.18163013 2239.31346989 C1027.57003901 2243.31438391 1023.64486528 2247.03112694 1019.82252979 2250.83051395 C1017.38745214 2253.25206412 1014.95515551 2255.67640019 1012.52293873 2258.1008234 C1011.24779897 2259.37093526 1009.97176302 2260.64014803 1008.69481373 2261.90844059 C999.55032525 2270.97959574 999.55032525 2270.97959574 990.93358326 2280.54711246 C988.52882862 2283.27909127 985.86806724 2285.70499878 983.16600513 2288.13768864 C982.60913013 2288.64638493 982.05225513 2289.15508121 981.47850513 2289.67919254 C978.86730709 2292.05959533 976.23604725 2294.41508704 973.59178638 2296.75878239 C968.54968766 2301.21894058 968.54968766 2301.21894058 964.04100513 2306.20018864 C961.70167061 2308.93892174 959.46935839 2310.90415645 956.66600513 2313.13768864 C951.77125358 2317.04559512 947.20558233 2321.19894752 942.66600513 2325.51268864 C933.43334478 2334.26409301 923.94530393 2342.6394103 913.82616138 2350.35643864 C908.00206755 2354.93043579 902.38819564 2359.79269163 896.80589771 2364.65795231 C892.47448624 2368.41945738 887.99299594 2371.93090339 883.41600513 2375.38768864 C878.02100374 2379.48404533 872.66052117 2383.61554525 867.35350513 2387.82518864 C856.73920098 2396.21127606 845.7405421 2404.04857843 834.65697193 2411.79857731 C830.48913929 2414.72838376 826.4578074 2417.76567999 822.47850513 2420.95018864 C814.2934072 2427.34511977 805.44052551 2432.73627565 796.66209888 2438.27050114 C786.06016035 2444.82676223 786.06016035 2444.82676223 776.03099537 2452.19579411 C773.1813207 2454.43355872 770.23898123 2456.21298992 767.10350513 2458.02831364 C766.49772633 2458.38101322 765.89194752 2458.73371281 765.26781178 2459.09710026 C763.3402398 2460.21863154 761.40959978 2461.33473567 759.47850513 2462.45018864 C756.95635474 2463.91147044 754.4358281 2465.37552269 751.91600513 2466.84081364 C751.29846363 2467.19889103 750.68092213 2467.55696842 750.04466724 2467.92589664 C744.61822418 2471.08569218 739.29530879 2474.39889752 733.99022388 2477.75780582 C731.47850513 2479.20018864 731.47850513 2479.20018864 729.47850513 2479.20018864 C729.47850513 2479.86018864 729.47850513 2480.52018864 729.47850513 2481.20018864 C728.80609791 2481.5614484 728.13369068 2481.92270817 727.44090748 2482.2949152 C715.44259299 2488.74316909 703.44745535 2495.1975545 691.47850513 2501.70018864 C690.18372242 2502.40063297 690.18372242 2502.40063297 688.86278248 2503.1152277 C684.714971 2505.37356133 680.63259202 2507.69667868 676.60350513 2510.16112614 C671.04422299 2513.52310634 665.29673958 2516.44053273 659.47850513 2519.32518864 C658.3665276 2519.87996891 657.25455006 2520.43474918 656.10887623 2521.00634098 C646.74608737 2525.64506388 637.2867034 2530.04653726 627.75584888 2534.32958317 C626.21477467 2535.02736881 626.21477467 2535.02736881 624.64256763 2535.73925114 C623.73974049 2536.14353336 622.83691334 2536.54781559 621.90672779 2536.96434879 C619.49394992 2538.0920099 619.49394992 2538.0920099 617.67870045 2539.6230402 C614.41039581 2541.96583291 610.80990588 2543.34995816 607.11131763 2544.89550114 C605.87575878 2545.41937664 605.87575878 2545.41937664 604.61523914 2545.95383549 C601.94701732 2547.08329567 599.27545372 2548.20457653 596.60350513 2549.32518864 C594.7789232 2550.09435618 592.95446041 2550.86380641 591.13011646 2551.63353825 C586.70274152 2553.49931119 582.27219552 2555.35739612 577.84001637 2557.21172428 C575.72284921 2558.09791285 573.60656857 2558.9861693 571.49071217 2559.87548161 C568.38540199 2561.17841818 565.27703027 2562.47346935 562.16600513 2563.76268864 C561.29798267 2564.12572086 560.42996021 2564.48875309 559.53563404 2564.86278629 C553.83208886 2567.20018864 553.83208886 2567.20018864 550.47850513 2567.20018864 C550.47850513 2567.86018864 550.47850513 2568.52018864 550.47850513 2569.20018864 C527.12224744 2577.91813888 503.70088 2586.44670748 480.11034107 2594.51317692 C476.00305293 2595.92712355 471.96260778 2597.40096447 467.95897388 2599.08690739 C460.30592661 2602.18208688 452.33546701 2604.33998492 444.41600513 2606.63768864 C443.54621021 2606.89186558 442.67641529 2607.14604252 441.78026295 2607.40792179 C424.14128351 2612.55627898 406.39525705 2617.28896945 388.61497974 2621.92260075 C387.6060416 2622.18640537 386.59710346 2622.45021 385.55759144 2622.72200871 C383.67972474 2623.21243767 381.80116686 2623.70023184 379.9217577 2624.18471622 C375.85536115 2625.24624056 371.85596039 2626.38020414 367.88060474 2627.74608707 C363.60136539 2629.20506139 359.30895923 2630.24742649 354.88866138 2631.18065739 C354.08449787 2631.35434849 353.28033436 2631.52803959 352.45180225 2631.70699406 C349.81619465 2632.27365111 347.1788567 2632.83157634 344.54100513 2633.38768864 C343.6191341 2633.5830521 342.69726307 2633.77841557 341.74745655 2633.97969913 C334.99563415 2635.40849902 328.23886277 2636.81236255 321.47850513 2638.20018864 C320.60294971 2638.37997257 319.72739429 2638.55975651 318.82530689 2638.74498844 C294.42760648 2643.73508405 269.93762651 2647.80865479 245.29759693 2651.41137028 C244.24259998 2651.56564991 243.18760303 2651.71992954 242.10063648 2651.87888432 C239.99856832 2652.18604894 237.89639576 2652.49250001 235.79411793 2652.79822636 C229.58953549 2653.70989673 223.40672658 2654.7096911 217.22723866 2655.77779484 C205.39925508 2657.82050139 193.6204183 2659.27694089 181.66600513 2660.32518864 C179.83979514 2660.4911108 178.01362376 2660.65745842 176.18748951 2660.82421207 C170.95244354 2661.29814534 165.71578052 2661.75167099 160.47850513 2662.20018864 C159.06395394 2662.32290524 157.64940313 2662.44562627 156.23485279 2662.5683527 C142.62548303 2663.73065706 129.13926088 2664.52161818 115.47850513 2664.20018864 C115.47850513 2664.86018864 115.47850513 2665.52018864 115.47850513 2666.20018864 C67.62850513 2666.20018864 19.77850513 2666.20018864 -29.52149487 2666.20018864 C-29.52149487 2665.54018864 -29.52149487 2664.88018864 -29.52149487 2664.20018864 C-30.47024487 2664.22049137 -31.41899487 2664.24079411 -32.39649487 2664.26171207 C-45.17072074 2664.44471587 -57.79825002 2663.50980785 -70.52149487 2662.45018864 C-71.61334087 2662.36126347 -72.70518688 2662.27233829 -73.83011913 2662.18071842 C-115.75760554 2658.75564429 -115.75760554 2658.75564429 -134.75733471 2655.24388981 C-140.25045073 2654.23232239 -145.75728869 2653.38133329 -151.28321362 2652.57128239 C-188.93443441 2646.96460629 -226.32119116 2640.41736827 -263.52149487 2632.32518864 C-264.82067348 2632.04434925 -264.82067348 2632.04434925 -266.14609814 2631.75783634 C-268.5854329 2631.22778335 -271.02253109 2630.68858157 -273.45899487 2630.14550114 C-274.16196194 2629.99271198 -274.86492901 2629.83992283 -275.58919811 2629.6825037 C-279.72128826 2628.74582011 -283.56540065 2627.47141751 -287.51145458 2625.93615055 C-290.88764666 2624.6999819 -294.3515881 2623.85811807 -297.83790112 2622.99315739 C-299.48312473 2622.57469421 -301.12821962 2622.15572469 -302.77320385 2621.73632145 C-304.06881741 2621.40791264 -304.06881741 2621.40791264 -305.39060497 2621.0728693 C-322.51820987 2616.71571933 -339.51849146 2611.98429589 -356.45899487 2606.95018864 C-357.91295162 2606.52158039 -357.91295162 2606.52158039 -359.39628124 2606.08431339 C-370.60452413 2602.77347742 -381.6266321 2599.17473294 -392.56226635 2595.0527277 C-398.09508483 2592.97048494 -403.66740886 2591.00491342 -409.24415112 2589.04393864 C-410.25207211 2588.68874149 -411.2599931 2588.33354435 -412.29845715 2587.96758366 C-416.43130302 2586.51167404 -420.56486205 2585.05781553 -424.69947338 2583.60692692 C-435.04110448 2579.97568826 -445.37128942 2576.33001166 -455.59180737 2572.36815739 C-456.6558353 2571.95654362 -456.6558353 2571.95654362 -457.74135876 2571.53661442 C-462.02508164 2569.85460785 -466.18401915 2568.00228804 -470.33399487 2566.01268864 C-477.61517941 2562.52459849 -485.05390478 2559.45283829 -492.52149487 2556.38768864 C-527.73395699 2541.9018528 -527.73395699 2541.9018528 -542.18018627 2534.09032536 C-548.69612917 2530.57943334 -555.33413637 2527.37061895 -562.02149487 2524.20018864 C-578.24154645 2516.48614705 -593.99204184 2507.99156606 -609.73633862 2499.35643864 C-613.77779848 2497.14353955 -617.83388918 2494.96044719 -621.90040112 2492.79393864 C-622.96363598 2492.22522038 -624.02687084 2491.65650211 -625.12232494 2491.07054996 C-627.1545926 2489.98454167 -629.18941397 2488.9032924 -631.22730541 2487.82787418 C-636.80862297 2484.8374544 -641.97772177 2481.56945388 -647.11866283 2477.87621403 C-650.84339819 2475.27813353 -654.75684263 2473.05540906 -658.70899487 2470.82518864 C-660.37736782 2469.8688622 -662.04533212 2468.91182251 -663.71290112 2467.95409489 C-664.52774975 2467.48761539 -665.34259838 2467.0211359 -666.1821394 2466.54052067 C-675.83088788 2461.01227717 -685.07583897 2455.20722429 -694.11133862 2448.71654606 C-699.48482168 2444.87511629 -704.98727082 2441.32349073 -710.61378002 2437.8664484 C-717.70973726 2433.49936527 -724.61461334 2428.85852637 -731.52149487 2424.20018864 C-732.51149487 2423.54018864 -733.50149487 2422.88018864 -734.52149487 2422.20018864 C-734.52149487 2421.54018864 -734.52149487 2420.88018864 -734.52149487 2420.20018864 C-735.03454174 2419.96944645 -735.54758862 2419.73870426 -736.07618237 2419.50096989 C-739.43792667 2417.71269377 -742.52232938 2415.55453473 -745.64649487 2413.38768864 C-746.69015209 2412.66561222 -746.69015209 2412.66561222 -747.7548933 2411.9289484 C-759.39837622 2403.8408954 -770.94257091 2395.73345254 -781.73633862 2386.52831364 C-786.50509547 2382.54208771 -791.53180929 2378.90282698 -796.52149487 2375.20018864 C-803.66662835 2369.85899271 -810.56516139 2364.38591653 -817.13868237 2358.34081364 C-820.25621145 2355.54014816 -823.52547215 2352.96309396 -826.81446362 2350.36815739 C-832.14821393 2346.09653917 -837.32839376 2341.64086113 -842.52149487 2337.20018864 C-843.56756908 2336.30880192 -843.56756908 2336.30880192 -844.63477612 2335.39940739 C-848.34293203 2332.19943558 -851.9330011 2328.88644345 -855.50635815 2325.53783512 C-856.10947826 2324.97266178 -856.71259838 2324.40748844 -857.33399487 2323.82518864 C-857.93582592 2323.26065983 -858.53765697 2322.69613102 -859.15772533 2322.11449528 C-862.8568629 2318.67035066 -866.6347056 2315.41678317 -870.58399487 2312.26268864 C-873.3946674 2310.01333117 -875.97096281 2307.89866617 -878.20899487 2305.07518864 C-880.56935359 2302.1406886 -883.05204009 2299.92034114 -885.90503979 2297.48729801 C-897.32632375 2287.50366564 -908.08856284 2276.79423001 -918.79493237 2266.05712223 C-921.04378281 2263.80284693 -923.29801935 2261.55405487 -925.55274487 2259.30565739 C-927.01139938 2257.84634294 -928.46974413 2256.38671878 -929.92774487 2254.92675114 C-930.58826855 2254.26825169 -931.24879223 2253.60975224 -931.92933178 2252.93129826 C-936.32445326 2248.51424741 -940.45531395 2243.91997425 -944.52149487 2239.20018864 C-946.03809154 2237.50888003 -947.55826767 2235.82076523 -949.08399487 2234.13768864 C-952.13148165 2230.76423977 -955.1276586 2227.36130687 -958.03711987 2223.86815739 C-959.24378055 2222.51225183 -960.51831259 2221.21697934 -961.81055737 2219.94237614 C-964.918218 2216.79889233 -967.77756566 2213.49750911 -970.64649487 2210.13768864 C-974.74623077 2205.36155748 -978.90619335 2200.66881405 -983.20899487 2196.07518864 C-987.32543858 2191.62562231 -991.05439875 2187.02924482 -994.68677807 2182.18920231 C-997.76709906 2178.10848681 -1001.03087694 2174.2351179 -1004.39649487 2170.38768864 C-1009.28864151 2164.77810066 -1013.7978637 2158.95429621 -1018.21876049 2152.96849918 C-1021.86590837 2148.03798404 -1025.66796093 2143.28741656 -1029.58008862 2138.56346989 C-1034.55682872 2132.50526513 -1039.03145921 2126.08577454 -1043.56153393 2119.69188786 C-1046.51198159 2115.55046412 -1049.57421144 2111.51571353 -1052.70899487 2107.51268864 C-1056.34957654 2102.84950305 -1059.60636723 2098.05167389 -1062.71680737 2093.02050114 C-1064.66872028 2089.97010909 -1066.76177955 2087.06303925 -1068.89649487 2084.13768864 C-1073.94546698 2077.1904243 -1078.64288416 2070.01605685 -1083.33399487 2062.82518864 C-1083.88624737 2061.97934711 -1083.88624737 2061.97934711 -1084.44965649 2061.11641788 C-1086.81857094 2057.48512574 -1089.17343582 2053.84499265 -1091.52149487 2050.20018864 C-1092.32466137 2048.96413883 -1092.32466137 2048.96413883 -1093.14405346 2047.70311832 C-1096.52149487 2042.43454716 -1096.52149487 2042.43454716 -1096.52149487 2040.20018864 C-1097.18149487 2040.20018864 -1097.84149487 2040.20018864 -1098.52149487 2040.20018864 C-1099.76734447 2038.48217106 -1099.76734447 2038.48217106 -1101.17383862 2036.05565739 C-1101.69824535 2035.15943668 -1102.22265209 2034.26321598 -1102.76294994 2033.33983707 C-1103.32264477 2032.36562809 -1103.88233959 2031.39141911 -1104.45899487 2030.38768864 C-1105.31883984 2028.90897282 -1105.31883984 2028.90897282 -1106.19605541 2027.40038395 C-1107.3860279 2025.35218092 -1108.57291274 2023.30218119 -1109.75684643 2021.25048161 C-1111.43358752 2018.35214137 -1113.12650642 2015.46403067 -1114.82618237 2012.57909489 C-1115.82908174 2010.86963263 -1116.83169998 2009.16000539 -1117.83399487 2007.45018864 C-1118.30764477 2006.6473444 -1118.78129467 2005.84450016 -1119.2692976 2005.01732731 C-1119.69928051 2004.2784528 -1120.12926342 2003.53957829 -1120.57227612 2002.77831364 C-1120.95037426 2002.13281559 -1121.3284724 2001.48731754 -1121.71802807 2000.82225895 C-1122.52149487 1999.20018864 -1122.52149487 1999.20018864 -1122.52149487 1997.20018864 C-1123.18149487 1997.20018864 -1123.84149487 1997.20018864 -1124.52149487 1997.20018864 C-1124.96465038 1996.33575138 -1124.96465038 1996.33575138 -1125.41675854 1995.45385075 C-1131.12249261 1984.35213183 -1136.9385665 1973.34279437 -1143.14649487 1962.51268864 C-1148.58864602 1952.99901414 -1153.59967662 1943.33249141 -1158.40577221 1933.48436832 C-1160.13534022 1929.94348467 -1161.88829953 1926.41442671 -1163.64649487 1922.88768864 C-1163.96988842 1922.23638981 -1164.29328197 1921.58509098 -1164.62647533 1920.91405582 C-1166.19055088 1917.78275294 -1167.78937816 1914.68008408 -1169.47852612 1911.61425114 C-1174.81877554 1901.92078134 -1179.18738194 1891.93944229 -1183.45753002 1881.73339176 C-1185.03370843 1877.98065491 -1186.64617249 1874.24435626 -1188.27149487 1870.51268864 C-1189.03719799 1868.74345036 -1189.03719799 1868.74345036 -1189.81836987 1866.93846989 C-1191.06840994 1864.12241603 -1192.44209165 1861.38947175 -1193.85132885 1858.64989567 C-1196.53221633 1853.30119806 -1198.7781046 1847.8390741 -1200.94727612 1842.26659489 C-1201.33973019 1841.26684132 -1201.73218426 1840.26708775 -1202.13653088 1839.23703861 C-1202.95638721 1837.14469191 -1203.77389245 1835.05142253 -1204.58912182 1832.95726871 C-1205.84115772 1829.74430739 -1207.10371318 1826.53561559 -1208.36719799 1823.32714176 C-1209.16535458 1821.28637264 -1209.96290276 1819.24536543 -1210.75977612 1817.20409489 C-1211.13781887 1816.24475544 -1211.51586163 1815.28541599 -1211.90536022 1814.29700565 C-1212.42171284 1812.96432903 -1212.42171284 1812.96432903 -1212.94849682 1811.60472965 C-1213.25318386 1810.82436848 -1213.5578709 1810.0440073 -1213.87179089 1809.23999882 C-1214.52149487 1807.20018864 -1214.52149487 1807.20018864 -1214.52149487 1804.20018864 C-1215.18149487 1804.20018864 -1215.84149487 1804.20018864 -1216.52149487 1804.20018864 C-1219.11923453 1796.63093179 -1221.71020811 1789.05940675 -1224.29271126 1781.48493958 C-1225.4922377 1777.96742059 -1226.69402946 1774.45071085 -1227.90113354 1770.93578434 C-1229.06720612 1767.54005818 -1230.22715087 1764.14229443 -1231.38297749 1760.74306774 C-1231.82374626 1759.45025012 -1232.26667248 1758.15816586 -1232.71184635 1756.86685848 C-1233.33771433 1755.05018957 -1233.95502549 1753.23057968 -1234.57203197 1751.410882 C-1234.92510921 1750.37829762 -1235.27818645 1749.34571323 -1235.64196301 1748.28183842 C-1236.59764275 1744.93338635 -1237.10184262 1741.65346791 -1237.52149487 1738.20018864 C-1238.18149487 1738.20018864 -1238.84149487 1738.20018864 -1239.52149487 1738.20018864 C-1244.58364418 1721.63232831 -1249.28149578 1704.97697313 -1253.83399487 1688.26268864 C-1254.09402294 1687.30938663 -1254.35405102 1686.35608463 -1254.62195873 1685.37389469 C-1259.78928381 1666.41127127 -1259.78928381 1666.41127127 -1261.77222729 1657.96361637 C-1262.41180974 1655.60472625 -1263.15287486 1653.34604163 -1263.95362377 1651.03929996 C-1265.67326438 1645.94273574 -1266.83163375 1640.78703578 -1267.93946362 1635.52831364 C-1268.15795467 1634.5078545 -1268.37644573 1633.48739536 -1268.60155773 1632.43601322 C-1269.31073636 1629.10878494 -1270.01067825 1625.77971246 -1270.70899487 1622.45018864 C-1270.94938488 1621.31167454 -1271.18977489 1620.17316044 -1271.43744946 1619.00014591 C-1276.79910035 1593.55731809 -1281.9039012 1567.95883291 -1285.52149487 1542.20018864 C-1285.94677811 1539.89150818 -1286.42572931 1537.60522743 -1286.96586132 1535.32074833 C-1288.27543436 1529.69695503 -1289.17110339 1524.0950345 -1289.88868237 1518.36815739 C-1290.0680685 1516.968447 -1290.0680685 1516.968447 -1290.25107861 1515.54045963 C-1290.63895684 1512.49026488 -1291.01874175 1509.43915308 -1291.39649487 1506.38768864 C-1291.5934193 1504.8075951 -1291.5934193 1504.8075951 -1291.79432201 1503.19558048 C-1293.69567688 1487.86449947 -1295.37628895 1472.52308072 -1296.77149487 1457.13768864 C-1296.84817394 1456.30192295 -1296.92485302 1455.46615726 -1297.00385571 1454.60506535 C-1297.56065633 1448.4738158 -1298.05049263 1442.33856988 -1298.52149487 1436.20018864 C-1298.60442602 1435.12342271 -1298.68735718 1434.04665678 -1298.7728014 1432.93726158 C-1300.23629518 1413.47241173 -1300.84884941 1394.10626932 -1300.85600901 1374.5884943 C-1300.85746511 1372.33706085 -1300.86179698 1370.08564959 -1300.86700344 1367.83422184 C-1300.88534651 1359.86684031 -1300.89369632 1351.89952417 -1300.89210033 1343.93212223 C-1300.89104182 1337.48703294 -1300.90501817 1331.04218836 -1300.93311596 1324.59716129 C-1301.19813846 1262.38944182 -1297.5686513 1200.97828812 -1288.83399487 1139.32518864 C-1288.7314439 1138.59876163 -1288.62889294 1137.87233463 -1288.52323437 1137.12389469 C-1288.23302169 1135.08850908 -1287.93569678 1133.05432858 -1287.63477612 1131.02050114 C-1287.46760082 1129.88886539 -1287.30042553 1128.75722965 -1287.12818432 1127.59130192 C-1286.56533241 1124.4452202 -1285.82271703 1121.38564239 -1285.02605724 1118.29195499 C-1284.14701643 1114.64771181 -1283.5489636 1110.95806583 -1282.92774487 1107.26268864 C-1282.62182922 1105.48518069 -1282.31540914 1103.7077595 -1282.00855541 1101.93041325 C-1281.84817791 1100.99760532 -1281.68780041 1100.0647974 -1281.52256298 1099.10372257 C-1278.40629933 1081.04594365 -1274.96424419 1063.07339504 -1271.20899487 1045.13768864 C-1270.99662182 1044.11989323 -1270.78424877 1043.10209782 -1270.56544018 1042.05346012 C-1264.94761702 1015.19460407 -1264.94761702 1015.19460407 -1262.11915112 1007.04003239 C-1259.87733983 1000.55287272 -1258.30059452 993.86497866 -1256.592906 987.22222233 C-1253.02121559 973.36429741 -1249.28774434 959.56099277 -1245.27149487 945.82518864 C-1245.07538616 945.14682957 -1244.87927746 944.4684705 -1244.67722607 943.76955509 C-1242.37609064 935.82888771 -1239.79427941 928.07024058 -1236.83515453 920.35035038 C-1233.80351207 912.40854574 -1231.17363391 904.3373815 -1228.52149487 896.26268864 C-1225.53168767 887.18134393 -1222.52805648 878.10491644 -1219.39649487 869.07128239 C-1219.16704174 868.39726887 -1218.93758862 867.72325535 -1218.70118237 867.02881718 C-1217.25499372 862.89821146 -1215.49594495 859.06902627 -1213.49650097 855.17859745 C-1211.95400613 852.04868332 -1210.74495535 848.81307454 -1209.53321362 845.54393864 C-1209.26692654 844.83853947 -1209.00063946 844.1331403 -1208.72628307 843.40636539 C-1207.60589483 840.43797587 -1206.49534464 837.46593489 -1205.38404369 834.49413395 C-1200.28791921 820.89437234 -1194.65691558 807.6346824 -1188.44581127 794.50267887 C-1186.51114914 790.40199887 -1184.66792094 786.26736368 -1182.85743237 782.11034489 C-1175.88026615 766.16172473 -1168.29663901 750.63251703 -1160.23340893 735.20360661 C-1155.41506579 725.97374317 -1150.83204073 716.67852084 -1146.52149487 707.20018864 C-1145.86149487 707.20018864 -1145.20149487 707.20018864 -1144.52149487 707.20018864 C-1144.30622143 706.42417301 -1144.09094799 705.64815739 -1143.86915112 704.84862614 C-1142.03958566 699.89554168 -1139.52047892 695.43356228 -1136.95899487 690.82518864 C-1136.41742748 689.84348698 -1135.8758601 688.86178532 -1135.31788158 687.85033512 C-1134.2249376 685.87201928 -1133.12959551 683.89502623 -1132.03174877 681.91942692 C-1130.7544324 679.6195967 -1129.48550825 677.31550788 -1128.22071362 675.00878239 C-1123.24841194 665.99626822 -1117.92713244 657.20797999 -1112.54688549 648.43383121 C-1109.5074589 643.47653308 -1106.51722315 638.50688433 -1103.64649487 633.45018864 C-1100.90560213 628.69150301 -1097.77743385 624.32603988 -1094.50196362 619.92284489 C-1090.21363638 614.02745221 -1086.37946044 607.85190106 -1082.89649487 601.45018864 C-1080.34942291 596.77917395 -1077.35727314 592.58823447 -1074.11915112 588.37596989 C-1071.28430311 584.66886096 -1068.6752308 580.91439235 -1066.20899487 576.95018864 C-1063.02430923 571.87284991 -1059.52722487 567.11786552 -1055.89649487 562.35253239 C-1053.43978423 559.0917339 -1051.06685475 555.78251806 -1048.70899487 552.45018864 C-1040.93350905 541.50159607 -1032.91669978 530.77227456 -1024.33399487 520.44237614 C-1022.4102692 518.13267841 -1022.4102692 518.13267841 -1020.52149487 515.20018864 C-1015.2152705 507.24085209 -1008.60143344 500.10293798 -1002.39820385 492.82909489 C-999.9985733 490.00034103 -997.68860451 487.1479101 -995.52149487 484.13768864 C-992.55670834 480.06753373 -989.12520343 476.44833092 -985.69825268 472.77123356 C-982.04746199 468.83277845 -978.6717755 464.73262325 -975.35352612 460.50878239 C-970.98250135 455.00073199 -966.28276419 449.91038663 -961.27540112 444.98143864 C-958.20086162 441.85896645 -955.36839186 438.52927468 -952.52149487 435.20018864 C-952.01747143 434.61237614 -951.51344799 434.02456364 -950.99415112 433.41893864 C-950.01476941 432.27589368 -949.03560166 431.13266537 -948.05665112 429.98925114 C-946.36178173 428.01405985 -944.66399544 426.04164718 -942.95899487 424.07518864 C-942.15268627 423.14319645 -942.15268627 423.14319645 -941.33008862 422.19237614 C-939.13757188 419.77729291 -936.84130468 417.49371166 -934.52149487 415.20018864 C-931.9981676 412.70269266 -929.47809385 410.20194869 -926.95899487 407.70018864 C-926.2996394 407.04921207 -925.64028393 406.39823551 -924.96094799 405.72753239 C-922.3413844 403.12113243 -919.82495498 400.59112731 -917.55665112 397.66893864 C-915.79217659 395.5285396 -914.11887341 393.92552972 -912.02149487 392.13768864 C-908.44737868 389.07983368 -905.08523587 385.84782242 -901.77149487 382.51268864 C-901.26457104 382.00254215 -900.75764721 381.49239567 -900.23536205 380.9667902 C-898.66217145 379.37979102 -897.09139662 377.79044097 -895.52149487 376.20018864 C-889.04128446 369.6359755 -882.56240375 363.17180062 -875.52149487 357.20018864 C-873.85097025 355.70448636 -872.18368655 354.20514597 -870.52149487 352.70018864 C-867.50834787 349.97729892 -864.47435418 347.28706165 -861.39649487 344.63768864 C-858.66376127 342.26639876 -856.10710392 339.79296934 -853.58399487 337.20018864 C-850.31258465 333.88448467 -846.87610769 331.06312603 -843.15821362 328.26659489 C-839.10756563 325.09208706 -835.25328834 321.69053879 -831.39405346 318.2871027 C-826.94554413 314.41045519 -826.94554413 314.41045519 -824.16602612 313.03221989 C-822.1483489 312.25366351 -822.1483489 312.25366351 -821.52149487 309.20018864 C-819.76863684 307.69053595 -817.94104959 306.26714876 -816.08399487 304.88768864 C-814.90377288 304.00037828 -813.72411817 303.11231305 -812.54493237 302.22362614 C-811.90265697 301.74248356 -811.26038158 301.26134098 -810.5986433 300.76561832 C-806.77456321 297.88362472 -802.99252525 294.94758403 -799.20899487 292.01268864 C-798.46915356 291.44316471 -797.72931225 290.87364079 -796.96705151 290.28685856 C-793.33877638 287.47550307 -789.80653034 284.60676579 -786.37305737 281.55956364 C-783.12612008 278.68532384 -779.77169492 276.11782479 -776.20899487 273.63768864 C-774.9957964 272.78488445 -773.78361522 271.93063184 -772.57227612 271.07518864 C-771.9259724 270.61886051 -771.27966869 270.16253239 -770.61378002 269.69237614 C-766.67627913 266.88420747 -762.78781793 264.00932908 -758.89649487 261.13768864 C-758.14585766 260.58460026 -757.39522045 260.03151188 -756.62183666 259.46166325 C-753.31068627 257.01730241 -750.0051125 254.56840136 -746.73047924 252.07518864 C-739.4289 246.52810342 -731.93015938 241.36382657 -724.27149487 236.32518864 C-721.87436571 234.74120489 -719.47894269 233.15465564 -717.08399487 231.56737614 C-716.50518566 231.18412174 -715.92637646 230.80086735 -715.33002758 230.40599918 C-710.92952441 227.48637822 -706.59258098 224.48531304 -702.27149487 221.45018864 C-693.24438086 215.14549881 -683.7572622 209.57452838 -674.31983471 203.91307926 C-670.40610501 201.51744782 -666.56544517 199.0124417 -662.72974682 196.49413395 C-660.52149487 195.20018864 -660.52149487 195.20018864 -658.52149487 195.20018864 C-658.52149487 194.54018864 -658.52149487 193.88018864 -658.52149487 193.20018864 C-657.4752998 192.62071476 -657.4752998 192.62071476 -656.40796947 192.02953434 C-643.86424147 185.07881277 -631.32673713 178.11726597 -618.83399487 171.07518864 C-617.91030102 170.55609928 -616.98660717 170.03700993 -616.0349226 169.50219059 C-615.16037426 169.00807682 -614.28582592 168.51396305 -613.38477612 168.00487614 C-612.2600288 167.37041569 -612.2600288 167.37041569 -611.11255932 166.72313786 C-609.67072509 165.87567136 -608.23527402 165.0159394 -606.82900524 164.11068058 C-601.2222374 160.50300567 -595.39181339 157.51476896 -589.41602612 154.56737614 C-588.37379391 154.04886082 -587.3315617 153.5303455 -586.2577467 152.99611759 C-582.95172562 151.3519567 -579.64306286 149.71320743 -576.33399487 148.07518864 C-573.01457635 146.42931932 -569.6957615 144.78226077 -566.37810802 143.13283634 C-564.3202267 142.10999223 -562.26127968 141.08928866 -560.20113659 140.07100773 C-558.79894123 139.37480824 -558.79894123 139.37480824 -557.36841869 138.66454411 C-556.55093655 138.25992954 -555.7334544 137.85531498 -554.89120007 137.43843937 C-552.37038331 136.12122776 -549.95418268 134.67268898 -547.52149487 133.20018864 C-545.87350693 132.37844397 -544.21244786 131.58253059 -542.54102612 130.80956364 C-541.55819653 130.35460514 -540.57536694 129.89964664 -539.56275463 129.43090153 C-538.49726391 128.94226627 -537.43177319 128.45363102 -536.33399487 127.95018864 C-534.65551464 127.17759708 -534.65551464 127.17759708 -532.94312572 126.38939762 C-521.76565093 121.26882472 -510.51944536 116.30474131 -499.26099682 111.3652277 C-498.57094555 111.06237354 -497.88089428 110.75951939 -497.16993237 110.44748783 C-495.80846989 109.85023734 -494.44673687 109.25360314 -493.08472729 108.65760136 C-489.46153705 107.06843498 -485.86740606 105.43015789 -482.28711987 103.74706364 C-473.77703709 99.86080044 -464.95574482 96.69381545 -456.20899487 93.38768864 C-454.31708698 92.66942791 -452.42524153 91.95100273 -450.53345776 91.2324152 C-440.05616814 87.25893235 -429.57050618 83.31150994 -419.00269604 79.58373356 C-415.45272588 78.32214231 -412.02390378 76.98619315 -408.61915112 75.37206364 C-401.02836872 71.94243912 -392.95652114 69.68782635 -385.02149487 67.20018864 C-384.13631176 66.92072392 -383.25112865 66.64125919 -382.33912182 66.35332584 C-366.56095532 61.37299366 -350.70964561 56.65644298 -334.81251049 52.07128239 C-333.57452709 51.71364307 -333.57452709 51.71364307 -332.31153393 51.34877872 C-330.78994564 50.90984554 -329.26785839 50.47263591 -327.74512768 50.03768253 C-324.12778798 48.99578427 -320.54881333 47.8865287 -316.98365307 46.67723942 C-312.93288913 45.31215498 -308.86286714 44.15754122 -304.72071362 43.10643864 C-303.98719677 42.91857288 -303.25367992 42.73070713 -302.4979353 42.53714848 C-300.06972464 41.91897445 -297.63971726 41.30840841 -295.20899487 40.70018864 C-294.35923077 40.48697971 -293.50946667 40.27377079 -292.63395214 40.05410099 C-262.56908979 32.54697959 -232.14562381 26.02103492 -201.61793041 20.68138981 C-196.94013608 19.86249536 -192.34351471 18.92496963 -187.73243237 17.78612614 C-177.96077559 15.49469239 -168.01453453 14.22157748 -158.08399487 12.82518864 C-157.01747692 12.67400578 -155.95095898 12.52282291 -154.85212231 12.36705875 C-119.74993678 7.41039919 -84.4984258 3.61783703 -49.11490917 1.37090397 C-47.1824778 1.24369882 -45.25108876 1.10046297 -43.32041454 0.9489069 C-28.89695272 -0.07134638 -14.45185591 0.01777628 0 0 Z M-219.48762035 362.64940739 C-221.61477088 363.22544815 -223.74347425 363.79544091 -225.87256908 364.36425114 C-245.52953626 369.62299173 -264.91025834 375.37294016 -284.14258862 382.03173161 C-287.38953492 383.15455567 -290.64195577 384.25975403 -293.89649487 385.36034489 C-303.28373097 388.55391721 -312.54551075 391.90952133 -321.67847729 395.77391911 C-325.7912237 397.51097355 -329.91784133 399.07121675 -334.14649487 400.51268864 C-343.45694407 403.77187667 -352.41757768 407.85035801 -361.43311596 411.83983707 C-364.46320183 413.17451205 -367.50063186 414.49075092 -370.54102612 415.80175114 C-398.0769233 427.71604537 -424.8650249 441.01932428 -451.03321362 455.69237614 C-454.08786867 457.40480385 -457.15325323 459.09538863 -460.22852612 460.77050114 C-468.00963841 465.02121903 -475.5073045 469.3911719 -482.81836987 474.41503239 C-485.39030284 476.11354881 -487.98205396 477.57981999 -490.70899487 479.01268864 C-502.6734688 485.36504962 -513.81770074 493.34342502 -525.05665112 500.88378239 C-527.18044493 502.30798723 -529.31199517 503.71490854 -531.45508862 505.11034489 C-540.35918451 510.92702889 -548.85132466 517.27958336 -557.38624096 523.62011051 C-560.0411316 525.58471744 -562.7166696 527.51977278 -565.39649487 529.45018864 C-574.07266309 535.74545488 -582.51814023 542.34636522 -590.86133862 549.07518864 C-592.86347787 550.67454804 -594.87491541 552.25590359 -596.90040112 553.82518864 C-603.19516557 558.70904286 -609.28561552 563.67655841 -615.15040112 569.07909489 C-617.59729657 571.26799807 -620.12495482 573.30070012 -622.70899487 575.32518864 C-626.28540888 578.14078166 -629.46942466 581.09217213 -632.62305737 584.36425114 C-634.91047956 586.57636725 -637.34730296 588.52751443 -639.83399487 590.51268864 C-644.52477153 594.28458713 -648.7701198 598.30821528 -652.93946362 602.64550114 C-654.98047229 604.6648955 -657.03706441 606.5304059 -659.21192455 608.39721012 C-663.32212241 611.98018006 -667.20828341 615.74192996 -671.05665112 619.60253239 C-671.73900326 620.2839278 -672.4213554 620.96532322 -673.12438488 621.66736698 C-674.55493923 623.09724605 -675.98425254 624.52836775 -677.41236401 625.96068668 C-679.5784856 628.13216575 -681.74989661 630.29825189 -683.92188549 632.46386051 C-685.32129474 633.86393066 -686.7203937 635.26431102 -688.11915112 636.66503239 C-689.07725437 637.6200993 -689.07725437 637.6200993 -690.05471325 638.59446049 C-693.85573504 642.41498605 -697.46284064 646.3539773 -700.98644543 650.43155766 C-702.71255152 652.42031752 -704.49548873 654.34288979 -706.31836987 656.24315739 C-706.96137035 656.91765934 -707.60437084 657.59216129 -708.26685619 658.2871027 C-708.92838696 658.98029606 -709.58991772 659.67348942 -710.27149487 660.38768864 C-716.48022324 666.94035325 -722.43263712 673.63215536 -728.17872143 680.59130192 C-729.64720212 682.35080878 -731.14023731 684.08723567 -732.63868237 685.82128239 C-733.15197094 686.41779606 -733.66525951 687.01430973 -734.19410229 687.62889957 C-735.18302746 688.77704091 -736.17523855 689.92236248 -737.17115307 691.06444645 C-739.7357596 693.74967601 -739.7357596 693.74967601 -740.52149487 697.20018864 C-741.18149487 697.20018864 -741.84149487 697.20018864 -742.52149487 697.20018864 C-743.88559363 698.63098524 -743.88559363 698.63098524 -745.24415112 700.53221989 C-745.77790356 701.24257389 -746.311656 701.95292789 -746.86158276 702.68480778 C-747.42997875 703.45300846 -747.99837475 704.22120914 -748.58399487 705.01268864 C-749.77001171 706.59192858 -750.95751272 708.17005501 -752.14649487 709.74706364 C-752.72657299 710.51727848 -753.30665112 711.28749332 -753.90430737 712.08104801 C-755.90031852 714.69659403 -757.97628714 717.23653894 -760.08399487 719.76268864 C-769.03862151 730.5869626 -777.20617354 742.04605041 -785.31690502 753.50878239 C-786.50318233 755.17447537 -787.7031289 756.82931431 -788.90821362 758.48143864 C-796.17133461 768.46859772 -802.85816572 778.806446 -809.52149487 789.20018864 C-810.1104353 790.11461735 -810.69937572 791.02904606 -811.30616283 791.97118473 C-818.1596302 802.61380203 -824.87767573 813.30577771 -831.22461987 824.25878239 C-833.09261991 827.48195166 -835.01432527 830.66845862 -836.9555769 833.84789371 C-841.74733987 841.71355915 -846.09800508 849.76874864 -850.34473705 857.93944645 C-851.9879422 861.09630946 -853.64576819 864.24540114 -855.30420971 867.39428043 C-856.16009801 869.02001104 -857.01458205 870.64648169 -857.86768627 872.27367496 C-859.70887333 875.78203663 -861.55604106 879.28422113 -863.47461987 882.75096989 C-874.50055229 902.83391823 -883.6261497 924.10588977 -892.52149487 945.20018864 C-892.99490307 946.3161945 -893.46831127 947.43220036 -893.95606518 948.58202457 C-901.17187564 965.67701188 -907.7305562 982.97149901 -913.95899487 1000.45018864 C-914.29392956 1001.38647099 -914.62886425 1002.32275333 -914.97394848 1003.28740788 C-919.30991003 1015.43947202 -923.25424394 1027.65558955 -926.88053417 1040.03704166 C-927.76859761 1043.03412362 -928.70890726 1046.01372838 -929.65430737 1048.99315739 C-941.47914627 1086.67255355 -949.99524106 1125.27777528 -956.52149487 1164.20018864 C-956.75482525 1165.58237583 -956.75482525 1165.58237583 -956.99286938 1166.992486 C-966.22637059 1221.7949272 -970.75947968 1276.54081963 -970.70899487 1332.13768864 C-970.70839062 1333.3865485 -970.70778637 1334.63540836 -970.70716381 1335.92211246 C-970.60219591 1416.67571418 -960.8110068 1496.56542431 -941.09705639 1574.89855289 C-940.38708245 1577.73769576 -939.69532093 1580.58106187 -939.0049696 1583.42502689 C-932.41940497 1610.49000111 -924.07126003 1637.21841008 -914.53956127 1663.39208317 C-913.52222283 1666.19818073 -912.51917755 1669.0091933 -911.51815319 1671.82114506 C-905.33921693 1689.16257696 -898.89993012 1706.32560789 -891.52149487 1723.20018864 C-891.0360017 1724.31248844 -890.55050854 1725.42478825 -890.05030346 1726.57079411 C-871.7178137 1768.38690839 -851.2769677 1809.18938307 -827.52149487 1848.20018864 C-826.96897045 1849.1099445 -826.96897045 1849.1099445 -826.40528393 1850.03807926 C-824.13426903 1853.77362181 -821.83224137 1857.48912108 -819.52149487 1861.20018864 C-818.92860668 1862.16118473 -818.92860668 1862.16118473 -818.32374096 1863.14159489 C-811.72239315 1873.83163221 -804.82320504 1884.30386173 -797.77149487 1894.70018864 C-797.37175457 1895.2904282 -796.97201427 1895.88066776 -796.56016064 1896.48879337 C-789.57495526 1906.79124927 -782.31503856 1916.87694997 -774.83399487 1926.82518864 C-774.33053539 1927.49485661 -773.82707592 1928.16452457 -773.3083601 1928.85448551 C-771.71468518 1930.97119634 -770.11852853 1933.08601102 -768.52149487 1935.20018864 C-767.99362377 1935.89982731 -767.46575268 1936.59946598 -766.92188549 1937.32030582 C-759.00608226 1947.79596991 -750.87671435 1958.07174884 -742.52149487 1968.20018864 C-742.05050365 1968.77172672 -741.57951244 1969.34326481 -741.09424877 1969.93212223 C-736.64562682 1975.3223188 -732.16073111 1980.67654023 -727.52930737 1985.91112614 C-725.92639941 1987.73856594 -724.34125927 1989.57758063 -722.76368237 1991.42675114 C-714.9141347 2000.60310483 -706.74164484 2009.42296318 -698.42872143 2018.17968082 C-695.05445481 2021.75436471 -691.73083778 2025.37562879 -688.41382885 2029.00341129 C-685.52610925 2032.15126214 -682.55622484 2035.19426939 -679.52149487 2038.20018864 C-678.73129955 2039.00198551 -677.94110424 2039.80378239 -677.12696362 2040.62987614 C-672.74799222 2045.05836741 -668.31675606 2049.31069116 -663.58399487 2053.35643864 C-660.23387233 2056.35124515 -657.1277318 2059.5865246 -653.97071362 2062.78221989 C-651.20763434 2065.51004456 -648.32326658 2068.04227516 -645.37305737 2070.56346989 C-643.56221479 2072.16419359 -641.88741243 2073.83711168 -640.20899487 2075.57518864 C-636.49212194 2079.35979501 -632.40708203 2082.6226927 -628.27930737 2085.94628239 C-625.79885645 2087.97350644 -623.40045527 2090.05571358 -621.02149487 2092.20018864 C-616.91852298 2095.88776194 -612.68041254 2099.38170541 -608.39649487 2102.85643864 C-605.47748452 2105.23606664 -602.59206079 2107.65218643 -599.70899487 2110.07518864 C-584.09151571 2123.09980445 -567.79146497 2135.26498226 -551.19532299 2147.00878239 C-549.58326107 2148.15622436 -547.98182763 2149.31855389 -546.38086987 2150.48143864 C-527.60491382 2164.08720389 -508.10719889 2176.67242399 -488.21729565 2188.58007145 C-485.44492891 2190.2462031 -482.68184908 2191.92695405 -479.91993237 2193.61034489 C-466.55231446 2201.73169883 -453.03255508 2209.44906156 -439.21143627 2216.7714777 C-436.83260301 2218.0349495 -434.46258085 2219.31293387 -432.09571362 2220.59862614 C-410.07027466 2232.48243678 -387.38413586 2243.83650568 -364.13965893 2253.13329411 C-360.89519981 2254.45540212 -357.67321132 2255.82852581 -354.45118237 2257.20409489 C-337.64602687 2264.36699594 -320.74862592 2271.10341005 -303.52149487 2277.20018864 C-302.53856457 2277.54856785 -302.53856457 2277.54856785 -301.53577709 2277.90398502 C-272.0589429 2288.33885768 -242.37269503 2297.71650236 -212.03023815 2305.31585026 C-208.71680898 2306.15096196 -205.40778807 2307.0014916 -202.09961987 2307.85717106 C-185.6082716 2312.09392702 -169.06264085 2315.66452305 -152.33399487 2318.82518864 C-151.09092571 2319.06175175 -149.84785656 2319.29831486 -148.56711864 2319.54204655 C-112.67304671 2326.36296239 -76.92703694 2331.09767349 -40.52149487 2334.20018864 C-39.51687206 2334.28589115 -38.51224926 2334.37159367 -37.47718334 2334.45989323 C16.33674356 2338.97549239 70.87276492 2338.8885384 124.68529224 2334.43126774 C127.50725167 2334.19781047 130.32972117 2333.97150317 133.15233326 2333.74608707 C191.34076718 2329.04693767 248.73113168 2318.89491267 305.14012623 2303.82073307 C308.0734517 2303.04230542 311.01218759 2302.28594131 313.95158863 2301.5308466 C345.0329072 2293.52893481 375.79305902 2283.77477337 405.49803638 2271.60253239 C409.75394733 2269.85961873 414.04004828 2268.27394566 418.38084888 2266.75487614 C425.463546 2264.25570213 432.34315351 2261.38272721 439.22850513 2258.38768864 C440.46302631 2257.85368931 441.69764692 2257.3199198 442.93236256 2256.78637028 C446.45053718 2255.26403899 449.96468287 2253.73254006 453.47850513 2252.20018864 C454.35651783 2251.81927067 455.23453053 2251.4383527 456.13914967 2251.04589176 C487.37209606 2237.48276188 518.12266629 2222.187533 547.65965748 2205.24266911 C549.50899449 2204.18271353 551.36235853 2203.13011501 553.21678638 2202.07909489 C565.50809656 2195.10360876 577.51852996 2187.72455273 589.47850513 2180.20018864 C590.48526295 2179.56725895 591.49202076 2178.93432926 592.52928638 2178.28221989 C598.16158898 2174.72025717 603.7270053 2171.06717499 609.25975513 2167.35253239 C611.5025469 2165.85280148 613.75035762 2164.36572897 616.00975513 2162.89159489 C623.55200481 2157.95101671 630.85748429 2152.78365285 638.02440357 2147.3105402 C641.75966571 2144.46050247 645.56407829 2141.80278199 649.47850513 2139.20018864 C651.45000424 2137.71753536 653.40769782 2136.21640213 655.35350513 2134.70018864 C661.12382554 2130.219145 666.95742012 2125.82877574 672.8334856 2121.48729801 C676.65316761 2118.64465352 680.31328899 2115.68173959 683.90623951 2112.55761051 C685.9031002 2110.83361278 687.96460814 2109.20213297 690.04100513 2107.57518864 C699.25945255 2100.23691162 708.12499391 2092.47610793 716.84178638 2084.55175114 C720.07116601 2081.67162294 723.36765608 2078.87571448 726.66600513 2076.07518864 C730.87885954 2072.4928637 734.96320206 2068.88385093 738.79163074 2064.88587284 C740.51941299 2063.15930964 742.31872194 2061.57745954 744.17552662 2059.99096012 C748.44230501 2056.28007448 752.45980718 2052.36357258 756.45116138 2048.36034489 C757.17790562 2047.63455738 757.90464985 2046.90876987 758.65341663 2046.16098881 C760.1781281 2044.63695308 761.70159664 2043.11167294 763.22386646 2041.5851984 C765.53484405 2039.268864 767.85111284 2036.95791786 770.16795826 2034.64745426 C771.65851334 2033.1562383 773.14875814 2031.66471211 774.63866138 2030.17284489 C775.32114445 2029.49238605 776.00362751 2028.81192722 776.70679188 2028.11084843 C780.59355026 2024.20536675 784.30113576 2020.20086954 787.88107777 2016.01169682 C789.51215324 2014.16203115 791.21792051 2012.42632221 792.97850513 2010.70018864 C796.03288845 2007.69342377 798.86271777 2004.54577668 801.66209888 2001.30175114 C803.58036188 1999.08234148 805.52609364 1996.88959806 807.47850513 1994.70018864 C808.81199733 1993.20032986 810.14533632 1991.70033486 811.47850513 1990.20018864 C812.05471607 1989.55307926 812.63092701 1988.90596989 813.22459888 1988.23925114 C817.29828718 1983.62930364 821.20645045 1978.89854414 825.08788013 1974.12596989 C828.30050904 1970.19417405 831.56202117 1966.30410201 834.82616138 1962.41503239 C847.95668628 1946.60262775 860.30901019 1930.14506228 872.0341692 1913.26952457 C873.5227517 1911.13679549 875.02564565 1909.01486173 876.53319263 1906.89550114 C885.3275681 1894.53006778 893.80526217 1882.01044768 901.79710865 1869.11010075 C904.12836463 1865.34760459 906.49865003 1861.61695631 908.92186451 1857.91307926 C912.93708779 1851.76761536 916.63014192 1845.50027681 920.18065357 1839.07543278 C922.4329956 1835.01174283 924.79410904 1831.05843458 927.29100513 1827.13768864 C932.73506346 1818.40338433 937.29982786 1809.19303947 942.00438404 1800.04686832 C943.74880469 1796.67821235 945.53305835 1793.33208272 947.32176685 1789.98680973 C988.83066783 1712.13891895 1016.72722388 1627.94592464 1042.10405445 1512.5025568 C1042.53161742 1509.87361953 1042.97372141 1507.24734057 1043.41746998 1504.62108707 C1047.80127902 1478.65302017 1051.93802007 1452.69921121 1054.27275562 1426.45855045 C1054.47913869 1424.19323455 1054.70145348 1421.92995544 1054.9272356 1419.66649723 C1057.66785003 1391.70568949 1057.79619745 1363.68867227 1057.84686756 1335.6201601 C1057.85336514 1332.70059304 1057.86480538 1329.78108191 1057.87730885 1326.86153507 C1058.06933586 1275.12388061 1053.8332427 1224.01472381 1045.27733326 1173.00682926 C1044.61719548 1169.0615775 1043.9874819 1165.11217472 1043.36595631 1161.16068363 C1037.15545765 1121.89064653 1027.92902185 1082.96601498 1015.7319231 1045.12108707 C1014.35857317 1040.84979924 1013.04542291 1036.56064575 1011.73241138 1032.27050114 C1006.84719342 1016.3615281 1001.67823288 1000.65294229 995.61546803 985.14501286 C994.51190614 982.2866999 993.43746098 979.41842937 992.36961842 976.54660892 C982.16134708 949.11331762 970.31611944 922.4961818 957.47850513 896.20018864 C957.12278431 895.47154606 956.76706348 894.74290348 956.40056324 893.99218082 C948.82476759 878.4990313 941.1592261 863.06855494 932.56688404 848.10790348 C931.4821009 846.20649132 930.42042378 844.29393647 929.36522388 842.37596989 C911.56564821 810.1091218 891.29208617 778.89151541 869.47850513 749.20018864 C868.90712818 748.4184528 868.33575123 747.63671696 867.74705982 746.83129215 C850.0111472 722.57390016 831.74083361 698.71719007 811.52147388 676.45800114 C809.67053491 674.41241274 807.84978268 672.34552339 806.04100513 670.26268864 C802.46059471 666.15061634 798.78549329 662.12755728 795.10350513 658.10643864 C793.70857669 656.56205357 792.31808569 655.01311878 790.96336842 653.43334293 C786.02889298 647.68176237 780.73614121 642.34364505 775.35350513 637.01268864 C774.47307545 636.13677067 773.59264576 635.2608527 772.68553638 634.35839176 C770.28498425 631.97051223 767.88190342 629.58520266 765.47850513 627.20018864 C763.12996964 624.85889054 760.78761013 622.51178882 758.45213795 620.15746403 C756.02549968 617.71130516 753.595796 615.26821572 751.16600513 612.82518864 C749.94107349 611.58768864 749.94107349 611.58768864 748.69139576 610.32518864 C744.33288523 605.94931353 739.91997084 601.72129226 735.21141529 597.72264957 C733.43860266 596.16513202 731.79985463 594.52696396 730.16600513 592.82518864 C726.47348813 589.06553496 722.41440122 585.83074603 718.31444263 582.52831364 C713.89868906 578.90325974 709.70386233 575.04335272 705.47850513 571.20018864 C700.48132447 566.7170037 695.34954012 562.45168681 690.08788013 558.28221989 C687.50521002 556.22149658 684.95988407 554.12102467 682.41600513 552.01268864 C670.76952325 542.46881562 658.66049759 533.49334873 646.47655201 524.65087223 C644.3030345 523.07278804 642.13308674 521.48985362 639.96288013 519.90721989 C628.82455345 511.80280123 617.50453442 504.1065132 605.89281178 496.69310856 C602.23327553 494.35078566 598.61708083 491.95359905 595.02000904 489.51659489 C587.83045976 484.65413438 580.47989459 480.17110448 572.97069263 475.82128239 C569.891406 474.03551251 566.83785867 472.21377078 563.79881763 470.36034489 C550.93021912 462.51598409 537.79263913 455.25868442 524.47850513 448.20018864 C523.79541279 447.83646152 523.11232044 447.47273441 522.40852833 447.09798527 C510.51516713 440.76796466 498.5304923 434.65834129 486.41600513 428.76268864 C485.57366322 428.35221287 484.7313213 427.9417371 483.86345387 427.51882267 C469.59253934 420.57871921 455.2061804 414.12008943 440.47850513 408.20018864 C438.40292123 407.35659379 436.32740114 406.51284194 434.25194263 405.66893864 C429.04101541 403.55964751 423.81753185 401.48395219 418.58641529 399.42528629 C416.53496216 398.61663022 414.48511549 397.80388534 412.43700123 396.98680973 C393.69924901 389.51517993 374.67016059 383.05728802 355.48454762 376.84996891 C353.67580062 376.26409492 351.86833225 375.67427705 350.06102467 375.0839777 C313.12454132 363.07449461 275.35804828 354.14595915 237.2584734 346.74120426 C234.5941409 346.22269276 231.93101204 345.69837243 229.26805592 345.17284489 C188.7085985 337.20902006 147.65691313 333.35991315 106.47850513 330.20018864 C105.29436024 330.10770847 105.29436024 330.10770847 104.08629322 330.01336002 C9.56812611 322.66769045 -86.71820104 332.73474808 -219.48762035 362.64940739 Z " fill="#00CC2C" transform="translate(1623.5214948654175,333.7998113632202)"/>
<path d="M0 0 C0.63856934 0.20898926 1.27713867 0.41797852 1.93505859 0.63330078 C16.80590355 5.68099415 30.31080991 13.54869691 42 24 C43.38638672 25.18916016 43.38638672 25.18916016 44.80078125 26.40234375 C65.66293453 44.66754849 80.27635867 69.89586281 86 97 C86.18401367 97.8672168 86.36802734 98.73443359 86.55761719 99.62792969 C88.18651639 108.20215311 88.39891586 116.68194665 88.375 125.375 C88.37418427 126.49433929 88.37418427 126.49433929 88.37335205 127.6362915 C88.33061425 140.44224524 87.21372225 152.56129418 84 165 C83.79101074 165.83063965 83.58202148 166.6612793 83.36669922 167.51708984 C74.4291305 202.14933177 55.955351 234.04123271 34 262 C33.360625 262.81984375 32.72125 263.6396875 32.0625 264.484375 C23.37224862 275.48735456 14.21328833 286.02349864 4.6328125 296.25390625 C2.87522323 298.13343353 1.12470695 300.01938381 -0.625 301.90625 C-1.85401465 303.2293079 -3.08317857 304.55222715 -4.3125 305.875 C-4.87493408 306.48134277 -5.43736816 307.08768555 -6.0168457 307.71240234 C-8.8619631 310.76477995 -11.74578339 313.76296197 -14.70703125 316.703125 C-17.03645572 319.01671184 -19.26188689 321.35938915 -21.375 323.875 C-23.96634205 326.8846753 -26.67254783 329.71088616 -29.5 332.5 C-32.28621141 335.2485599 -34.95308392 338.02859791 -37.5 341 C-40.75164628 344.79358733 -44.25713094 348.27392647 -47.8125 351.78125 C-49.79720342 353.79430632 -51.66096916 355.85446403 -53.5 358 C-56.04691608 360.97140209 -58.71378859 363.7514401 -61.5 366.5 C-64.26560408 369.22829407 -66.91287031 371.98516834 -69.4375 374.9375 C-72.9446944 379.03058303 -76.75725158 382.77224704 -80.58984375 386.55859375 C-83.26854532 389.27202727 -85.74608118 392.10777023 -88.22265625 395.00390625 C-90.94977223 398.06666727 -93.89404637 400.90223493 -96.8125 403.78125 C-98.79720342 405.79430632 -100.66096916 407.85446403 -102.5 410 C-105.75164628 413.79358733 -109.25713094 417.27392647 -112.8125 420.78125 C-114.79720342 422.79430632 -116.66096916 424.85446403 -118.5 427 C-121.04691608 429.97140209 -123.71378859 432.7514401 -126.5 435.5 C-129.26560408 438.22829407 -131.91287031 440.98516834 -134.4375 443.9375 C-137.9446944 448.03058303 -141.75725158 451.77224704 -145.58984375 455.55859375 C-148.26854532 458.27202727 -150.74608118 461.10777023 -153.22265625 464.00390625 C-155.94977223 467.06666727 -158.89404637 469.90223493 -161.8125 472.78125 C-163.79720342 474.79430632 -165.66096916 476.85446403 -167.5 479 C-170.04691608 481.97140209 -172.71378859 484.7514401 -175.5 487.5 C-178.26560408 490.22829407 -180.91287031 492.98516834 -183.4375 495.9375 C-186.9446944 500.03058303 -190.75725158 503.77224704 -194.58984375 507.55859375 C-197.26854532 510.27202727 -199.74608118 513.10777023 -202.22265625 516.00390625 C-204.94977223 519.06666727 -207.89404637 521.90223493 -210.8125 524.78125 C-212.79720342 526.79430632 -214.66096916 528.85446403 -216.5 531 C-219.75164628 534.79358733 -223.25713094 538.27392647 -226.8125 541.78125 C-228.79720342 543.79430632 -230.66096916 545.85446403 -232.5 548 C-235.04691608 550.97140209 -237.71378859 553.7514401 -240.5 556.5 C-243.26560408 559.22829407 -245.91287031 561.98516834 -248.4375 564.9375 C-251.9446944 569.03058303 -255.75725158 572.77224704 -259.58984375 576.55859375 C-262.26854532 579.27202727 -264.74608118 582.10777023 -267.22265625 585.00390625 C-269.94977223 588.06666727 -272.89404637 590.90223493 -275.8125 593.78125 C-277.79720342 595.79430632 -279.66096916 597.85446403 -281.5 600 C-284.04691608 602.97140209 -286.71378859 605.7514401 -289.5 608.5 C-292.26560408 611.22829407 -294.91287031 613.98516834 -297.4375 616.9375 C-300.9446944 621.03058303 -304.75725158 624.77224704 -308.58984375 628.55859375 C-311.26854532 631.27202727 -313.74608118 634.10777023 -316.22265625 637.00390625 C-318.94977223 640.06666727 -321.89404637 642.90223493 -324.8125 645.78125 C-326.79720342 647.79430632 -328.66096916 649.85446403 -330.5 652 C-333.75164628 655.79358733 -337.25713094 659.27392647 -340.8125 662.78125 C-342.79720342 664.79430632 -344.66096916 666.85446403 -346.5 669 C-349.04691608 671.97140209 -351.71378859 674.7514401 -354.5 677.5 C-357.26560408 680.22829407 -359.91287031 682.98516834 -362.4375 685.9375 C-365.9446944 690.03058303 -369.75725158 693.77224704 -373.58984375 697.55859375 C-376.26854532 700.27202727 -378.74608118 703.10777023 -381.22265625 706.00390625 C-383.94977223 709.06666727 -386.89404637 711.90223493 -389.8125 714.78125 C-391.79720342 716.79430632 -393.66096916 718.85446403 -395.5 721 C-398.75164628 724.79358733 -402.25713094 728.27392647 -405.8125 731.78125 C-407.79720342 733.79430632 -409.66096916 735.85446403 -411.5 738 C-414.04691608 740.97140209 -416.71378859 743.7514401 -419.5 746.5 C-422.26560408 749.22829407 -424.91287031 751.98516834 -427.4375 754.9375 C-430.9446944 759.03058303 -434.75725158 762.77224704 -438.58984375 766.55859375 C-441.26854532 769.27202727 -443.74608118 772.10777023 -446.22265625 775.00390625 C-448.94977223 778.06666727 -451.89404637 780.90223493 -454.8125 783.78125 C-456.79720342 785.79430632 -458.66096916 787.85446403 -460.5 790 C-463.04691608 792.97140209 -465.71378859 795.7514401 -468.5 798.5 C-471.26560408 801.22829407 -473.91287031 803.98516834 -476.4375 806.9375 C-479.9446944 811.03058303 -483.75725158 814.77224704 -487.58984375 818.55859375 C-490.26854532 821.27202727 -492.74608118 824.10777023 -495.22265625 827.00390625 C-497.94977223 830.06666727 -500.89404637 832.90223493 -503.8125 835.78125 C-505.79720342 837.79430632 -507.66096916 839.85446403 -509.5 842 C-512.75164628 845.79358733 -516.25713094 849.27392647 -519.8125 852.78125 C-521.79720342 854.79430632 -523.66096916 856.85446403 -525.5 859 C-528.04691608 861.97140209 -530.71378859 864.7514401 -533.5 867.5 C-536.26560408 870.22829407 -538.91287031 872.98516834 -541.4375 875.9375 C-544.9446944 880.03058303 -548.75725158 883.77224704 -552.58984375 887.55859375 C-555.26854532 890.27202727 -557.74608118 893.10777023 -560.22265625 896.00390625 C-562.94977223 899.06666727 -565.89404637 901.90223493 -568.8125 904.78125 C-570.79720342 906.79430632 -572.66096916 908.85446403 -574.5 911 C-577.04691608 913.97140209 -579.71378859 916.7514401 -582.5 919.5 C-585.26560408 922.22829407 -587.91287031 924.98516834 -590.4375 927.9375 C-593.9446944 932.03058303 -597.75725158 935.77224704 -601.58984375 939.55859375 C-604.26854532 942.27202727 -606.74608118 945.10777023 -609.22265625 948.00390625 C-611.94977223 951.06666727 -614.89404637 953.90223493 -617.8125 956.78125 C-619.79720342 958.79430632 -621.66096916 960.85446403 -623.5 963 C-626.75164628 966.79358733 -630.25713094 970.27392647 -633.8125 973.78125 C-635.79720342 975.79430632 -637.66096916 977.85446403 -639.5 980 C-642.04691608 982.97140209 -644.71378859 985.7514401 -647.5 988.5 C-650.26560408 991.22829407 -652.91287031 993.98516834 -655.4375 996.9375 C-658.9446944 1001.03058303 -662.75725158 1004.77224704 -666.58984375 1008.55859375 C-668.67189216 1010.66763793 -670.63523082 1012.81327402 -672.5625 1015.0625 C-678.84417453 1022.35451379 -685.6846796 1028.7555177 -693.203125 1034.7578125 C-695.00702822 1036.20395838 -696.79032324 1037.67638093 -698.546875 1039.1796875 C-721.69946271 1058.89446673 -752.51449331 1075.2152949 -783.375 1075.4375 C-784.37329834 1075.44765137 -785.37159668 1075.45780273 -786.40014648 1075.46826172 C-801.43193516 1075.29075536 -812.03417422 1069.40769159 -822.47821045 1058.86239624 C-824.03371662 1057.2686692 -825.57999624 1055.6664049 -827.125 1054.0625 C-828.68447212 1052.46001968 -830.24696068 1050.86060122 -831.81222534 1049.26377869 C-833.22949381 1047.81546436 -834.63871319 1046.35928594 -836.04736328 1044.90258789 C-838.15943288 1042.77321518 -840.36168061 1040.80305296 -842.64013672 1038.85327148 C-847.61561418 1034.54550783 -852.22924361 1029.88354427 -856.8611145 1025.21405029 C-858.47453514 1023.58766731 -860.09123271 1021.96460304 -861.70874023 1020.34228516 C-865.72241101 1016.31536577 -869.73056835 1012.28297337 -873.7388916 1008.25073242 C-877.13805724 1004.8317138 -880.53934867 1001.41483601 -883.94338989 998.00067139 C-885.52287066 996.41478994 -887.09926797 994.82588904 -888.67553711 993.23681641 C-892.68004828 989.21211809 -896.67036023 985.20735412 -900.98632812 981.51367188 C-905.92865413 977.28162404 -910.46708514 972.64449939 -915.04631042 968.02885437 C-916.69333883 966.36886941 -918.34363952 964.71219765 -919.99475098 963.05627441 C-924.09189552 958.94587777 -928.18352904 954.83000966 -932.27532959 950.71429443 C-935.74495724 947.22481779 -939.21670797 943.73747892 -942.69120789 940.25285339 C-944.30392583 938.63373229 -945.91356218 937.01159216 -947.52307129 935.38928223 C-952.30711877 930.58178094 -957.1159307 925.86282524 -962.30693054 921.48834229 C-965.54468607 918.64209848 -968.40110135 915.42312283 -971.3125 912.25 C-977.42671937 905.67413655 -983.65538779 899.22895259 -990 892.875 C-990.77641846 892.09415039 -991.55283691 891.31330078 -992.3527832 890.50878906 C-993.10261475 889.76081055 -993.85244629 889.01283203 -994.625 888.2421875 C-995.27726562 887.5910498 -995.92953125 886.93991211 -996.6015625 886.26904297 C-998.58357965 884.39395467 -1000.59976106 882.61359401 -1002.66796875 880.83642578 C-1007.5678523 876.5723936 -1012.11869733 871.98828576 -1016.6875 867.375 C-1017.58944092 866.46927246 -1018.49138184 865.56354492 -1019.4206543 864.63037109 C-1022.76605444 861.27078694 -1026.10688392 857.90668738 -1029.4473877 854.54223633 C-1032.732918 851.23365649 -1036.02233791 847.92897519 -1039.3125 844.625 C-1040.16481201 843.76438965 -1041.01712402 842.9037793 -1041.89526367 842.01708984 C-1046.1260303 837.76916411 -1050.42829608 833.70875941 -1054.97363281 829.80151367 C-1058.97630654 826.24299206 -1062.70189817 822.39824294 -1066.46875 818.59375 C-1067.34849487 817.71021851 -1068.22823975 816.82668701 -1069.13464355 815.91638184 C-1072.39656945 812.6402768 -1075.65392564 809.3596502 -1078.91094971 806.07867432 C-1082.1148726 802.85169462 -1085.32269116 799.6286192 -1088.53125 796.40625 C-1089.36168823 795.56751343 -1090.19212646 794.72877686 -1091.04772949 793.86462402 C-1094.60230346 790.29527012 -1098.16544235 786.79816774 -1101.98632812 783.51367188 C-1106.79665 779.37650239 -1111.22504569 774.88090197 -1115.6875 770.375 C-1116.58944092 769.46927246 -1117.49138184 768.56354492 -1118.4206543 767.63037109 C-1121.76605444 764.27078694 -1125.10688392 760.90668738 -1128.4473877 757.54223633 C-1131.732918 754.23365649 -1135.02233791 750.92897519 -1138.3125 747.625 C-1139.16481201 746.76438965 -1140.01712402 745.9037793 -1140.89526367 745.01708984 C-1144.50507846 741.3926344 -1148.11992324 737.83544524 -1152 734.5 C-1156.80644594 730.36821648 -1161.22959805 725.87630529 -1165.6875 721.375 C-1166.58944092 720.46927246 -1167.49138184 719.56354492 -1168.4206543 718.63037109 C-1171.76605444 715.27078694 -1175.10688392 711.90668738 -1178.4473877 708.54223633 C-1181.732918 705.23365649 -1185.02233791 701.92897519 -1188.3125 698.625 C-1189.16481201 697.76438965 -1190.01712402 696.9037793 -1190.89526367 696.01708984 C-1195.1260303 691.76916411 -1199.42829608 687.70875941 -1203.97363281 683.80151367 C-1207.97630654 680.24299206 -1211.70189817 676.39824294 -1215.46875 672.59375 C-1216.34849487 671.71021851 -1217.22823975 670.82668701 -1218.13464355 669.91638184 C-1221.39656945 666.6402768 -1224.65392564 663.3596502 -1227.91094971 660.07867432 C-1231.1148726 656.85169462 -1234.32269116 653.6286192 -1237.53125 650.40625 C-1238.36168823 649.56751343 -1239.19212646 648.72877686 -1240.04772949 647.86462402 C-1244.24876715 643.64611844 -1248.52439912 639.61010073 -1253.03753662 635.72869873 C-1256.59670284 632.59349316 -1259.94180002 629.24133064 -1263.3046875 625.8984375 C-1264.0687088 625.14011627 -1264.8327301 624.38179504 -1265.61990356 623.60049438 C-1267.22633947 622.00344601 -1268.83137198 620.40498485 -1270.43505859 618.80517578 C-1272.85453958 616.39537853 -1275.28450188 613.99649278 -1277.71484375 611.59765625 C-1288.32188573 601.06427003 -1298.55512385 590.47308617 -1305.6875 577.1875 C-1306.23229004 576.19049072 -1306.23229004 576.19049072 -1306.78808594 575.17333984 C-1318.44138202 553.46511826 -1324.44281313 531.26257751 -1324.375 506.5625 C-1324.37445618 505.81565948 -1324.37391235 505.06881897 -1324.37335205 504.29934692 C-1324.23519879 462.91470859 -1306.61038819 429.27290163 -1278 400 C-1275.43988312 397.5116621 -1272.78601163 395.23082816 -1270 393 C-1269.0821875 392.24460937 -1268.164375 391.48921875 -1267.21875 390.7109375 C-1234.4351143 364.22304915 -1193.98937367 355.18617699 -1152.5 359.4609375 C-1148.26009644 360.03465983 -1144.13701906 360.91703661 -1140 362 C-1139.26281738 362.18804199 -1138.52563477 362.37608398 -1137.76611328 362.56982422 C-1109.65377579 369.99204817 -1086.90250281 384.70490829 -1066.74206543 405.28967285 C-1065.01681911 406.98348732 -1063.22956601 408.5485287 -1061.38867188 410.11523438 C-1056.5474774 414.32893833 -1052.04514793 418.84724594 -1047.53125 423.40625 C-1046.65150513 424.28978149 -1045.77176025 425.17331299 -1044.86535645 426.08361816 C-1041.60343055 429.3597232 -1038.34607436 432.6403498 -1035.08905029 435.92132568 C-1031.8851274 439.14830538 -1028.67730884 442.3713808 -1025.46875 445.59375 C-1024.63831177 446.43248657 -1023.80787354 447.27122314 -1022.95227051 448.13537598 C-1019.39769654 451.70472988 -1015.83455765 455.20183226 -1012.01367188 458.48632812 C-1007.20335 462.62349761 -1002.77495431 467.11909803 -998.3125 471.625 C-996.95958862 472.98359131 -996.95958862 472.98359131 -995.5793457 474.36962891 C-992.23394556 477.72921306 -988.89311608 481.09331262 -985.5526123 484.45776367 C-982.267082 487.76634351 -978.97766209 491.07102481 -975.6875 494.375 C-974.83518799 495.23561035 -973.98287598 496.0962207 -973.10473633 496.98291016 C-968.8739697 501.23083589 -964.57170392 505.29124059 -960.02636719 509.19848633 C-956.02369346 512.75700794 -952.29810183 516.60175706 -948.53125 520.40625 C-947.65150513 521.28978149 -946.77176025 522.17331299 -945.86535645 523.08361816 C-942.60343055 526.3597232 -939.34607436 529.6403498 -936.08905029 532.92132568 C-932.8851274 536.14830538 -929.67730884 539.3713808 -926.46875 542.59375 C-925.63831177 543.43248657 -924.80787354 544.27122314 -923.95227051 545.13537598 C-920.39769654 548.70472988 -916.83455765 552.20183226 -913.01367188 555.48632812 C-908.20335 559.62349761 -903.77495431 564.11909803 -899.3125 568.625 C-898.41055908 569.53072754 -897.50861816 570.43645508 -896.5793457 571.36962891 C-893.23394556 574.72921306 -889.89311608 578.09331262 -886.5526123 581.45776367 C-883.267082 584.76634351 -879.97766209 588.07102481 -876.6875 591.375 C-875.83518799 592.23561035 -874.98287598 593.0962207 -874.10473633 593.98291016 C-870.49492154 597.6073656 -866.88007676 601.16455476 -863 604.5 C-858.19355406 608.63178352 -853.77040195 613.12369471 -849.3125 617.625 C-848.41055908 618.53072754 -847.50861816 619.43645508 -846.5793457 620.36962891 C-843.23394556 623.72921306 -839.89311608 627.09331262 -836.5526123 630.45776367 C-833.267082 633.76634351 -829.97766209 637.07102481 -826.6875 640.375 C-825.83518799 641.23561035 -824.98287598 642.0962207 -824.10473633 642.98291016 C-819.87088971 647.23392838 -815.56615251 651.29967644 -811.01733398 655.20974731 C-807.07621218 658.70723655 -803.40028182 662.47845633 -799.6875 666.21484375 C-798.83317383 667.07058487 -797.97884766 667.92632599 -797.09863281 668.80799866 C-794.39671138 671.51547381 -791.69830641 674.22642254 -789 676.9375 C-787.15778423 678.78473675 -785.31533857 680.63174427 -783.47265625 682.47851562 C-778.97910939 686.98303003 -774.4884368 691.49039405 -770 696 C-765.98856564 694.15269239 -763.24094209 691.50539133 -760.1875 688.375 C-759.65342529 687.83447998 -759.11935059 687.29395996 -758.5690918 686.73706055 C-755.14339178 683.2447916 -751.87765366 679.65184116 -748.70703125 675.92578125 C-746.00778615 672.88063747 -743.07938937 670.07157299 -740.18359375 667.21484375 C-738.22025329 665.22340539 -736.37920331 663.18697422 -734.5625 661.0625 C-731.0553056 656.96941697 -727.24274842 653.22775296 -723.41015625 649.44140625 C-720.73145468 646.72797273 -718.25391882 643.89222977 -715.77734375 640.99609375 C-713.05022777 637.93333273 -710.10595363 635.09776507 -707.1875 632.21875 C-705.20279658 630.20569368 -703.33903084 628.14553597 -701.5 626 C-698.24835372 622.20641267 -694.74286906 618.72607353 -691.1875 615.21875 C-689.20279658 613.20569368 -687.33903084 611.14553597 -685.5 609 C-682.95308392 606.02859791 -680.28621141 603.2485599 -677.5 600.5 C-674.73439592 597.77170593 -672.08712969 595.01483166 -669.5625 592.0625 C-666.0553056 587.96941697 -662.24274842 584.22775296 -658.41015625 580.44140625 C-655.73145468 577.72797273 -653.25391882 574.89222977 -650.77734375 571.99609375 C-648.05022777 568.93333273 -645.10595363 566.09776507 -642.1875 563.21875 C-640.20279658 561.20569368 -638.33903084 559.14553597 -636.5 557 C-633.95308392 554.02859791 -631.28621141 551.2485599 -628.5 548.5 C-625.73439592 545.77170593 -623.08712969 543.01483166 -620.5625 540.0625 C-617.0553056 535.96941697 -613.24274842 532.22775296 -609.41015625 528.44140625 C-606.73145468 525.72797273 -604.25391882 522.89222977 -601.77734375 519.99609375 C-599.05022777 516.93333273 -596.10595363 514.09776507 -593.1875 511.21875 C-591.20279658 509.20569368 -589.33903084 507.14553597 -587.5 505 C-584.24835372 501.20641267 -580.74286906 497.72607353 -577.1875 494.21875 C-575.20279658 492.20569368 -573.33903084 490.14553597 -571.5 488 C-568.95308392 485.02859791 -566.28621141 482.2485599 -563.5 479.5 C-560.73439592 476.77170593 -558.08712969 474.01483166 -555.5625 471.0625 C-552.0553056 466.96941697 -548.24274842 463.22775296 -544.41015625 459.44140625 C-541.73145468 456.72797273 -539.25391882 453.89222977 -536.77734375 450.99609375 C-534.05022777 447.93333273 -531.10595363 445.09776507 -528.1875 442.21875 C-526.20279658 440.20569368 -524.33903084 438.14553597 -522.5 436 C-519.95308392 433.02859791 -517.28621141 430.2485599 -514.5 427.5 C-511.73439592 424.77170593 -509.08712969 422.01483166 -506.5625 419.0625 C-503.0553056 414.96941697 -499.24274842 411.22775296 -495.41015625 407.44140625 C-492.73145468 404.72797273 -490.25391882 401.89222977 -487.77734375 398.99609375 C-485.05022777 395.93333273 -482.10595363 393.09776507 -479.1875 390.21875 C-477.20279658 388.20569368 -475.33903084 386.14553597 -473.5 384 C-470.24835372 380.20641267 -466.74286906 376.72607353 -463.1875 373.21875 C-461.20279658 371.20569368 -459.33903084 369.14553597 -457.5 367 C-454.95308392 364.02859791 -452.28621141 361.2485599 -449.5 358.5 C-446.73439592 355.77170593 -444.08712969 353.01483166 -441.5625 350.0625 C-438.0553056 345.96941697 -434.24274842 342.22775296 -430.41015625 338.44140625 C-427.73145468 335.72797273 -425.25391882 332.89222977 -422.77734375 329.99609375 C-420.05022777 326.93333273 -417.10595363 324.09776507 -414.1875 321.21875 C-412.20279658 319.20569368 -410.33903084 317.14553597 -408.5 315 C-405.24835372 311.20641267 -401.74286906 307.72607353 -398.1875 304.21875 C-396.20279658 302.20569368 -394.33903084 300.14553597 -392.5 298 C-389.95308392 295.02859791 -387.28621141 292.2485599 -384.5 289.5 C-381.73439592 286.77170593 -379.08712969 284.01483166 -376.5625 281.0625 C-373.0553056 276.96941697 -369.24274842 273.22775296 -365.41015625 269.44140625 C-362.73145468 266.72797273 -360.25391882 263.89222977 -357.77734375 260.99609375 C-355.05022777 257.93333273 -352.10595363 255.09776507 -349.1875 252.21875 C-347.20279658 250.20569368 -345.33903084 248.14553597 -343.5 246 C-340.95308392 243.02859791 -338.28621141 240.2485599 -335.5 237.5 C-332.73439592 234.77170593 -330.08712969 232.01483166 -327.5625 229.0625 C-324.0553056 224.96941697 -320.24274842 221.22775296 -316.41015625 217.44140625 C-313.73145468 214.72797273 -311.25391882 211.89222977 -308.77734375 208.99609375 C-306.05022777 205.93333273 -303.10595363 203.09776507 -300.1875 200.21875 C-298.20279658 198.20569368 -296.33903084 196.14553597 -294.5 194 C-291.24835372 190.20641267 -287.74286906 186.72607353 -284.1875 183.21875 C-282.20279658 181.20569368 -280.33903084 179.14553597 -278.5 177 C-275.95308392 174.02859791 -273.28621141 171.2485599 -270.5 168.5 C-267.73439592 165.77170593 -265.08712969 163.01483166 -262.5625 160.0625 C-259.0553056 155.96941697 -255.24274842 152.22775296 -251.41015625 148.44140625 C-248.73145468 145.72797273 -246.25391882 142.89222977 -243.77734375 139.99609375 C-241.05022777 136.93333273 -238.10595363 134.09776507 -235.1875 131.21875 C-233.20279658 129.20569368 -231.33903084 127.14553597 -229.5 125 C-226.95308392 122.02859791 -224.28621141 119.2485599 -221.5 116.5 C-218.73439592 113.77170593 -216.08712969 111.01483166 -213.5625 108.0625 C-210.12563389 104.05149384 -206.40799257 100.37094014 -202.625 96.6875 C-200.66134701 94.67709336 -198.8449659 92.66910725 -197.02734375 90.53515625 C-192.08708425 84.83855732 -186.71412786 79.56495196 -181.37573242 74.24536133 C-179.56639067 72.44137915 -177.76245681 70.63211335 -175.95898438 68.82226562 C-170.14504088 63.00431704 -164.32427798 57.269211 -158 52 C-157.39502686 51.48832275 -156.79005371 50.97664551 -156.16674805 50.44946289 C-130.15472978 28.59030676 -101.02446232 9.18960043 -68 0 C-67.2579834 -0.21027832 -66.5159668 -0.42055664 -65.75146484 -0.63720703 C-44.89326545 -6.30134503 -20.6326057 -6.83563098 0 0 Z " fill="#00CD2C" transform="translate(2305,1165)"/>
</svg>
