<?xml version="1.0" encoding="UTF-8"?>
<svg version="1.1" xmlns="http://www.w3.org/2000/svg" width="3333" height="3333">
<path d="M0 0 C2.30186088 -0.00297054 4.60371723 -0.00708242 6.90557575 -0.01150417 C14.18582718 -0.02514413 21.46606768 -0.03482081 28.74633098 -0.03870606 C36.18657282 -0.04270361 43.6266855 -0.05485242 51.06688404 -0.08106136 C86.93058726 -0.20459455 122.64269997 -0.24813939 158.39539051 3.0117197 C161.51926801 3.29435123 164.64502062 3.55457169 167.77049732 3.81884098 C173.5137082 4.32094091 179.24622077 4.89947972 184.97850513 5.51268864 C185.96139515 5.6152396 186.94428516 5.71779057 187.95695972 5.82344913 C222.62789666 9.44638579 257.25403486 13.80450312 291.36497974 21.07909489 C297.60892961 22.40915547 303.8617351 23.67154278 310.13084888 24.87596989 C329.54771328 28.6238317 348.81573482 32.81272415 368.04100513 37.45018864 C369.10413929 37.70639988 370.16727345 37.96261112 371.26262379 38.22658634 C403.41660643 45.99662838 403.41660643 45.99662838 410.37205982 48.66283512 C414.43020725 50.21662281 418.53623692 51.44832682 422.71678638 52.62596989 C424.33799874 53.09039983 425.95908684 53.55526364 427.58006763 54.02050114 C428.42859303 54.26316715 429.27711842 54.50583317 430.1513567 54.7558527 C446.52165309 59.44951889 462.78353362 64.433783 478.97850513 69.70018864 C479.89660969 69.99696507 480.81471424 70.29374149 481.76064014 70.59951115 C484.38731293 71.45009245 487.01145015 72.30803334 489.63475513 73.16893864 C490.39878147 73.41645374 491.16280781 73.66396885 491.94998646 73.91898441 C496.50178848 75.42730601 500.83636161 77.20963895 505.19975758 79.19484806 C509.05312113 80.89487961 513.00163805 82.32630082 516.95506763 83.77440739 C517.83582462 84.10000141 518.71658161 84.42559544 519.62402821 84.76105595 C521.49121873 85.45123929 523.35884764 86.14023765 525.2268877 86.82811832 C530.05164834 88.60526571 534.87280498 90.39210831 539.69334888 92.18065739 C541.10324841 92.70373981 541.10324841 92.70373981 542.54163074 93.23738956 C552.90691827 97.09090529 563.20944576 101.09712385 573.47850513 105.20018864 C573.47850513 105.86018864 573.47850513 106.52018864 573.47850513 107.20018864 C574.67346607 107.57143864 575.86842701 107.94268864 577.09959888 108.32518864 C583.74737847 110.54500503 590.12621359 113.39090243 596.54100513 116.20018864 C597.1964632 116.4860886 597.85192127 116.77198856 598.52724171 117.06655216 C632.31868379 131.80741433 632.31868379 131.80741433 647.37962818 139.92162418 C657.91839686 145.57310367 668.66850573 150.81774934 679.37987232 156.1320734 C680.54108601 156.70956081 680.54108601 156.70956081 681.72575855 157.29871464 C683.19463222 158.02914191 684.66436081 158.75785321 686.13506031 159.48459721 C689.04153526 160.93062682 691.77313299 162.39660721 694.47850513 164.20018864 C694.47850513 164.86018864 694.47850513 165.52018864 694.47850513 166.20018864 C695.76543262 166.59065372 695.76543262 166.59065372 697.07835865 166.989007 C700.58256301 168.23725557 703.62821712 169.77780404 706.88084888 171.57909489 C707.47548435 171.90697498 708.07011982 172.23485508 708.68277454 172.57267094 C710.59696004 173.63051234 712.50669867 174.69606972 714.41600513 175.76268864 C715.73937343 176.49810616 717.06277853 177.23345746 718.38621998 177.96874332 C731.05596676 185.0242769 743.41225227 192.47565075 755.64525318 200.26097965 C760.41763582 203.29215823 765.21788653 206.27089558 770.04881763 209.20800114 C771.19750457 209.90778086 772.34618619 210.60756929 773.49486256 211.30736637 C775.70730923 212.65471151 777.92399011 213.99403494 780.14378834 215.32933903 C786.63557378 219.28189095 792.74219874 223.53801823 798.77953053 228.15404606 C802.09324678 230.66623565 805.49692471 232.99213562 808.97850513 235.26268864 C809.6081316 235.67913639 810.23775806 236.09558414 810.88646412 236.52465153 C813.78362956 238.43986351 816.69108843 240.33766448 819.60741138 242.22362614 C825.6335267 246.15544572 831.30184025 250.35658719 836.91185474 254.84789371 C841.52510335 258.51570646 846.27308017 261.9497498 851.10350513 265.32518864 C868.96291849 277.81937905 868.96291849 277.81937905 875.72850513 284.01268864 C879.739874 287.6739744 883.99573417 290.90691868 888.35350513 294.13768864 C897.91112311 301.23039483 906.97112699 308.67782544 915.73631763 316.73534489 C919.25789749 319.90075356 922.91355872 322.87607728 926.59178638 325.85643864 C934.83836669 332.55190303 942.78090267 339.327137 950.21678638 346.93065739 C952.83950711 349.56243759 955.58305157 351.99619492 958.40428638 354.41112614 C961.68599278 357.24167515 964.87810168 360.17106563 968.08397388 363.08690739 C969.71031199 364.52222373 971.38119305 365.90828515 973.08788013 367.24706364 C975.2134172 368.98361352 976.82274093 370.6412051 978.54100513 372.76268864 C981.3883858 376.08867158 984.40731891 379.02655043 987.66600513 381.95018864 C993.56138294 387.24205673 999.1860466 392.79041023 1004.79100513 398.38768864 C1006.06270557 399.65274235 1006.06270557 399.65274235 1007.36009693 400.9433527 C1011.69378126 405.2868427 1015.85520791 409.70522773 1019.85423756 414.35765934 C1022.42730735 417.2764866 1025.19692419 419.98195894 1027.97850513 422.70018864 C1032.03976113 426.71601286 1035.97596691 430.76032358 1039.67772388 435.11425114 C1042.03267622 437.8421135 1044.47414919 440.48794496 1046.91600513 443.13768864 C1053.02124887 449.78065709 1059.06840422 456.42070847 1064.72850513 463.45018864 C1068.15322569 467.6838518 1071.74650789 471.67927807 1075.47850513 475.63768864 C1080.11709886 480.57448809 1084.24895293 485.70714972 1088.23241138 491.19628239 C1091.49887867 495.56482733 1095.0465455 499.6717971 1098.60741138 503.80175114 C1100.47850513 506.20018864 1100.47850513 506.20018864 1100.47850513 508.20018864 C1101.13850513 508.20018864 1101.79850513 508.20018864 1102.47850513 508.20018864 C1104.03959027 510.21035306 1105.48586249 512.22427846 1106.91600513 514.32518864 C1110.5253207 519.50747171 1114.24219197 524.56391267 1118.16600513 529.51268864 C1118.63175953 530.10122623 1119.09751392 530.68976383 1119.57738209 531.2961359 C1121.51727996 533.74212407 1123.46428408 536.1823764 1125.41209888 538.62206364 C1129.14892784 543.35135294 1132.61416648 548.23545824 1136.01341724 553.2101984 C1138.4678798 556.78767151 1141.02055515 560.25963123 1143.66600513 563.70018864 C1149.16524278 570.95224809 1154.11020857 578.56736706 1159.12694263 586.15721989 C1161.72920462 590.08967218 1164.38852948 593.96992321 1167.10350513 597.82518864 C1171.31993144 603.86216537 1175.24362389 610.07037471 1179.14305592 616.31591129 C1179.85631031 617.4574567 1179.85631031 617.4574567 1180.58397388 618.62206364 C1181.05238697 619.37294254 1181.52080006 620.12382145 1182.00340748 620.89745426 C1184.040916 624.07815277 1186.1971167 627.17441687 1188.37035084 630.2636652 C1189.47850513 632.20018864 1189.47850513 632.20018864 1189.47850513 635.20018864 C1190.13850513 635.20018864 1190.79850513 635.20018864 1191.47850513 635.20018864 C1193.07909107 637.50414371 1193.07909107 637.50414371 1194.96288013 640.71971989 C1195.30095692 641.29292469 1195.6390337 641.86612949 1195.98735523 642.45670414 C1197.07469453 644.30471514 1198.15146148 646.15866241 1199.22850513 648.01268864 C1199.93880381 649.22074676 1200.64973447 650.42843354 1201.36131763 651.63573551 C1213.47850513 672.25519861 1213.47850513 672.25519861 1213.47850513 675.20018864 C1214.13850513 675.53018864 1214.79850513 675.86018864 1215.47850513 676.20018864 C1221.95872717 686.0598813 1227.02205934 696.93020009 1232.3779192 707.42821598 C1234.94392423 712.43373284 1237.5255509 717.36588343 1240.49413013 722.14550114 C1244.24503326 728.27408698 1247.13956673 734.79105169 1250.10350513 741.32518864 C1251.21852205 743.76629298 1252.33679913 746.20588235 1253.45506763 748.64550114 C1253.97359303 749.7801984 1254.49211842 750.91489567 1255.0263567 752.0839777 C1256.26084912 754.73311375 1257.54344832 757.34223814 1258.87694263 759.94237614 C1260.47850513 763.20018864 1260.47850513 763.20018864 1260.47850513 765.20018864 C1261.13850513 765.53018864 1261.79850513 765.86018864 1262.47850513 766.20018864 C1263.45879239 768.06598041 1264.35758186 769.97485299 1265.21678638 771.89940739 C1265.74739674 773.07938297 1266.27800709 774.25935856 1266.82469654 775.47509098 C1267.09848133 776.09188725 1267.37226612 776.70868351 1267.65434742 777.34417057 C1268.44410186 779.12271184 1269.24308005 780.8971487 1270.04246998 782.67138004 C1271.59285506 786.11444302 1273.13079198 789.56283702 1274.66600513 793.01268864 C1275.18614185 794.17477848 1275.70627857 795.33686832 1276.24217701 796.53417301 C1283.47850513 812.79049635 1283.47850513 812.79049635 1283.47850513 817.20018864 C1284.13850513 817.53018864 1284.79850513 817.86018864 1285.47850513 818.20018864 C1290.47920011 827.01761342 1293.6104947 837.15112127 1297.15453053 846.62548161 C1298.16741248 849.32894495 1299.19080022 852.02827627 1300.21483326 854.72753239 C1300.86977027 856.47078161 1301.52408855 858.21426343 1302.17772388 859.95800114 C1302.47982273 860.75199314 1302.78192158 861.54598515 1303.09317493 862.36403751 C1304.82377415 867.02317081 1306.0845468 871.56268274 1306.96173573 876.45870304 C1307.13226963 877.03339329 1307.30280354 877.60808353 1307.47850513 878.20018864 C1308.13850513 878.53018864 1308.79850513 878.86018864 1309.47850513 879.20018864 C1310.45039423 881.33807235 1311.29151723 883.4345728 1312.09178638 885.63768864 C1312.34914066 886.33579655 1312.60649494 887.03390446 1312.87164783 887.75316715 C1316.85458481 898.77184078 1320.20830921 910.00890382 1323.66600513 921.20018864 C1324.73429185 924.64875243 1325.80396051 928.09687278 1326.87628651 931.54418278 C1327.53774556 933.67148906 1328.19681909 935.79953914 1328.85306263 937.92846012 C1330.36516256 942.79958658 1331.97342165 947.58883898 1333.80237293 952.34923649 C1334.93476144 955.44921744 1335.79134985 958.62393738 1336.64256763 961.80956364 C1336.83603779 962.52233463 1337.02950794 963.23510563 1337.22884083 963.96947575 C1337.85824623 966.29518903 1338.48127691 968.62254569 1339.10350513 970.95018864 C1339.42665699 972.15173588 1339.42665699 972.15173588 1339.75633717 973.3775568 C1343.11554935 985.87202169 1346.34441025 998.39745331 1349.47850513 1010.95018864 C1349.66777576 1011.70795597 1349.85704639 1012.4657233 1350.0520525 1013.24645329 C1353.30682726 1026.30472786 1353.30682726 1026.30472786 1354.60350513 1032.34081364 C1355.36726809 1036.04124606 1355.36726809 1036.04124606 1356.41551685 1038.89721012 C1357.6909303 1042.86024837 1358.53773844 1046.83021594 1359.36131763 1050.90721989 C1359.62424862 1052.19277271 1359.62424862 1052.19277271 1359.89249134 1053.5042963 C1360.46885569 1056.33924901 1361.03729964 1059.1756902 1361.60350513 1062.01268864 C1361.89830265 1063.48489368 1361.89830265 1063.48489368 1362.19905567 1064.98684025 C1369.03746882 1099.29146962 1374.84712967 1133.93318343 1378.76024342 1168.70360661 C1378.88009514 1172.25365749 1378.88009514 1172.25365749 1380.47850513 1175.20018864 C1380.84209836 1178.07150573 1381.1478805 1180.92886035 1381.41600513 1183.80956364 C1381.50100269 1184.68735477 1381.58600025 1185.56514591 1381.67357349 1186.46953678 C1381.85379131 1188.33902771 1382.03186542 1190.2087263 1382.20799732 1192.07860661 C1382.47348666 1194.89691489 1382.74487876 1197.71460007 1383.01756763 1200.53221989 C1385.6347282 1227.73410502 1385.6347282 1227.73410502 1385.54100513 1237.01268864 C1385.5319817 1238.19475895 1385.52295826 1239.37682926 1385.51366138 1240.59471989 C1385.50205982 1241.45452457 1385.49045826 1242.31432926 1385.47850513 1243.20018864 C1386.13850513 1243.20018864 1386.79850513 1243.20018864 1387.47850513 1243.20018864 C1387.47850513 1302.27018864 1387.47850513 1361.34018864 1387.47850513 1422.20018864 C1386.81850513 1422.20018864 1386.15850513 1422.20018864 1385.47850513 1422.20018864 C1385.51113453 1423.32131046 1385.51113453 1423.32131046 1385.5444231 1424.46508121 C1385.70737076 1435.0077949 1384.8443427 1445.38788389 1383.87938404 1455.87816715 C1383.60313627 1458.89171256 1383.33899382 1461.90614984 1383.07616138 1464.92089176 C1382.90109752 1466.87212813 1382.72534002 1468.82330242 1382.54881763 1470.77440739 C1382.47164509 1471.65803455 1382.39447254 1472.54166172 1382.31496143 1473.45206547 C1381.80931429 1478.86023469 1380.98333888 1484.13371259 1379.97060108 1489.46906376 C1379.17977027 1493.85816252 1378.65420211 1498.27480211 1378.11131763 1502.70018864 C1376.43469234 1515.90535495 1374.42890841 1529.0524971 1372.35350513 1542.20018864 C1372.06586796 1544.02924747 1372.06586796 1544.02924747 1371.77241993 1545.895257 C1367.42290587 1573.44598471 1362.63440694 1600.98764841 1356.47850513 1628.20018864 C1355.81850513 1628.20018864 1355.15850513 1628.20018864 1354.47850513 1628.20018864 C1354.40829151 1629.11869854 1354.40829151 1629.11869854 1354.33665943 1630.0557642 C1353.81339753 1636.09177344 1352.79549859 1641.77928105 1351.29100513 1647.64159489 C1351.07255436 1648.51538288 1350.85410358 1649.38917088 1350.62903309 1650.28943729 C1349.91982092 1653.11584284 1349.19979575 1655.93934339 1348.47850513 1658.76268864 C1347.98150614 1660.7260238 1347.48468171 1662.68940316 1346.98802662 1664.65282536 C1343.921911 1676.73203755 1340.78521707 1688.79257545 1337.54100513 1700.82518864 C1337.27283985 1701.829464 1337.27283985 1701.829464 1336.99925709 1702.85402775 C1336.48992577 1704.75507677 1335.97071443 1706.65347022 1335.45116138 1708.55175114 C1335.16507008 1709.60185368 1334.87897877 1710.65195621 1334.58421803 1711.73388004 C1333.68614918 1714.54924358 1332.68879479 1717.21383382 1331.57371998 1719.94506168 C1329.43722864 1725.19626093 1327.67979564 1730.52395612 1325.98241138 1735.93065739 C1325.50927761 1737.42089169 1325.50927761 1737.42089169 1325.02658558 1738.94123173 C1324.02786983 1742.08894784 1323.03418491 1745.23822191 1322.04100513 1748.38768864 C1320.7314406 1752.52752988 1319.41980071 1756.66671086 1318.10741138 1760.80565739 C1317.63750278 1762.28919209 1317.63750278 1762.28919209 1317.15810108 1763.80269718 C1314.67406721 1771.62793237 1312.11246721 1779.42413606 1309.47850513 1787.20018864 C1308.81850513 1787.20018864 1308.15850513 1787.20018864 1307.47850513 1787.20018864 C1307.29082569 1788.51152775 1307.29082569 1788.51152775 1307.09935474 1789.84935856 C1306.51067287 1793.02657396 1305.66989828 1795.79063398 1304.54491138 1798.81346989 C1303.94972706 1800.42040714 1303.94972706 1800.42040714 1303.34251881 1802.05980778 C1302.69826954 1803.7689838 1302.69826954 1803.7689838 1302.04100513 1805.51268864 C1301.59797047 1806.69661198 1301.1549358 1807.88053532 1300.69847584 1809.10033512 C1297.59415643 1817.3498627 1294.4165226 1825.56969701 1291.16600513 1833.76268864 C1290.77034351 1834.76533756 1290.37468189 1835.76798649 1289.96703053 1836.80101871 C1287.78785748 1842.23455755 1285.38596825 1847.45869089 1282.72191334 1852.66967106 C1280.49274762 1857.20634938 1278.63364213 1861.89556166 1276.72850513 1866.57518864 C1270.50925934 1881.63873185 1264.08570696 1896.46850343 1256.35838795 1910.8261652 C1252.44700355 1918.13165115 1248.89362421 1925.59242346 1245.40868092 1933.10961246 C1242.84308028 1938.58227858 1240.02113289 1943.75258453 1236.85789967 1948.90209293 C1234.96923318 1952.04864472 1233.38659518 1955.26926948 1231.79100513 1958.57518864 C1224.57979122 1973.24427417 1216.46780871 1987.41005303 1208.06956959 2001.42723942 C1204.37793437 2007.60189375 1200.88936148 2013.8665593 1197.47850513 2020.20018864 C1193.943392 2026.73790104 1193.943392 2026.73790104 1191.99388599 2028.676507 C1189.40914084 2031.27541057 1187.83572947 2034.59300843 1186.04100513 2037.76268864 C1181.02669178 2046.45968224 1175.54228521 2054.78773704 1169.90599537 2063.09081364 C1168.46867265 2065.21471791 1167.04397866 2067.34654547 1165.62303638 2069.48143864 C1146.57938012 2098.07462961 1146.57938012 2098.07462961 1137.08177662 2110.22728825 C1133.38410792 2114.96754793 1129.90028207 2119.82030878 1126.47850513 2124.76268864 C1121.94843194 2131.28785622 1117.11699068 2137.47885315 1112.05492115 2143.598382 C1109.03529115 2147.25535287 1106.15363309 2150.94829936 1103.41600513 2154.82518864 C1099.92087545 2159.73746124 1096.07194162 2164.25216916 1092.11546803 2168.79174137 C1088.55670014 2172.89139281 1085.16962066 2177.09013512 1081.85350513 2181.38768864 C1077.75851786 2186.682262 1073.42616183 2191.65534613 1068.86913013 2196.56346989 C1066.5112915 2199.16402721 1064.29991382 2201.83757853 1062.10350513 2204.57518864 C1057.30028711 2210.52405053 1052.12202426 2216.07878398 1046.90672779 2221.66307926 C1041.54257287 2227.43619369 1036.31637346 2233.33590253 1031.18163013 2239.31346989 C1027.57003901 2243.31438391 1023.64486528 2247.03112694 1019.82252979 2250.83051395 C1017.38745214 2253.25206412 1014.95515551 2255.67640019 1012.52293873 2258.1008234 C1011.24779897 2259.37093526 1009.97176302 2260.64014803 1008.69481373 2261.90844059 C999.55032525 2270.97959574 999.55032525 2270.97959574 990.93358326 2280.54711246 C988.52882862 2283.27909127 985.86806724 2285.70499878 983.16600513 2288.13768864 C982.60913013 2288.64638493 982.05225513 2289.15508121 981.47850513 2289.67919254 C978.86730709 2292.05959533 976.23604725 2294.41508704 973.59178638 2296.75878239 C968.54968766 2301.21894058 968.54968766 2301.21894058 964.04100513 2306.20018864 C961.70167061 2308.93892174 959.46935839 2310.90415645 956.66600513 2313.13768864 C951.77125358 2317.04559512 947.20558233 2321.19894752 942.66600513 2325.51268864 C933.43334478 2334.26409301 923.94530393 2342.6394103 913.82616138 2350.35643864 C908.00206755 2354.93043579 902.38819564 2359.79269163 896.80589771 2364.65795231 C892.47448624 2368.41945738 887.99299594 2371.93090339 883.41600513 2375.38768864 C878.02100374 2379.48404533 872.66052117 2383.61554525 867.35350513 2387.82518864 C856.73920098 2396.21127606 845.7405421 2404.04857843 834.65697193 2411.79857731 C830.48913929 2414.72838376 826.4578074 2417.76567999 822.47850513 2420.95018864 C814.2934072 2427.34511977 805.44052551 2432.73627565 796.66209888 2438.27050114 C786.06016035 2444.82676223 786.06016035 2444.82676223 776.03099537 2452.19579411 C773.1813207 2454.43355872 770.23898123 2456.21298992 767.10350513 2458.02831364 C766.49772633 2458.38101322 765.89194752 2458.73371281 765.26781178 2459.09710026 C763.3402398 2460.21863154 761.40959978 2461.33473567 759.47850513 2462.45018864 C756.95635474 2463.91147044 754.4358281 2465.37552269 751.91600513 2466.84081364 C751.29846363 2467.19889103 750.68092213 2467.55696842 750.04466724 2467.92589664 C744.61822418 2471.08569218 739.29530879 2474.39889752 733.99022388 2477.75780582 C731.47850513 2479.20018864 731.47850513 2479.20018864 729.47850513 2479.20018864 C729.47850513 2479.86018864 729.47850513 2480.52018864 729.47850513 2481.20018864 C728.80609791 2481.5614484 728.13369068 2481.92270817 727.44090748 2482.2949152 C715.44259299 2488.74316909 703.44745535 2495.1975545 691.47850513 2501.70018864 C690.18372242 2502.40063297 690.18372242 2502.40063297 688.86278248 2503.1152277 C684.714971 2505.37356133 680.63259202 2507.69667868 676.60350513 2510.16112614 C671.04422299 2513.52310634 665.29673958 2516.44053273 659.47850513 2519.32518864 C658.3665276 2519.87996891 657.25455006 2520.43474918 656.10887623 2521.00634098 C646.74608737 2525.64506388 637.2867034 2530.04653726 627.75584888 2534.32958317 C626.21477467 2535.02736881 626.21477467 2535.02736881 624.64256763 2535.73925114 C623.73974049 2536.14353336 622.83691334 2536.54781559 621.90672779 2536.96434879 C619.49394992 2538.0920099 619.49394992 2538.0920099 617.67870045 2539.6230402 C614.41039581 2541.96583291 610.80990588 2543.34995816 607.11131763 2544.89550114 C605.87575878 2545.41937664 605.87575878 2545.41937664 604.61523914 2545.95383549 C601.94701732 2547.08329567 599.27545372 2548.20457653 596.60350513 2549.32518864 C594.7789232 2550.09435618 592.95446041 2550.86380641 591.13011646 2551.63353825 C586.70274152 2553.49931119 582.27219552 2555.35739612 577.84001637 2557.21172428 C575.72284921 2558.09791285 573.60656857 2558.9861693 571.49071217 2559.87548161 C568.38540199 2561.17841818 565.27703027 2562.47346935 562.16600513 2563.76268864 C561.29798267 2564.12572086 560.42996021 2564.48875309 559.53563404 2564.86278629 C553.83208886 2567.20018864 553.83208886 2567.20018864 550.47850513 2567.20018864 C550.47850513 2567.86018864 550.47850513 2568.52018864 550.47850513 2569.20018864 C527.12224744 2577.91813888 503.70088 2586.44670748 480.11034107 2594.51317692 C476.00305293 2595.92712355 471.96260778 2597.40096447 467.95897388 2599.08690739 C460.30592661 2602.18208688 452.33546701 2604.33998492 444.41600513 2606.63768864 C443.54621021 2606.89186558 442.67641529 2607.14604252 441.78026295 2607.40792179 C424.14128351 2612.55627898 406.39525705 2617.28896945 388.61497974 2621.92260075 C387.6060416 2622.18640537 386.59710346 2622.45021 385.55759144 2622.72200871 C383.67972474 2623.21243767 381.80116686 2623.70023184 379.9217577 2624.18471622 C375.85536115 2625.24624056 371.85596039 2626.38020414 367.88060474 2627.74608707 C363.60136539 2629.20506139 359.30895923 2630.24742649 354.88866138 2631.18065739 C354.08449787 2631.35434849 353.28033436 2631.52803959 352.45180225 2631.70699406 C349.81619465 2632.27365111 347.1788567 2632.83157634 344.54100513 2633.38768864 C343.6191341 2633.5830521 342.69726307 2633.77841557 341.74745655 2633.97969913 C334.99563415 2635.40849902 328.23886277 2636.81236255 321.47850513 2638.20018864 C320.60294971 2638.37997257 319.72739429 2638.55975651 318.82530689 2638.74498844 C294.42760648 2643.73508405 269.93762651 2647.80865479 245.29759693 2651.41137028 C244.24259998 2651.56564991 243.18760303 2651.71992954 242.10063648 2651.87888432 C239.99856832 2652.18604894 237.89639576 2652.49250001 235.79411793 2652.79822636 C229.58953549 2653.70989673 223.40672658 2654.7096911 217.22723866 2655.77779484 C205.39925508 2657.82050139 193.6204183 2659.27694089 181.66600513 2660.32518864 C179.83979514 2660.4911108 178.01362376 2660.65745842 176.18748951 2660.82421207 C170.95244354 2661.29814534 165.71578052 2661.75167099 160.47850513 2662.20018864 C159.06395394 2662.32290524 157.64940313 2662.44562627 156.23485279 2662.5683527 C142.62548303 2663.73065706 129.13926088 2664.52161818 115.47850513 2664.20018864 C115.47850513 2664.86018864 115.47850513 2665.52018864 115.47850513 2666.20018864 C67.62850513 2666.20018864 19.77850513 2666.20018864 -29.52149487 2666.20018864 C-29.52149487 2665.54018864 -29.52149487 2664.88018864 -29.52149487 2664.20018864 C-30.47024487 2664.22049137 -31.41899487 2664.24079411 -32.39649487 2664.26171207 C-45.17072074 2664.44471587 -57.79825002 2663.50980785 -70.52149487 2662.45018864 C-71.61334087 2662.36126347 -72.70518688 2662.27233829 -73.83011913 2662.18071842 C-115.75760554 2658.75564429 -115.75760554 2658.75564429 -134.75733471 2655.24388981 C-140.25045073 2654.23232239 -145.75728869 2653.38133329 -151.28321362 2652.57128239 C-188.93443441 2646.96460629 -226.32119116 2640.41736827 -263.52149487 2632.32518864 C-264.82067348 2632.04434925 -264.82067348 2632.04434925 -266.14609814 2631.75783634 C-268.5854329 2631.22778335 -271.02253109 2630.68858157 -273.45899487 2630.14550114 C-274.16196194 2629.99271198 -274.86492901 2629.83992283 -275.58919811 2629.6825037 C-279.72128826 2628.74582011 -283.56540065 2627.47141751 -287.51145458 2625.93615055 C-290.88764666 2624.6999819 -294.3515881 2623.85811807 -297.83790112 2622.99315739 C-299.48312473 2622.57469421 -301.12821962 2622.15572469 -302.77320385 2621.73632145 C-304.06881741 2621.40791264 -304.06881741 2621.40791264 -305.39060497 2621.0728693 C-322.51820987 2616.71571933 -339.51849146 2611.98429589 -356.45899487 2606.95018864 C-357.91295162 2606.52158039 -357.91295162 2606.52158039 -359.39628124 2606.08431339 C-370.60452413 2602.77347742 -381.6266321 2599.17473294 -392.56226635 2595.0527277 C-398.09508483 2592.97048494 -403.66740886 2591.00491342 -409.24415112 2589.04393864 C-410.25207211 2588.68874149 -411.2599931 2588.33354435 -412.29845715 2587.96758366 C-416.43130302 2586.51167404 -420.56486205 2585.05781553 -424.69947338 2583.60692692 C-435.04110448 2579.97568826 -445.37128942 2576.33001166 -455.59180737 2572.36815739 C-456.6558353 2571.95654362 -456.6558353 2571.95654362 -457.74135876 2571.53661442 C-462.02508164 2569.85460785 -466.18401915 2568.00228804 -470.33399487 2566.01268864 C-477.61517941 2562.52459849 -485.05390478 2559.45283829 -492.52149487 2556.38768864 C-527.73395699 2541.9018528 -527.73395699 2541.9018528 -542.18018627 2534.09032536 C-548.69612917 2530.57943334 -555.33413637 2527.37061895 -562.02149487 2524.20018864 C-578.24154645 2516.48614705 -593.99204184 2507.99156606 -609.73633862 2499.35643864 C-613.77779848 2497.14353955 -617.83388918 2494.96044719 -621.90040112 2492.79393864 C-622.96363598 2492.22522038 -624.02687084 2491.65650211 -625.12232494 2491.07054996 C-627.1545926 2489.98454167 -629.18941397 2488.9032924 -631.22730541 2487.82787418 C-636.80862297 2484.8374544 -641.97772177 2481.56945388 -647.11866283 2477.87621403 C-650.84339819 2475.27813353 -654.75684263 2473.05540906 -658.70899487 2470.82518864 C-660.37736782 2469.8688622 -662.04533212 2468.91182251 -663.71290112 2467.95409489 C-664.52774975 2467.48761539 -665.34259838 2467.0211359 -666.1821394 2466.54052067 C-675.83088788 2461.01227717 -685.07583897 2455.20722429 -694.11133862 2448.71654606 C-699.48482168 2444.87511629 -704.98727082 2441.32349073 -710.61378002 2437.8664484 C-717.70973726 2433.49936527 -724.61461334 2428.85852637 -731.52149487 2424.20018864 C-732.51149487 2423.54018864 -733.50149487 2422.88018864 -734.52149487 2422.20018864 C-734.52149487 2421.54018864 -734.52149487 2420.88018864 -734.52149487 2420.20018864 C-735.03454174 2419.96944645 -735.54758862 2419.73870426 -736.07618237 2419.50096989 C-739.43792667 2417.71269377 -742.52232938 2415.55453473 -745.64649487 2413.38768864 C-746.69015209 2412.66561222 -746.69015209 2412.66561222 -747.7548933 2411.9289484 C-759.39837622 2403.8408954 -770.94257091 2395.73345254 -781.73633862 2386.52831364 C-786.50509547 2382.54208771 -791.53180929 2378.90282698 -796.52149487 2375.20018864 C-803.66662835 2369.85899271 -810.56516139 2364.38591653 -817.13868237 2358.34081364 C-820.25621145 2355.54014816 -823.52547215 2352.96309396 -826.81446362 2350.36815739 C-832.14821393 2346.09653917 -837.32839376 2341.64086113 -842.52149487 2337.20018864 C-843.56756908 2336.30880192 -843.56756908 2336.30880192 -844.63477612 2335.39940739 C-848.34293203 2332.19943558 -851.9330011 2328.88644345 -855.50635815 2325.53783512 C-856.10947826 2324.97266178 -856.71259838 2324.40748844 -857.33399487 2323.82518864 C-857.93582592 2323.26065983 -858.53765697 2322.69613102 -859.15772533 2322.11449528 C-862.8568629 2318.67035066 -866.6347056 2315.41678317 -870.58399487 2312.26268864 C-873.3946674 2310.01333117 -875.97096281 2307.89866617 -878.20899487 2305.07518864 C-880.56935359 2302.1406886 -883.05204009 2299.92034114 -885.90503979 2297.48729801 C-897.32632375 2287.50366564 -908.08856284 2276.79423001 -918.79493237 2266.05712223 C-921.04378281 2263.80284693 -923.29801935 2261.55405487 -925.55274487 2259.30565739 C-927.01139938 2257.84634294 -928.46974413 2256.38671878 -929.92774487 2254.92675114 C-930.58826855 2254.26825169 -931.24879223 2253.60975224 -931.92933178 2252.93129826 C-936.32445326 2248.51424741 -940.45531395 2243.91997425 -944.52149487 2239.20018864 C-946.03809154 2237.50888003 -947.55826767 2235.82076523 -949.08399487 2234.13768864 C-952.13148165 2230.76423977 -955.1276586 2227.36130687 -958.03711987 2223.86815739 C-959.24378055 2222.51225183 -960.51831259 2221.21697934 -961.81055737 2219.94237614 C-964.918218 2216.79889233 -967.77756566 2213.49750911 -970.64649487 2210.13768864 C-974.74623077 2205.36155748 -978.90619335 2200.66881405 -983.20899487 2196.07518864 C-987.32543858 2191.62562231 -991.05439875 2187.02924482 -994.68677807 2182.18920231 C-997.76709906 2178.10848681 -1001.03087694 2174.2351179 -1004.39649487 2170.38768864 C-1009.28864151 2164.77810066 -1013.7978637 2158.95429621 -1018.21876049 2152.96849918 C-1021.86590837 2148.03798404 -1025.66796093 2143.28741656 -1029.58008862 2138.56346989 C-1034.55682872 2132.50526513 -1039.03145921 2126.08577454 -1043.56153393 2119.69188786 C-1046.51198159 2115.55046412 -1049.57421144 2111.51571353 -1052.70899487 2107.51268864 C-1056.34957654 2102.84950305 -1059.60636723 2098.05167389 -1062.71680737 2093.02050114 C-1064.66872028 2089.97010909 -1066.76177955 2087.06303925 -1068.89649487 2084.13768864 C-1073.94546698 2077.1904243 -1078.64288416 2070.01605685 -1083.33399487 2062.82518864 C-1083.88624737 2061.97934711 -1083.88624737 2061.97934711 -1084.44965649 2061.11641788 C-1086.81857094 2057.48512574 -1089.17343582 2053.84499265 -1091.52149487 2050.20018864 C-1092.32466137 2048.96413883 -1092.32466137 2048.96413883 -1093.14405346 2047.70311832 C-1096.52149487 2042.43454716 -1096.52149487 2042.43454716 -1096.52149487 2040.20018864 C-1097.18149487 2040.20018864 -1097.84149487 2040.20018864 -1098.52149487 2040.20018864 C-1099.76734447 2038.48217106 -1099.76734447 2038.48217106 -1101.17383862 2036.05565739 C-1101.69824535 2035.15943668 -1102.22265209 2034.26321598 -1102.76294994 2033.33983707 C-1103.32264477 2032.36562809 -1103.88233959 2031.39141911 -1104.45899487 2030.38768864 C-1105.31883984 2028.90897282 -1105.31883984 2028.90897282 -1106.19605541 2027.40038395 C-1107.3860279 2025.35218092 -1108.57291274 2023.30218119 -1109.75684643 2021.25048161 C-1111.43358752 2018.35214137 -1113.12650642 2015.46403067 -1114.82618237 2012.57909489 C-1115.82908174 2010.86963263 -1116.83169998 2009.16000539 -1117.83399487 2007.45018864 C-1118.30764477 2006.6473444 -1118.78129467 2005.84450016 -1119.2692976 2005.01732731 C-1119.69928051 2004.2784528 -1120.12926342 2003.53957829 -1120.57227612 2002.77831364 C-1120.95037426 2002.13281559 -1121.3284724 2001.48731754 -1121.71802807 2000.82225895 C-1122.52149487 1999.20018864 -1122.52149487 1999.20018864 -1122.52149487 1997.20018864 C-1123.18149487 1997.20018864 -1123.84149487 1997.20018864 -1124.52149487 1997.20018864 C-1124.96465038 1996.33575138 -1124.96465038 1996.33575138 -1125.41675854 1995.45385075 C-1131.12249261 1984.35213183 -1136.9385665 1973.34279437 -1143.14649487 1962.51268864 C-1148.58864602 1952.99901414 -1153.59967662 1943.33249141 -1158.40577221 1933.48436832 C-1160.13534022 1929.94348467 -1161.88829953 1926.41442671 -1163.64649487 1922.88768864 C-1163.96988842 1922.23638981 -1164.29328197 1921.58509098 -1164.62647533 1920.91405582 C-1166.19055088 1917.78275294 -1167.78937816 1914.68008408 -1169.47852612 1911.61425114 C-1174.81877554 1901.92078134 -1179.18738194 1891.93944229 -1183.45753002 1881.73339176 C-1185.03370843 1877.98065491 -1186.64617249 1874.24435626 -1188.27149487 1870.51268864 C-1189.03719799 1868.74345036 -1189.03719799 1868.74345036 -1189.81836987 1866.93846989 C-1191.06840994 1864.12241603 -1192.44209165 1861.38947175 -1193.85132885 1858.64989567 C-1196.53221633 1853.30119806 -1198.7781046 1847.8390741 -1200.94727612 1842.26659489 C-1201.33973019 1841.26684132 -1201.73218426 1840.26708775 -1202.13653088 1839.23703861 C-1202.95638721 1837.14469191 -1203.77389245 1835.05142253 -1204.58912182 1832.95726871 C-1205.84115772 1829.74430739 -1207.10371318 1826.53561559 -1208.36719799 1823.32714176 C-1209.16535458 1821.28637264 -1209.96290276 1819.24536543 -1210.75977612 1817.20409489 C-1211.13781887 1816.24475544 -1211.51586163 1815.28541599 -1211.90536022 1814.29700565 C-1212.42171284 1812.96432903 -1212.42171284 1812.96432903 -1212.94849682 1811.60472965 C-1213.25318386 1810.82436848 -1213.5578709 1810.0440073 -1213.87179089 1809.23999882 C-1214.52149487 1807.20018864 -1214.52149487 1807.20018864 -1214.52149487 1804.20018864 C-1215.18149487 1804.20018864 -1215.84149487 1804.20018864 -1216.52149487 1804.20018864 C-1219.11923453 1796.63093179 -1221.71020811 1789.05940675 -1224.29271126 1781.48493958 C-1225.4922377 1777.96742059 -1226.69402946 1774.45071085 -1227.90113354 1770.93578434 C-1229.06720612 1767.54005818 -1230.22715087 1764.14229443 -1231.38297749 1760.74306774 C-1231.82374626 1759.45025012 -1232.26667248 1758.15816586 -1232.71184635 1756.86685848 C-1233.33771433 1755.05018957 -1233.95502549 1753.23057968 -1234.57203197 1751.410882 C-1234.92510921 1750.37829762 -1235.27818645 1749.34571323 -1235.64196301 1748.28183842 C-1236.59764275 1744.93338635 -1237.10184262 1741.65346791 -1237.52149487 1738.20018864 C-1238.18149487 1738.20018864 -1238.84149487 1738.20018864 -1239.52149487 1738.20018864 C-1244.58364418 1721.63232831 -1249.28149578 1704.97697313 -1253.83399487 1688.26268864 C-1254.09402294 1687.30938663 -1254.35405102 1686.35608463 -1254.62195873 1685.37389469 C-1259.78928381 1666.41127127 -1259.78928381 1666.41127127 -1261.77222729 1657.96361637 C-1262.41180974 1655.60472625 -1263.15287486 1653.34604163 -1263.95362377 1651.03929996 C-1265.67326438 1645.94273574 -1266.83163375 1640.78703578 -1267.93946362 1635.52831364 C-1268.15795467 1634.5078545 -1268.37644573 1633.48739536 -1268.60155773 1632.43601322 C-1269.31073636 1629.10878494 -1270.01067825 1625.77971246 -1270.70899487 1622.45018864 C-1270.94938488 1621.31167454 -1271.18977489 1620.17316044 -1271.43744946 1619.00014591 C-1276.79910035 1593.55731809 -1281.9039012 1567.95883291 -1285.52149487 1542.20018864 C-1285.94677811 1539.89150818 -1286.42572931 1537.60522743 -1286.96586132 1535.32074833 C-1288.27543436 1529.69695503 -1289.17110339 1524.0950345 -1289.88868237 1518.36815739 C-1290.0680685 1516.968447 -1290.0680685 1516.968447 -1290.25107861 1515.54045963 C-1290.63895684 1512.49026488 -1291.01874175 1509.43915308 -1291.39649487 1506.38768864 C-1291.5934193 1504.8075951 -1291.5934193 1504.8075951 -1291.79432201 1503.19558048 C-1293.69567688 1487.86449947 -1295.37628895 1472.52308072 -1296.77149487 1457.13768864 C-1296.84817394 1456.30192295 -1296.92485302 1455.46615726 -1297.00385571 1454.60506535 C-1297.56065633 1448.4738158 -1298.05049263 1442.33856988 -1298.52149487 1436.20018864 C-1298.60442602 1435.12342271 -1298.68735718 1434.04665678 -1298.7728014 1432.93726158 C-1300.23629518 1413.47241173 -1300.84884941 1394.10626932 -1300.85600901 1374.5884943 C-1300.85746511 1372.33706085 -1300.86179698 1370.08564959 -1300.86700344 1367.83422184 C-1300.88534651 1359.86684031 -1300.89369632 1351.89952417 -1300.89210033 1343.93212223 C-1300.89104182 1337.48703294 -1300.90501817 1331.04218836 -1300.93311596 1324.59716129 C-1301.19813846 1262.38944182 -1297.5686513 1200.97828812 -1288.83399487 1139.32518864 C-1288.7314439 1138.59876163 -1288.62889294 1137.87233463 -1288.52323437 1137.12389469 C-1288.23302169 1135.08850908 -1287.93569678 1133.05432858 -1287.63477612 1131.02050114 C-1287.46760082 1129.88886539 -1287.30042553 1128.75722965 -1287.12818432 1127.59130192 C-1286.56533241 1124.4452202 -1285.82271703 1121.38564239 -1285.02605724 1118.29195499 C-1284.14701643 1114.64771181 -1283.5489636 1110.95806583 -1282.92774487 1107.26268864 C-1282.62182922 1105.48518069 -1282.31540914 1103.7077595 -1282.00855541 1101.93041325 C-1281.84817791 1100.99760532 -1281.68780041 1100.0647974 -1281.52256298 1099.10372257 C-1278.40629933 1081.04594365 -1274.96424419 1063.07339504 -1271.20899487 1045.13768864 C-1270.99662182 1044.11989323 -1270.78424877 1043.10209782 -1270.56544018 1042.05346012 C-1264.94761702 1015.19460407 -1264.94761702 1015.19460407 -1262.11915112 1007.04003239 C-1259.87733983 1000.55287272 -1258.30059452 993.86497866 -1256.592906 987.22222233 C-1253.02121559 973.36429741 -1249.28774434 959.56099277 -1245.27149487 945.82518864 C-1245.07538616 945.14682957 -1244.87927746 944.4684705 -1244.67722607 943.76955509 C-1242.37609064 935.82888771 -1239.79427941 928.07024058 -1236.83515453 920.35035038 C-1233.80351207 912.40854574 -1231.17363391 904.3373815 -1228.52149487 896.26268864 C-1225.53168767 887.18134393 -1222.52805648 878.10491644 -1219.39649487 869.07128239 C-1219.16704174 868.39726887 -1218.93758862 867.72325535 -1218.70118237 867.02881718 C-1217.25499372 862.89821146 -1215.49594495 859.06902627 -1213.49650097 855.17859745 C-1211.95400613 852.04868332 -1210.74495535 848.81307454 -1209.53321362 845.54393864 C-1209.26692654 844.83853947 -1209.00063946 844.1331403 -1208.72628307 843.40636539 C-1207.60589483 840.43797587 -1206.49534464 837.46593489 -1205.38404369 834.49413395 C-1200.28791921 820.89437234 -1194.65691558 807.6346824 -1188.44581127 794.50267887 C-1186.51114914 790.40199887 -1184.66792094 786.26736368 -1182.85743237 782.11034489 C-1175.88026615 766.16172473 -1168.29663901 750.63251703 -1160.23340893 735.20360661 C-1155.41506579 725.97374317 -1150.83204073 716.67852084 -1146.52149487 707.20018864 C-1145.86149487 707.20018864 -1145.20149487 707.20018864 -1144.52149487 707.20018864 C-1144.30622143 706.42417301 -1144.09094799 705.64815739 -1143.86915112 704.84862614 C-1142.03958566 699.89554168 -1139.52047892 695.43356228 -1136.95899487 690.82518864 C-1136.41742748 689.84348698 -1135.8758601 688.86178532 -1135.31788158 687.85033512 C-1134.2249376 685.87201928 -1133.12959551 683.89502623 -1132.03174877 681.91942692 C-1130.7544324 679.6195967 -1129.48550825 677.31550788 -1128.22071362 675.00878239 C-1123.24841194 665.99626822 -1117.92713244 657.20797999 -1112.54688549 648.43383121 C-1109.5074589 643.47653308 -1106.51722315 638.50688433 -1103.64649487 633.45018864 C-1100.90560213 628.69150301 -1097.77743385 624.32603988 -1094.50196362 619.92284489 C-1090.21363638 614.02745221 -1086.37946044 607.85190106 -1082.89649487 601.45018864 C-1080.34942291 596.77917395 -1077.35727314 592.58823447 -1074.11915112 588.37596989 C-1071.28430311 584.66886096 -1068.6752308 580.91439235 -1066.20899487 576.95018864 C-1063.02430923 571.87284991 -1059.52722487 567.11786552 -1055.89649487 562.35253239 C-1053.43978423 559.0917339 -1051.06685475 555.78251806 -1048.70899487 552.45018864 C-1040.93350905 541.50159607 -1032.91669978 530.77227456 -1024.33399487 520.44237614 C-1022.4102692 518.13267841 -1022.4102692 518.13267841 -1020.52149487 515.20018864 C-1015.2152705 507.24085209 -1008.60143344 500.10293798 -1002.39820385 492.82909489 C-999.9985733 490.00034103 -997.68860451 487.1479101 -995.52149487 484.13768864 C-992.55670834 480.06753373 -989.12520343 476.44833092 -985.69825268 472.77123356 C-982.04746199 468.83277845 -978.6717755 464.73262325 -975.35352612 460.50878239 C-970.98250135 455.00073199 -966.28276419 449.91038663 -961.27540112 444.98143864 C-958.20086162 441.85896645 -955.36839186 438.52927468 -952.52149487 435.20018864 C-952.01747143 434.61237614 -951.51344799 434.02456364 -950.99415112 433.41893864 C-950.01476941 432.27589368 -949.03560166 431.13266537 -948.05665112 429.98925114 C-946.36178173 428.01405985 -944.66399544 426.04164718 -942.95899487 424.07518864 C-942.15268627 423.14319645 -942.15268627 423.14319645 -941.33008862 422.19237614 C-939.13757188 419.77729291 -936.84130468 417.49371166 -934.52149487 415.20018864 C-931.9981676 412.70269266 -929.47809385 410.20194869 -926.95899487 407.70018864 C-926.2996394 407.04921207 -925.64028393 406.39823551 -924.96094799 405.72753239 C-922.3413844 403.12113243 -919.82495498 400.59112731 -917.55665112 397.66893864 C-915.79217659 395.5285396 -914.11887341 393.92552972 -912.02149487 392.13768864 C-908.44737868 389.07983368 -905.08523587 385.84782242 -901.77149487 382.51268864 C-901.26457104 382.00254215 -900.75764721 381.49239567 -900.23536205 380.9667902 C-898.66217145 379.37979102 -897.09139662 377.79044097 -895.52149487 376.20018864 C-889.04128446 369.6359755 -882.56240375 363.17180062 -875.52149487 357.20018864 C-873.85097025 355.70448636 -872.18368655 354.20514597 -870.52149487 352.70018864 C-867.50834787 349.97729892 -864.47435418 347.28706165 -861.39649487 344.63768864 C-858.66376127 342.26639876 -856.10710392 339.79296934 -853.58399487 337.20018864 C-850.31258465 333.88448467 -846.87610769 331.06312603 -843.15821362 328.26659489 C-839.10756563 325.09208706 -835.25328834 321.69053879 -831.39405346 318.2871027 C-826.94554413 314.41045519 -826.94554413 314.41045519 -824.16602612 313.03221989 C-822.1483489 312.25366351 -822.1483489 312.25366351 -821.52149487 309.20018864 C-819.76863684 307.69053595 -817.94104959 306.26714876 -816.08399487 304.88768864 C-814.90377288 304.00037828 -813.72411817 303.11231305 -812.54493237 302.22362614 C-811.90265697 301.74248356 -811.26038158 301.26134098 -810.5986433 300.76561832 C-806.77456321 297.88362472 -802.99252525 294.94758403 -799.20899487 292.01268864 C-798.46915356 291.44316471 -797.72931225 290.87364079 -796.96705151 290.28685856 C-793.33877638 287.47550307 -789.80653034 284.60676579 -786.37305737 281.55956364 C-783.12612008 278.68532384 -779.77169492 276.11782479 -776.20899487 273.63768864 C-774.9957964 272.78488445 -773.78361522 271.93063184 -772.57227612 271.07518864 C-771.9259724 270.61886051 -771.27966869 270.16253239 -770.61378002 269.69237614 C-766.67627913 266.88420747 -762.78781793 264.00932908 -758.89649487 261.13768864 C-758.14585766 260.58460026 -757.39522045 260.03151188 -756.62183666 259.46166325 C-753.31068627 257.01730241 -750.0051125 254.56840136 -746.73047924 252.07518864 C-739.4289 246.52810342 -731.93015938 241.36382657 -724.27149487 236.32518864 C-721.87436571 234.74120489 -719.47894269 233.15465564 -717.08399487 231.56737614 C-716.50518566 231.18412174 -715.92637646 230.80086735 -715.33002758 230.40599918 C-710.92952441 227.48637822 -706.59258098 224.48531304 -702.27149487 221.45018864 C-693.24438086 215.14549881 -683.7572622 209.57452838 -674.31983471 203.91307926 C-670.40610501 201.51744782 -666.56544517 199.0124417 -662.72974682 196.49413395 C-660.52149487 195.20018864 -660.52149487 195.20018864 -658.52149487 195.20018864 C-658.52149487 194.54018864 -658.52149487 193.88018864 -658.52149487 193.20018864 C-657.4752998 192.62071476 -657.4752998 192.62071476 -656.40796947 192.02953434 C-643.86424147 185.07881277 -631.32673713 178.11726597 -618.83399487 171.07518864 C-617.91030102 170.55609928 -616.98660717 170.03700993 -616.0349226 169.50219059 C-615.16037426 169.00807682 -614.28582592 168.51396305 -613.38477612 168.00487614 C-612.2600288 167.37041569 -612.2600288 167.37041569 -611.11255932 166.72313786 C-609.67072509 165.87567136 -608.23527402 165.0159394 -606.82900524 164.11068058 C-601.2222374 160.50300567 -595.39181339 157.51476896 -589.41602612 154.56737614 C-588.37379391 154.04886082 -587.3315617 153.5303455 -586.2577467 152.99611759 C-582.95172562 151.3519567 -579.64306286 149.71320743 -576.33399487 148.07518864 C-573.01457635 146.42931932 -569.6957615 144.78226077 -566.37810802 143.13283634 C-564.3202267 142.10999223 -562.26127968 141.08928866 -560.20113659 140.07100773 C-558.79894123 139.37480824 -558.79894123 139.37480824 -557.36841869 138.66454411 C-556.55093655 138.25992954 -555.7334544 137.85531498 -554.89120007 137.43843937 C-552.37038331 136.12122776 -549.95418268 134.67268898 -547.52149487 133.20018864 C-545.87350693 132.37844397 -544.21244786 131.58253059 -542.54102612 130.80956364 C-541.55819653 130.35460514 -540.57536694 129.89964664 -539.56275463 129.43090153 C-538.49726391 128.94226627 -537.43177319 128.45363102 -536.33399487 127.95018864 C-534.65551464 127.17759708 -534.65551464 127.17759708 -532.94312572 126.38939762 C-521.76565093 121.26882472 -510.51944536 116.30474131 -499.26099682 111.3652277 C-498.57094555 111.06237354 -497.88089428 110.75951939 -497.16993237 110.44748783 C-495.80846989 109.85023734 -494.44673687 109.25360314 -493.08472729 108.65760136 C-489.46153705 107.06843498 -485.86740606 105.43015789 -482.28711987 103.74706364 C-473.77703709 99.86080044 -464.95574482 96.69381545 -456.20899487 93.38768864 C-454.31708698 92.66942791 -452.42524153 91.95100273 -450.53345776 91.2324152 C-440.05616814 87.25893235 -429.57050618 83.31150994 -419.00269604 79.58373356 C-415.45272588 78.32214231 -412.02390378 76.98619315 -408.61915112 75.37206364 C-401.02836872 71.94243912 -392.95652114 69.68782635 -385.02149487 67.20018864 C-384.13631176 66.92072392 -383.25112865 66.64125919 -382.33912182 66.35332584 C-366.56095532 61.37299366 -350.70964561 56.65644298 -334.81251049 52.07128239 C-333.57452709 51.71364307 -333.57452709 51.71364307 -332.31153393 51.34877872 C-330.78994564 50.90984554 -329.26785839 50.47263591 -327.74512768 50.03768253 C-324.12778798 48.99578427 -320.54881333 47.8865287 -316.98365307 46.67723942 C-312.93288913 45.31215498 -308.86286714 44.15754122 -304.72071362 43.10643864 C-303.98719677 42.91857288 -303.25367992 42.73070713 -302.4979353 42.53714848 C-300.06972464 41.91897445 -297.63971726 41.30840841 -295.20899487 40.70018864 C-294.35923077 40.48697971 -293.50946667 40.27377079 -292.63395214 40.05410099 C-262.56908979 32.54697959 -232.14562381 26.02103492 -201.61793041 20.68138981 C-196.94013608 19.86249536 -192.34351471 18.92496963 -187.73243237 17.78612614 C-177.96077559 15.49469239 -168.01453453 14.22157748 -158.08399487 12.82518864 C-157.01747692 12.67400578 -155.95095898 12.52282291 -154.85212231 12.36705875 C-119.74993678 7.41039919 -84.4984258 3.61783703 -49.11490917 1.37090397 C-47.1824778 1.24369882 -45.25108876 1.10046297 -43.32041454 0.9489069 C-28.89695272 -0.07134638 -14.45185591 0.01777628 0 0 Z M-219.48762035 362.64940739 C-221.61477088 363.22544815 -223.74347425 363.79544091 -225.87256908 364.36425114 C-245.52953626 369.62299173 -264.91025834 375.37294016 -284.14258862 382.03173161 C-287.38953492 383.15455567 -290.64195577 384.25975403 -293.89649487 385.36034489 C-303.28373097 388.55391721 -312.54551075 391.90952133 -321.67847729 395.77391911 C-325.7912237 397.51097355 -329.91784133 399.07121675 -334.14649487 400.51268864 C-343.45694407 403.77187667 -352.41757768 407.85035801 -361.43311596 411.83983707 C-364.46320183 413.17451205 -367.50063186 414.49075092 -370.54102612 415.80175114 C-398.0769233 427.71604537 -424.8650249 441.01932428 -451.03321362 455.69237614 C-454.08786867 457.40480385 -457.15325323 459.09538863 -460.22852612 460.77050114 C-468.00963841 465.02121903 -475.5073045 469.3911719 -482.81836987 474.41503239 C-485.39030284 476.11354881 -487.98205396 477.57981999 -490.70899487 479.01268864 C-502.6734688 485.36504962 -513.81770074 493.34342502 -525.05665112 500.88378239 C-527.18044493 502.30798723 -529.31199517 503.71490854 -531.45508862 505.11034489 C-540.35918451 510.92702889 -548.85132466 517.27958336 -557.38624096 523.62011051 C-560.0411316 525.58471744 -562.7166696 527.51977278 -565.39649487 529.45018864 C-574.07266309 535.74545488 -582.51814023 542.34636522 -590.86133862 549.07518864 C-592.86347787 550.67454804 -594.87491541 552.25590359 -596.90040112 553.82518864 C-603.19516557 558.70904286 -609.28561552 563.67655841 -615.15040112 569.07909489 C-617.59729657 571.26799807 -620.12495482 573.30070012 -622.70899487 575.32518864 C-626.28540888 578.14078166 -629.46942466 581.09217213 -632.62305737 584.36425114 C-634.91047956 586.57636725 -637.34730296 588.52751443 -639.83399487 590.51268864 C-644.52477153 594.28458713 -648.7701198 598.30821528 -652.93946362 602.64550114 C-654.98047229 604.6648955 -657.03706441 606.5304059 -659.21192455 608.39721012 C-663.32212241 611.98018006 -667.20828341 615.74192996 -671.05665112 619.60253239 C-671.73900326 620.2839278 -672.4213554 620.96532322 -673.12438488 621.66736698 C-674.55493923 623.09724605 -675.98425254 624.52836775 -677.41236401 625.96068668 C-679.5784856 628.13216575 -681.74989661 630.29825189 -683.92188549 632.46386051 C-685.32129474 633.86393066 -686.7203937 635.26431102 -688.11915112 636.66503239 C-689.07725437 637.6200993 -689.07725437 637.6200993 -690.05471325 638.59446049 C-693.85573504 642.41498605 -697.46284064 646.3539773 -700.98644543 650.43155766 C-702.71255152 652.42031752 -704.49548873 654.34288979 -706.31836987 656.24315739 C-706.96137035 656.91765934 -707.60437084 657.59216129 -708.26685619 658.2871027 C-708.92838696 658.98029606 -709.58991772 659.67348942 -710.27149487 660.38768864 C-716.48022324 666.94035325 -722.43263712 673.63215536 -728.17872143 680.59130192 C-729.64720212 682.35080878 -731.14023731 684.08723567 -732.63868237 685.82128239 C-733.15197094 686.41779606 -733.66525951 687.01430973 -734.19410229 687.62889957 C-735.18302746 688.77704091 -736.17523855 689.92236248 -737.17115307 691.06444645 C-739.7357596 693.74967601 -739.7357596 693.74967601 -740.52149487 697.20018864 C-741.18149487 697.20018864 -741.84149487 697.20018864 -742.52149487 697.20018864 C-743.88559363 698.63098524 -743.88559363 698.63098524 -745.24415112 700.53221989 C-745.77790356 701.24257389 -746.311656 701.95292789 -746.86158276 702.68480778 C-747.42997875 703.45300846 -747.99837475 704.22120914 -748.58399487 705.01268864 C-749.77001171 706.59192858 -750.95751272 708.17005501 -752.14649487 709.74706364 C-752.72657299 710.51727848 -753.30665112 711.28749332 -753.90430737 712.08104801 C-755.90031852 714.69659403 -757.97628714 717.23653894 -760.08399487 719.76268864 C-769.03862151 730.5869626 -777.20617354 742.04605041 -785.31690502 753.50878239 C-786.50318233 755.17447537 -787.7031289 756.82931431 -788.90821362 758.48143864 C-796.17133461 768.46859772 -802.85816572 778.806446 -809.52149487 789.20018864 C-810.1104353 790.11461735 -810.69937572 791.02904606 -811.30616283 791.97118473 C-818.1596302 802.61380203 -824.87767573 813.30577771 -831.22461987 824.25878239 C-833.09261991 827.48195166 -835.01432527 830.66845862 -836.9555769 833.84789371 C-841.74733987 841.71355915 -846.09800508 849.76874864 -850.34473705 857.93944645 C-851.9879422 861.09630946 -853.64576819 864.24540114 -855.30420971 867.39428043 C-856.16009801 869.02001104 -857.01458205 870.64648169 -857.86768627 872.27367496 C-859.70887333 875.78203663 -861.55604106 879.28422113 -863.47461987 882.75096989 C-874.50055229 902.83391823 -883.6261497 924.10588977 -892.52149487 945.20018864 C-892.99490307 946.3161945 -893.46831127 947.43220036 -893.95606518 948.58202457 C-901.17187564 965.67701188 -907.7305562 982.97149901 -913.95899487 1000.45018864 C-914.29392956 1001.38647099 -914.62886425 1002.32275333 -914.97394848 1003.28740788 C-919.30991003 1015.43947202 -923.25424394 1027.65558955 -926.88053417 1040.03704166 C-927.76859761 1043.03412362 -928.70890726 1046.01372838 -929.65430737 1048.99315739 C-941.47914627 1086.67255355 -949.99524106 1125.27777528 -956.52149487 1164.20018864 C-956.75482525 1165.58237583 -956.75482525 1165.58237583 -956.99286938 1166.992486 C-966.22637059 1221.7949272 -970.75947968 1276.54081963 -970.70899487 1332.13768864 C-970.70839062 1333.3865485 -970.70778637 1334.63540836 -970.70716381 1335.92211246 C-970.60219591 1416.67571418 -960.8110068 1496.56542431 -941.09705639 1574.89855289 C-940.38708245 1577.73769576 -939.69532093 1580.58106187 -939.0049696 1583.42502689 C-932.41940497 1610.49000111 -924.07126003 1637.21841008 -914.53956127 1663.39208317 C-913.52222283 1666.19818073 -912.51917755 1669.0091933 -911.51815319 1671.82114506 C-905.33921693 1689.16257696 -898.89993012 1706.32560789 -891.52149487 1723.20018864 C-891.0360017 1724.31248844 -890.55050854 1725.42478825 -890.05030346 1726.57079411 C-871.7178137 1768.38690839 -851.2769677 1809.18938307 -827.52149487 1848.20018864 C-826.96897045 1849.1099445 -826.96897045 1849.1099445 -826.40528393 1850.03807926 C-824.13426903 1853.77362181 -821.83224137 1857.48912108 -819.52149487 1861.20018864 C-818.92860668 1862.16118473 -818.92860668 1862.16118473 -818.32374096 1863.14159489 C-811.72239315 1873.83163221 -804.82320504 1884.30386173 -797.77149487 1894.70018864 C-797.37175457 1895.2904282 -796.97201427 1895.88066776 -796.56016064 1896.48879337 C-789.57495526 1906.79124927 -782.31503856 1916.87694997 -774.83399487 1926.82518864 C-774.33053539 1927.49485661 -773.82707592 1928.16452457 -773.3083601 1928.85448551 C-771.71468518 1930.97119634 -770.11852853 1933.08601102 -768.52149487 1935.20018864 C-767.99362377 1935.89982731 -767.46575268 1936.59946598 -766.92188549 1937.32030582 C-759.00608226 1947.79596991 -750.87671435 1958.07174884 -742.52149487 1968.20018864 C-742.05050365 1968.77172672 -741.57951244 1969.34326481 -741.09424877 1969.93212223 C-736.64562682 1975.3223188 -732.16073111 1980.67654023 -727.52930737 1985.91112614 C-725.92639941 1987.73856594 -724.34125927 1989.57758063 -722.76368237 1991.42675114 C-714.9141347 2000.60310483 -706.74164484 2009.42296318 -698.42872143 2018.17968082 C-695.05445481 2021.75436471 -691.73083778 2025.37562879 -688.41382885 2029.00341129 C-685.52610925 2032.15126214 -682.55622484 2035.19426939 -679.52149487 2038.20018864 C-678.73129955 2039.00198551 -677.94110424 2039.80378239 -677.12696362 2040.62987614 C-672.74799222 2045.05836741 -668.31675606 2049.31069116 -663.58399487 2053.35643864 C-660.23387233 2056.35124515 -657.1277318 2059.5865246 -653.97071362 2062.78221989 C-651.20763434 2065.51004456 -648.32326658 2068.04227516 -645.37305737 2070.56346989 C-643.56221479 2072.16419359 -641.88741243 2073.83711168 -640.20899487 2075.57518864 C-636.49212194 2079.35979501 -632.40708203 2082.6226927 -628.27930737 2085.94628239 C-625.79885645 2087.97350644 -623.40045527 2090.05571358 -621.02149487 2092.20018864 C-616.91852298 2095.88776194 -612.68041254 2099.38170541 -608.39649487 2102.85643864 C-605.47748452 2105.23606664 -602.59206079 2107.65218643 -599.70899487 2110.07518864 C-584.09151571 2123.09980445 -567.79146497 2135.26498226 -551.19532299 2147.00878239 C-549.58326107 2148.15622436 -547.98182763 2149.31855389 -546.38086987 2150.48143864 C-527.60491382 2164.08720389 -508.10719889 2176.67242399 -488.21729565 2188.58007145 C-485.44492891 2190.2462031 -482.68184908 2191.92695405 -479.91993237 2193.61034489 C-466.55231446 2201.73169883 -453.03255508 2209.44906156 -439.21143627 2216.7714777 C-436.83260301 2218.0349495 -434.46258085 2219.31293387 -432.09571362 2220.59862614 C-410.07027466 2232.48243678 -387.38413586 2243.83650568 -364.13965893 2253.13329411 C-360.89519981 2254.45540212 -357.67321132 2255.82852581 -354.45118237 2257.20409489 C-337.64602687 2264.36699594 -320.74862592 2271.10341005 -303.52149487 2277.20018864 C-302.53856457 2277.54856785 -302.53856457 2277.54856785 -301.53577709 2277.90398502 C-272.0589429 2288.33885768 -242.37269503 2297.71650236 -212.03023815 2305.31585026 C-208.71680898 2306.15096196 -205.40778807 2307.0014916 -202.09961987 2307.85717106 C-185.6082716 2312.09392702 -169.06264085 2315.66452305 -152.33399487 2318.82518864 C-151.09092571 2319.06175175 -149.84785656 2319.29831486 -148.56711864 2319.54204655 C-112.67304671 2326.36296239 -76.92703694 2331.09767349 -40.52149487 2334.20018864 C-39.51687206 2334.28589115 -38.51224926 2334.37159367 -37.47718334 2334.45989323 C16.33674356 2338.97549239 70.87276492 2338.8885384 124.68529224 2334.43126774 C127.50725167 2334.19781047 130.32972117 2333.97150317 133.15233326 2333.74608707 C191.34076718 2329.04693767 248.73113168 2318.89491267 305.14012623 2303.82073307 C308.0734517 2303.04230542 311.01218759 2302.28594131 313.95158863 2301.5308466 C345.0329072 2293.52893481 375.79305902 2283.77477337 405.49803638 2271.60253239 C409.75394733 2269.85961873 414.04004828 2268.27394566 418.38084888 2266.75487614 C425.463546 2264.25570213 432.34315351 2261.38272721 439.22850513 2258.38768864 C440.46302631 2257.85368931 441.69764692 2257.3199198 442.93236256 2256.78637028 C446.45053718 2255.26403899 449.96468287 2253.73254006 453.47850513 2252.20018864 C454.35651783 2251.81927067 455.23453053 2251.4383527 456.13914967 2251.04589176 C487.37209606 2237.48276188 518.12266629 2222.187533 547.65965748 2205.24266911 C549.50899449 2204.18271353 551.36235853 2203.13011501 553.21678638 2202.07909489 C565.50809656 2195.10360876 577.51852996 2187.72455273 589.47850513 2180.20018864 C590.48526295 2179.56725895 591.49202076 2178.93432926 592.52928638 2178.28221989 C598.16158898 2174.72025717 603.7270053 2171.06717499 609.25975513 2167.35253239 C611.5025469 2165.85280148 613.75035762 2164.36572897 616.00975513 2162.89159489 C623.55200481 2157.95101671 630.85748429 2152.78365285 638.02440357 2147.3105402 C641.75966571 2144.46050247 645.56407829 2141.80278199 649.47850513 2139.20018864 C651.45000424 2137.71753536 653.40769782 2136.21640213 655.35350513 2134.70018864 C661.12382554 2130.219145 666.95742012 2125.82877574 672.8334856 2121.48729801 C676.65316761 2118.64465352 680.31328899 2115.68173959 683.90623951 2112.55761051 C685.9031002 2110.83361278 687.96460814 2109.20213297 690.04100513 2107.57518864 C699.25945255 2100.23691162 708.12499391 2092.47610793 716.84178638 2084.55175114 C720.07116601 2081.67162294 723.36765608 2078.87571448 726.66600513 2076.07518864 C730.87885954 2072.4928637 734.96320206 2068.88385093 738.79163074 2064.88587284 C740.51941299 2063.15930964 742.31872194 2061.57745954 744.17552662 2059.99096012 C748.44230501 2056.28007448 752.45980718 2052.36357258 756.45116138 2048.36034489 C757.17790562 2047.63455738 757.90464985 2046.90876987 758.65341663 2046.16098881 C760.1781281 2044.63695308 761.70159664 2043.11167294 763.22386646 2041.5851984 C765.53484405 2039.268864 767.85111284 2036.95791786 770.16795826 2034.64745426 C771.65851334 2033.1562383 773.14875814 2031.66471211 774.63866138 2030.17284489 C775.32114445 2029.49238605 776.00362751 2028.81192722 776.70679188 2028.11084843 C780.59355026 2024.20536675 784.30113576 2020.20086954 787.88107777 2016.01169682 C789.51215324 2014.16203115 791.21792051 2012.42632221 792.97850513 2010.70018864 C796.03288845 2007.69342377 798.86271777 2004.54577668 801.66209888 2001.30175114 C803.58036188 1999.08234148 805.52609364 1996.88959806 807.47850513 1994.70018864 C808.81199733 1993.20032986 810.14533632 1991.70033486 811.47850513 1990.20018864 C812.05471607 1989.55307926 812.63092701 1988.90596989 813.22459888 1988.23925114 C817.29828718 1983.62930364 821.20645045 1978.89854414 825.08788013 1974.12596989 C828.30050904 1970.19417405 831.56202117 1966.30410201 834.82616138 1962.41503239 C847.95668628 1946.60262775 860.30901019 1930.14506228 872.0341692 1913.26952457 C873.5227517 1911.13679549 875.02564565 1909.01486173 876.53319263 1906.89550114 C885.3275681 1894.53006778 893.80526217 1882.01044768 901.79710865 1869.11010075 C904.12836463 1865.34760459 906.49865003 1861.61695631 908.92186451 1857.91307926 C912.93708779 1851.76761536 916.63014192 1845.50027681 920.18065357 1839.07543278 C922.4329956 1835.01174283 924.79410904 1831.05843458 927.29100513 1827.13768864 C932.73506346 1818.40338433 937.29982786 1809.19303947 942.00438404 1800.04686832 C943.74880469 1796.67821235 945.53305835 1793.33208272 947.32176685 1789.98680973 C988.83066783 1712.13891895 1016.72722388 1627.94592464 1042.10405445 1512.5025568 C1042.53161742 1509.87361953 1042.97372141 1507.24734057 1043.41746998 1504.62108707 C1047.80127902 1478.65302017 1051.93802007 1452.69921121 1054.27275562 1426.45855045 C1054.47913869 1424.19323455 1054.70145348 1421.92995544 1054.9272356 1419.66649723 C1057.66785003 1391.70568949 1057.79619745 1363.68867227 1057.84686756 1335.6201601 C1057.85336514 1332.70059304 1057.86480538 1329.78108191 1057.87730885 1326.86153507 C1058.06933586 1275.12388061 1053.8332427 1224.01472381 1045.27733326 1173.00682926 C1044.61719548 1169.0615775 1043.9874819 1165.11217472 1043.36595631 1161.16068363 C1037.15545765 1121.89064653 1027.92902185 1082.96601498 1015.7319231 1045.12108707 C1014.35857317 1040.84979924 1013.04542291 1036.56064575 1011.73241138 1032.27050114 C1006.84719342 1016.3615281 1001.67823288 1000.65294229 995.61546803 985.14501286 C994.51190614 982.2866999 993.43746098 979.41842937 992.36961842 976.54660892 C982.16134708 949.11331762 970.31611944 922.4961818 957.47850513 896.20018864 C957.12278431 895.47154606 956.76706348 894.74290348 956.40056324 893.99218082 C948.82476759 878.4990313 941.1592261 863.06855494 932.56688404 848.10790348 C931.4821009 846.20649132 930.42042378 844.29393647 929.36522388 842.37596989 C911.56564821 810.1091218 891.29208617 778.89151541 869.47850513 749.20018864 C868.90712818 748.4184528 868.33575123 747.63671696 867.74705982 746.83129215 C850.0111472 722.57390016 831.74083361 698.71719007 811.52147388 676.45800114 C809.67053491 674.41241274 807.84978268 672.34552339 806.04100513 670.26268864 C802.46059471 666.15061634 798.78549329 662.12755728 795.10350513 658.10643864 C793.70857669 656.56205357 792.31808569 655.01311878 790.96336842 653.43334293 C786.02889298 647.68176237 780.73614121 642.34364505 775.35350513 637.01268864 C774.47307545 636.13677067 773.59264576 635.2608527 772.68553638 634.35839176 C770.28498425 631.97051223 767.88190342 629.58520266 765.47850513 627.20018864 C763.12996964 624.85889054 760.78761013 622.51178882 758.45213795 620.15746403 C756.02549968 617.71130516 753.595796 615.26821572 751.16600513 612.82518864 C749.94107349 611.58768864 749.94107349 611.58768864 748.69139576 610.32518864 C744.33288523 605.94931353 739.91997084 601.72129226 735.21141529 597.72264957 C733.43860266 596.16513202 731.79985463 594.52696396 730.16600513 592.82518864 C726.47348813 589.06553496 722.41440122 585.83074603 718.31444263 582.52831364 C713.89868906 578.90325974 709.70386233 575.04335272 705.47850513 571.20018864 C700.48132447 566.7170037 695.34954012 562.45168681 690.08788013 558.28221989 C687.50521002 556.22149658 684.95988407 554.12102467 682.41600513 552.01268864 C670.76952325 542.46881562 658.66049759 533.49334873 646.47655201 524.65087223 C644.3030345 523.07278804 642.13308674 521.48985362 639.96288013 519.90721989 C628.82455345 511.80280123 617.50453442 504.1065132 605.89281178 496.69310856 C602.23327553 494.35078566 598.61708083 491.95359905 595.02000904 489.51659489 C587.83045976 484.65413438 580.47989459 480.17110448 572.97069263 475.82128239 C569.891406 474.03551251 566.83785867 472.21377078 563.79881763 470.36034489 C550.93021912 462.51598409 537.79263913 455.25868442 524.47850513 448.20018864 C523.79541279 447.83646152 523.11232044 447.47273441 522.40852833 447.09798527 C510.51516713 440.76796466 498.5304923 434.65834129 486.41600513 428.76268864 C485.57366322 428.35221287 484.7313213 427.9417371 483.86345387 427.51882267 C469.59253934 420.57871921 455.2061804 414.12008943 440.47850513 408.20018864 C438.40292123 407.35659379 436.32740114 406.51284194 434.25194263 405.66893864 C429.04101541 403.55964751 423.81753185 401.48395219 418.58641529 399.42528629 C416.53496216 398.61663022 414.48511549 397.80388534 412.43700123 396.98680973 C393.69924901 389.51517993 374.67016059 383.05728802 355.48454762 376.84996891 C353.67580062 376.26409492 351.86833225 375.67427705 350.06102467 375.0839777 C313.12454132 363.07449461 275.35804828 354.14595915 237.2584734 346.74120426 C234.5941409 346.22269276 231.93101204 345.69837243 229.26805592 345.17284489 C188.7085985 337.20902006 147.65691313 333.35991315 106.47850513 330.20018864 C105.29436024 330.10770847 105.29436024 330.10770847 104.08629322 330.01336002 C9.56812611 322.66769045 -86.71820104 332.73474808 -219.48762035 362.64940739 Z " fill="#FEBD44" transform="translate(1623.5214948654175,333.7998113632202)"/>
<path d="M0 0 C1.14866043 -0.00101212 1.14866043 -0.00101212 2.32052612 -0.00204468 C13.38686086 0.01347979 23.87429901 0.39003788 34.625 3.25 C35.64787109 3.50740967 35.64787109 3.50740967 36.69140625 3.77001953 C75.22793735 13.55277323 107.29062881 38.38851086 127.56640625 72.42285156 C138.99352495 92.14622711 146.85165621 114.79884008 146.73573208 137.77997208 C146.73557833 138.61712165 146.73542458 139.45427123 146.73526618 140.31678897 C146.73356247 143.12253592 146.72469769 145.92821467 146.71592712 148.73394775 C146.71333292 150.76567557 146.71120724 152.79740403 146.70950991 154.8291328 C146.70488649 159.24692359 146.69712924 163.66469409 146.68699837 168.08247566 C146.67060168 175.27057105 146.66120508 182.45866552 146.6529541 189.64677429 C146.64378431 197.38745789 146.63419032 205.12813964 146.62237632 212.86881971 C146.59430905 231.36166081 146.58188677 249.85446222 146.5810437 268.34732416 C146.58094761 270.44691363 146.58081025 272.5465031 146.58066391 274.64609256 C146.57991207 286.07349852 146.57993178 297.50090448 146.580164 308.92831045 C146.58034658 319.22092454 146.57983298 329.51353835 146.57836914 339.80615234 C146.57827351 340.53969124 146.57817787 341.27323013 146.57807934 342.02899748 C146.57476207 365.81678734 146.54151619 389.60442837 146.49384222 413.39216687 C146.44499126 437.85665149 146.42914001 462.32095073 146.45367821 486.78547667 C146.45712287 490.24138104 146.46017643 493.69728566 146.46298409 497.15319061 C146.46354651 497.83331664 146.46410893 498.51344268 146.46468839 499.21417859 C146.4727372 510.15311301 146.44583007 521.09169466 146.40559821 532.03054651 C146.36585904 543.0270823 146.36312913 554.02321344 146.39566921 565.0197843 C146.41218846 570.97590352 146.41242139 576.93085987 146.36902809 582.88686943 C146.3296333 588.34168272 146.33644896 593.79443191 146.37973053 599.24919769 C146.38725698 601.22024511 146.37793841 603.19144553 146.34989213 605.16230777 C146.09737647 617.98015855 146.09737647 617.98015855 152.41695499 628.6518364 C154.13991474 630.19921873 155.87571321 631.73244338 157.625 633.25 C159.18024387 635.07539984 160.70592095 636.92681933 162.1875 638.8125 C165.07348793 642.38828469 168.02944804 645.85401318 171.125 649.25 C174.14782421 652.56989486 177.05012161 655.94764112 179.875 659.4375 C185.08886438 665.87548906 190.53541253 672.10163566 195.97412109 678.34912109 C202.87589085 686.29605682 209.69187286 694.31677899 216.4831543 702.3581543 C221.82986451 708.68447289 227.22847353 714.96618337 232.625 721.25 C238.93588314 728.59851068 245.2330438 735.95740317 251.48291016 743.35791016 C254.82706184 747.31465779 258.18967211 751.25517499 261.5625 755.1875 C262.30753784 756.05628784 262.30753784 756.05628784 263.06762695 756.94262695 C265.62010418 759.91756041 268.17569982 762.8897708 270.734375 765.859375 C275.3233591 771.19120634 279.88377834 776.53329671 284.3125 782 C287.86767904 786.38151795 291.59269537 790.56710681 295.390625 794.73828125 C297.62634533 797.25151232 299.75877682 799.82311479 301.875 802.4375 C307.09018515 808.87711993 312.53831752 815.10455403 317.97851562 821.35351562 C322.0567253 826.05095523 326.09272568 830.78483503 330.13671875 835.51171875 C331.64172049 837.26952918 333.14867703 839.02564446 334.65625 840.78125 C339.95554426 846.95367013 345.2339737 853.14261071 350.48291016 859.35791016 C355.82978107 865.68424365 361.22839832 871.96609579 366.625 878.25 C372.93588314 885.59851068 379.2330438 892.95740317 385.48291016 900.35791016 C388.82706184 904.31465779 392.18967211 908.25517499 395.5625 912.1875 C396.05919189 912.76669189 396.55588379 913.34588379 397.06762695 913.94262695 C399.62010418 916.91756041 402.17569982 919.8897708 404.734375 922.859375 C409.3233591 928.19120634 413.88377834 933.53329671 418.3125 939 C421.86767904 943.38151795 425.59269537 947.56710681 429.390625 951.73828125 C431.62634533 954.25151232 433.75877682 956.82311479 435.875 959.4375 C441.09018515 965.87711993 446.53831752 972.10455403 451.97851562 978.35351562 C456.0567253 983.05095523 460.09272568 987.78483503 464.13671875 992.51171875 C465.64172049 994.26952918 467.14867703 996.02564446 468.65625 997.78125 C473.95554426 1003.95367013 479.2339737 1010.14261071 484.48291016 1016.35791016 C487.82706551 1020.31466213 491.1902101 1024.25470962 494.5625 1028.1875 C495.05919189 1028.76814209 495.55588379 1029.34878418 496.06762695 1029.94702148 C498.60534739 1032.91049815 501.15658728 1035.86034634 503.734375 1038.7890625 C524.31605043 1062.26594993 536.09589921 1087.19040061 536 1118.6875 C535.99868576 1119.74389175 535.99868576 1119.74389175 535.99734497 1120.82162476 C535.83622941 1160.2012774 518.04592064 1195.51923845 490.625 1223.25 C467.76645053 1245.85596882 439.15131618 1261.64491323 407.625 1268.25 C406.30218018 1268.5281958 406.30218018 1268.5281958 404.95263672 1268.81201172 C396.52814935 1270.40537267 388.1711413 1270.64920414 379.625 1270.625 C378.90055695 1270.62445618 378.17611389 1270.62391235 377.42971802 1270.62335205 C349.72680287 1270.52799968 322.75835217 1262.82837004 301.625 1244.25 C300.86832031 1243.62480469 300.11164063 1242.99960938 299.33203125 1242.35546875 C294.23274851 1238.04609211 290.08491343 1233.32989085 285.94140625 1228.10546875 C283.59864746 1225.21751483 281.146844 1222.48232247 278.625 1219.75 C274.60525464 1215.37829537 270.82511805 1210.87213114 267.09375 1206.25390625 C262.60077164 1200.7869753 257.91753937 1195.48324209 253.27148438 1190.14648438 C249.1932747 1185.44904477 245.15727432 1180.71516497 241.11328125 1175.98828125 C239.60827951 1174.23047082 238.10132297 1172.47435554 236.59375 1170.71875 C231.29445574 1164.54632987 226.0160263 1158.35738929 220.76708984 1152.14208984 C217.42293816 1148.18534221 214.06032789 1144.24482501 210.6875 1140.3125 C209.94246216 1139.44371216 209.94246216 1139.44371216 209.18237305 1138.55737305 C206.62989582 1135.58243959 204.07430018 1132.6102292 201.515625 1129.640625 C196.9266409 1124.30879366 192.36622166 1118.96670329 187.9375 1113.5 C184.38232096 1109.11848205 180.65730463 1104.93289319 176.859375 1100.76171875 C174.62365467 1098.24848768 172.49122318 1095.67688521 170.375 1093.0625 C165.15981485 1086.62288007 159.71168248 1080.39544597 154.27148438 1074.14648438 C150.1932747 1069.44904477 146.15727432 1064.71516497 142.11328125 1059.98828125 C140.60827951 1058.23047082 139.10132297 1056.47435554 137.59375 1054.71875 C132.29445574 1048.54632987 127.0160263 1042.35738929 121.76708984 1036.14208984 C116.42021893 1029.81575635 111.02160168 1023.53390421 105.625 1017.25 C99.31411686 1009.90148932 93.0169562 1002.54259683 86.76708984 995.14208984 C83.42293816 991.18534221 80.06032789 987.24482501 76.6875 983.3125 C76.19080811 982.73330811 75.69411621 982.15411621 75.18237305 981.55737305 C72.62989582 978.58243959 70.07430018 975.6102292 67.515625 972.640625 C62.9266409 967.30879366 58.36622166 961.96670329 53.9375 956.5 C50.38232096 952.11848205 46.65730463 947.93289319 42.859375 943.76171875 C40.62365467 941.24848768 38.49122318 938.67688521 36.375 936.0625 C31.15981485 929.62288007 25.71168248 923.39544597 20.27148438 917.14648438 C16.1932747 912.44904477 12.15727432 907.71516497 8.11328125 902.98828125 C6.60827951 901.23047082 5.10132297 899.47435554 3.59375 897.71875 C-1.70554426 891.54632987 -6.9839737 885.35738929 -12.23291016 879.14208984 C-15.57706184 875.18534221 -18.93967211 871.24482501 -22.3125 867.3125 C-23.05753784 866.44371216 -23.05753784 866.44371216 -23.81762695 865.55737305 C-26.37010418 862.58243959 -28.92569982 859.6102292 -31.484375 856.640625 C-36.0733591 851.30879366 -40.63377834 845.96670329 -45.0625 840.5 C-48.61767904 836.11848205 -52.34269537 831.93289319 -56.140625 827.76171875 C-58.37634533 825.24848768 -60.50877682 822.67688521 -62.625 820.0625 C-67.84018515 813.62288007 -73.28831752 807.39544597 -78.72851562 801.14648438 C-82.8067253 796.44904477 -86.84272568 791.71516497 -90.88671875 786.98828125 C-92.39172049 785.23047082 -93.89867703 783.47435554 -95.40625 781.71875 C-100.70114365 775.55145553 -105.97558934 769.36798397 -111.21972656 763.1574707 C-116.0975485 757.38549864 -120.99114716 751.62453756 -125.95556641 745.92675781 C-126.95273363 744.74881759 -127.91606788 743.54180345 -128.85302734 742.31542969 C-129.34883301 741.68282227 -129.84463867 741.05021484 -130.35546875 740.3984375 C-130.79141357 739.82013184 -131.2273584 739.24182617 -131.67651367 738.64599609 C-134.05626809 736.69006167 -136.37481898 736.67791705 -139.375 736.25 C-139.42637084 678.04842241 -139.47413065 619.84684253 -139.50202942 561.64524841 C-139.50244359 560.78342627 -139.50285776 559.92160413 -139.50328448 559.03366616 C-139.51226385 540.30257069 -139.5205743 521.57147498 -139.52819599 502.84037891 C-139.5319379 493.6542467 -139.53582757 484.46811454 -139.53979492 475.28198242 C-139.5401872 474.36786675 -139.54057948 473.45375109 -139.54098364 472.51193495 C-139.55376069 442.89914282 -139.5762894 413.28636789 -139.60389166 383.67358618 C-139.63221219 353.2348337 -139.65066161 322.79609073 -139.65674497 292.35732529 C-139.6576094 288.05504461 -139.65858631 283.75276396 -139.65963173 279.45048332 C-139.659834 278.60375827 -139.66003627 277.75703322 -139.66024467 276.88464983 C-139.66378559 263.27151702 -139.67768837 249.65841369 -139.6954961 236.04529289 C-139.71318998 222.34933635 -139.7198959 208.65340896 -139.71550413 194.9574414 C-139.71322773 186.82701913 -139.7192578 178.69670378 -139.73739263 170.56630087 C-139.75002885 164.48378047 -139.74685041 158.40137365 -139.73769668 152.31884264 C-139.73643331 149.86633278 -139.74020248 147.41381377 -139.74964955 144.96132178 C-139.88114903 108.70117534 -130.27109847 76.0840323 -106.375 48.25 C-105.21871094 46.89261719 -105.21871094 46.89261719 -104.0390625 45.5078125 C-98.33566286 39.01277379 -92.25829868 33.46975182 -85.375 28.25 C-84.59769531 27.65703125 -83.82039063 27.0640625 -83.01953125 26.453125 C-58.34953491 8.43617625 -30.40651105 0.02393798 0 0 Z " fill="#FFBE44" transform="translate(1663.375,930.75)"/>
<path d="M0 0 C0 4.04383487 -2.01830528 5.97820907 -4.4375 9 C-5.12247559 9.87156738 -5.12247559 9.87156738 -5.82128906 10.76074219 C-10.13985124 16.23451226 -14.55541602 21.62832488 -19 27 C-20.72140108 29.08863331 -22.44171775 31.17815644 -24.16186523 33.26782227 C-25.38723215 34.75587244 -26.61330658 36.24334027 -27.84008789 37.73022461 C-30.41089993 40.84712986 -32.97995757 43.96452747 -35.51171875 47.11328125 C-39.80087783 52.43430266 -44.27074067 57.53075805 -48.92578125 62.53173828 C-51.8167791 65.65461825 -54.54134355 68.85586303 -57.1875 72.1875 C-61.31952429 77.31690947 -65.74408272 82.13454517 -70.25 86.9375 C-70.93602295 87.67186279 -71.6220459 88.40622559 -72.32885742 89.1628418 C-75.70435334 92.73289555 -79.0405396 96.06109819 -83 99 C-81.58261511 95.74792908 -79.87473588 93.68638933 -77.3125 91.25 C-74.00077692 88.02151592 -70.91926846 84.69355784 -67.90625 81.1875 C-65.69054352 78.64488601 -63.40901408 76.16889802 -61.125 73.6875 C-56.99773837 69.16746271 -53.11409865 64.50204868 -49.2734375 59.73828125 C-46.9730353 56.9675219 -44.57478528 54.326622 -42.125 51.6875 C-37.88379019 47.07919939 -34.00521972 42.28429105 -30.1784668 37.33496094 C-27.03212532 33.27694891 -23.78197581 29.3333863 -20.4375 25.4375 C-15.85526478 20.0922397 -11.53457732 14.58837903 -7.2890625 8.97265625 C-4.93179079 5.91142115 -2.49079446 2.95286763 0 0 Z " fill="#9FA475" transform="translate(2736,2474)"/>
<path d="M0 0 C0.99 0.495 0.99 0.495 2 1 C-7.91073262 12.05402828 -18.38461729 22.53998785 -28.89233398 33.02270508 C-31.34080477 35.46543117 -33.78469001 37.91268846 -36.22731495 40.36125851 C-38.59311613 42.73156209 -40.96274087 45.09802783 -43.33203125 47.46484375 C-44.63222954 48.76807838 -44.63222954 48.76807838 -45.95869446 50.09764099 C-50.48966653 54.61123014 -55.0970952 58.89428357 -60 63 C-61.35053546 64.31590635 -62.69306167 65.64078414 -64 67 C-62.66961644 62.92438052 -61.11490116 60.88739767 -57.8125 58.1875 C-54.13946892 55.05840505 -50.99723273 51.8245549 -47.890625 48.14453125 C-44.875323 44.72428167 -41.59571064 41.5759762 -38.33203125 38.39453125 C-35.99213972 36.08834574 -35.99213972 36.08834574 -34.19921875 33.63671875 C-32.37361412 31.44793878 -30.68245436 29.79620277 -28.53125 27.96484375 C-22.53129071 22.83176169 -17.05745369 17.16373268 -11.5 11.5625 C-10.38044368 10.4379167 -9.26065371 9.31356595 -8.140625 8.18945312 C-5.42438466 5.46230656 -2.71131708 2.73204093 0 0 Z " fill="#D7B25A" transform="translate(740,698)"/>
<path d="M0 0 C0.66 0 1.32 0 2 0 C2 9.24 2 18.48 2 28 C1.34 28 0.68 28 0 28 C0.02175293 28.74668945 0.04350586 29.49337891 0.06591797 30.26269531 C0.22923493 40.82385856 -0.63442253 51.2240358 -1.59912109 61.73291016 C-1.87567855 64.75742086 -2.13963987 67.78285165 -2.40234375 70.80859375 C-2.57737756 72.76308791 -2.7531338 74.71751755 -2.9296875 76.671875 C-3.00686005 77.56066345 -3.08403259 78.4494519 -3.1635437 79.36517334 C-3.72219057 85.34073113 -4.71524713 91.13835791 -6 97 C-6.33 97 -6.66 97 -7 97 C-6.44182391 85.06389739 -5.5112505 73.20479272 -4.32873535 61.31533813 C-2.3083264 40.89887874 -0.93868809 20.49278212 0 0 Z " fill="#A0A474" transform="translate(3009,1728)"/>
<path d="M0 0 C0.99 0.495 0.99 0.495 2 1 C2.45496581 3.88765973 2.78217847 6.70192852 3.03515625 9.609375 C3.11873886 10.48716614 3.20232147 11.36495728 3.28843689 12.26934814 C3.55526186 15.09548817 3.80889869 17.92264583 4.0625 20.75 C4.23679412 22.61075559 4.41191472 24.47143396 4.58789062 26.33203125 C7.15471521 53.68319427 7.15471521 53.68319427 7.0625 62.8125 C7.05347656 63.99457031 7.04445313 65.17664062 7.03515625 66.39453125 C7.02355469 67.25433594 7.01195313 68.11414062 7 69 C7.66 69 8.32 69 9 69 C9 75.6 9 82.2 9 89 C8.34 89 7.68 89 7 89 C6.9348243 88.09728363 6.9348243 88.09728363 6.86833191 87.17633057 C6.31537864 79.53367679 5.75403059 71.89165904 5.1875 64.25 C5.09762817 63.03760651 5.00775635 61.82521301 4.91516113 60.57608032 C3.80426003 45.67818265 2.64462044 30.80669068 0.86401367 15.97167969 C0.22457481 10.59627071 -0.1281595 5.41473877 0 0 Z " fill="#9BA377" transform="translate(3002,1508)"/>
<path d="M0 0 C0.495 0.99 0.495 0.99 1 2 C-0.95633429 5.87354189 -3.57649133 9.4031905 -6 13 C-6.46277344 13.69399902 -6.92554687 14.38799805 -7.40234375 15.10302734 C-13.70270026 24.53924312 -20.2132258 33.74586085 -27.1784668 42.703125 C-31.59956307 48.40759241 -35.77983453 54.25806725 -39.86743164 60.20556641 C-42.99173654 64.71470133 -46.35194158 68.90301111 -50 73 C-50 68.63616965 -47.39394673 66.24278758 -44.8125 62.9375 C-43.70299399 61.48807505 -42.5949732 60.03751223 -41.48828125 58.5859375 C-40.62323975 57.45430176 -40.62323975 57.45430176 -39.74072266 56.29980469 C-36.93669897 52.59518995 -34.21448049 48.83299912 -31.5 45.0625 C-30.95835205 44.3101709 -30.4167041 43.5578418 -29.85864258 42.78271484 C-19.70917306 28.65474997 -9.78415226 14.38327543 0 0 Z " fill="#9EA475" transform="translate(2788,2401)"/>
<path d="M0 0 C0.66 0 1.32 0 2 0 C3.55078125 1.57421875 3.55078125 1.57421875 5.3125 3.6875 C7.43644684 6.19802294 9.55501344 8.60823421 11.9375 10.875 C14 13 14 13 14 15 C14.99 15.33 15.98 15.66 17 16 C18.56947327 17.58947754 18.56947327 17.58947754 20.23461914 19.60351562 C23.72697577 23.71729881 27.41610235 27.54563761 31.24609375 31.34375 C32.23005882 32.32559265 32.23005882 32.32559265 33.23390198 33.32727051 C35.29940145 35.38723823 37.36837595 37.44367366 39.4375 39.5 C40.85114434 40.9086205 42.26455786 42.31747267 43.67773438 43.7265625 C47.11583149 47.15372133 50.55704656 50.57772019 54 54 C51 54 51 54 49.09185791 52.45935059 C48.37350769 51.73735474 47.65515747 51.01535889 46.91503906 50.27148438 C46.09698792 49.45643433 45.27893677 48.64138428 44.43609619 47.80163574 C43.11421295 46.4612323 43.11421295 46.4612323 41.765625 45.09375 C40.85423767 44.1804895 39.94285034 43.267229 39.00384521 42.32629395 C37.06924612 40.38708535 35.13966412 38.44306678 33.21386719 36.49511719 C30.76525275 34.01845748 28.30826922 31.55033142 25.84784317 29.08541107 C23.48395469 26.71631517 21.12476102 24.34257903 18.765625 21.96875 C17.89246643 21.09134155 17.01930786 20.21393311 16.11968994 19.30993652 C2.55983165 5.59324274 2.55983165 5.59324274 0 0 Z " fill="#98A278" transform="translate(677,2569)"/>
<path d="M0 0 C1.46748226 4.56293483 -0.1197467 7.80578857 -1.82421875 12.08984375 C-2.12689163 12.87138321 -2.42956451 13.65292267 -2.7414093 14.45814514 C-3.38432137 16.11018607 -4.03275479 17.76008737 -4.6862793 19.40795898 C-5.68031672 21.91935174 -6.65286791 24.43829334 -7.62304688 26.95898438 C-8.25133075 28.56560273 -8.8808485 30.17173923 -9.51171875 31.77734375 C-9.80044357 32.52644516 -10.0891684 33.27554657 -10.38664246 34.04734802 C-12.07902114 38.2748194 -13.91750345 41.56444589 -17 45 C-16.40364283 41.61865485 -15.55940302 38.60904583 -14.25 35.4375 C-13.89035156 34.55964844 -13.53070312 33.68179688 -13.16015625 32.77734375 C-12.39938018 30.95609194 -11.6364341 29.13574474 -10.87109375 27.31640625 C-7.07246619 18.2774278 -3.52689399 9.14756365 0 0 Z " fill="#9EA475" transform="translate(2924,2137)"/>
<path d="M0 0 C0.66 0 1.32 0 2 0 C3.28744114 1.45029169 4.50236776 2.96497157 5.6875 4.5 C10.48838001 10.54438663 15.72348182 16.08933246 21.12182617 21.60351562 C21.7532251 22.26029297 22.38462402 22.91707031 23.03515625 23.59375 C23.89185913 24.47063477 23.89185913 24.47063477 24.76586914 25.36523438 C26 27 26 27 26 30 C16.6901152 20.84163231 7.85715845 11.46940853 0 1 C0 0.67 0 0.34 0 0 Z " fill="#A1A474" transform="translate(650,2539)"/>
<path d="M0 0 C0.66 0.33 1.32 0.66 2 1 C-4.96870041 8.21132441 -12.10727804 14.79155049 -20 21 C-21.66734236 22.33248828 -23.33420743 23.66557477 -25 25 C-25.66 24.67 -26.32 24.34 -27 24 C-21.86424879 19.2875862 -16.67633402 14.68929616 -11.25 10.3125 C-7.23970957 7.07013752 -3.54783409 3.73960891 0 0 Z " fill="#9DA376" transform="translate(2565,2657)"/>
<path d="M0 0 C4.1937936 3.90509042 7.32583032 8.1181911 10.5 12.875 C11.42645769 14.24781826 12.35353684 15.62021734 13.28125 16.9921875 C13.72855469 17.65573242 14.17585937 18.31927734 14.63671875 19.00292969 C16.70855956 22.03796869 18.85163075 25.01874847 21 28 C20.67 28.66 20.34 29.32 20 30 C15.07158381 24.09870165 10.64969711 18.09704394 6.609375 11.5546875 C5.17297296 9.27457358 3.66271525 7.10408357 2.0625 4.9375 C0 2 0 2 0 0 Z " fill="#A0A475" transform="translate(554,2415)"/>
<path d="M0 0 C5.1582421 2.41842696 9.77186456 5.72391277 14.50073242 8.87695312 C16.1892445 10.00116149 17.8825498 11.11788439 19.57617188 12.234375 C21.16848633 13.29398438 21.16848633 13.29398438 22.79296875 14.375 C24.25512817 15.34566406 24.25512817 15.34566406 25.74682617 16.3359375 C28 18 28 18 29 20 C23.78930245 18.30154325 19.55045014 15.18046973 15.0625 12.125 C14.27681641 11.59519531 13.49113281 11.06539062 12.68164062 10.51953125 C11.1526859 9.48828648 9.62605981 8.45357881 8.10205078 7.41503906 C6.77883611 6.52428967 5.4450638 5.64883945 4.09716797 4.79589844 C2.70038027 3.91117057 1.34441232 2.96245248 0 2 C0 1.34 0 0.68 0 0 Z " fill="#A0A474" transform="translate(889,2754)"/>
<path d="M0 0 C0 0.66 0 1.32 0 2 C-3.93177905 3.53592773 -7.8712275 5.05111744 -11.8125 6.5625 C-12.93205078 7.00013672 -14.05160156 7.43777344 -15.20507812 7.88867188 C-16.27822266 8.29794922 -17.35136719 8.70722656 -18.45703125 9.12890625 C-19.9416687 9.70233765 -19.9416687 9.70233765 -21.45629883 10.28735352 C-24 11 -24 11 -27 10 C-24.15291519 8.81371466 -21.30561425 7.6279982 -18.45703125 6.4453125 C-16.1789171 5.4928806 -13.90531322 4.52957711 -11.63671875 3.5546875 C-10.58097656 3.10351562 -9.52523437 2.65234375 -8.4375 2.1875 C-7.46683594 1.76855469 -6.49617188 1.34960938 -5.49609375 0.91796875 C-3 0 -3 0 0 0 Z " fill="#9EA475" transform="translate(2174,2901)"/>
<path d="M0 0 C0.66 0.33 1.32 0.66 2 1 C-2.61636093 5.07239483 -7.44231354 8.27050415 -12.75 11.375 C-13.51699219 11.83777344 -14.28398437 12.30054687 -15.07421875 12.77734375 C-15.80769531 13.20917969 -16.54117188 13.64101562 -17.296875 14.0859375 C-18.29219238 14.6744751 -18.29219238 14.6744751 -19.30761719 15.27490234 C-20.14534668 15.63382568 -20.14534668 15.63382568 -21 16 C-21.66 15.67 -22.32 15.34 -23 15 C-19.21684692 12.46620236 -15.42218486 9.9502106 -11.625 7.4375 C-10.54476562 6.71369141 -9.46453125 5.98988281 -8.3515625 5.24414062 C-7.3203125 4.56416016 -6.2890625 3.88417969 -5.2265625 3.18359375 C-4.27346191 2.54993896 -3.32036133 1.91628418 -2.33837891 1.26342773 C-1.18088135 0.63803101 -1.18088135 0.63803101 0 0 Z " fill="#9EA476" transform="translate(2401,2782)"/>
<path d="M0 0 C0.66 0.33 1.32 0.66 2 1 C-2.65525915 6.08424207 -7.7178941 10.14253009 -13.3515625 14.10546875 C-15.97852666 15.98463928 -18.49563192 17.96124548 -21 20 C-21.66 19.67 -22.32 19.34 -23 19 C-16.34713499 13.42165271 -9.66776879 7.8897625 -2.86328125 2.49609375 C-1.0978261 1.1340445 -1.0978261 1.1340445 0 0 Z " fill="#9CA376" transform="translate(2523,2693)"/>
<path d="M0 0 C0.33 0.66 0.66 1.32 1 2 C0.24316406 3.80004883 0.24316406 3.80004883 -0.984375 5.95703125 C-1.42523437 6.74013672 -1.86609375 7.52324219 -2.3203125 8.33007812 C-3.02800781 9.55887695 -3.02800781 9.55887695 -3.75 10.8125 C-4.20632812 11.62009766 -4.66265625 12.42769531 -5.1328125 13.25976562 C-6.01759383 14.82091881 -6.90864315 16.37854022 -7.80664062 17.93212891 C-8.789941 19.63600661 -9.749786 21.35339813 -10.703125 23.07421875 C-11.13109375 23.70972656 -11.5590625 24.34523438 -12 25 C-12.66 25 -13.32 25 -14 25 C-12.71563748 21.61636394 -11.25238128 18.51797586 -9.43359375 15.390625 C-8.94826172 14.55402344 -8.46292969 13.71742188 -7.96289062 12.85546875 C-7.45951172 11.99566406 -6.95613281 11.13585938 -6.4375 10.25 C-5.93025391 9.37472656 -5.42300781 8.49945312 -4.90039062 7.59765625 C-1.14223388 1.14223388 -1.14223388 1.14223388 0 0 Z " fill="#9FA475" transform="translate(2830,2334)"/>
<path d="M0 0 C0.66 0.33 1.32 0.66 2 1 C-5.09361325 7.05760444 -12.23134268 12.80943693 -20 18 C-20.66 17.67 -21.32 17.34 -22 17 C-19.08377998 14.72859261 -16.1669457 12.45797537 -13.25 10.1875 C-12.425 9.54490234 -11.6 8.90230469 -10.75 8.24023438 C-9.95078125 7.61826172 -9.1515625 6.99628906 -8.328125 6.35546875 C-7.22839355 5.49924927 -7.22839355 5.49924927 -6.10644531 4.62573242 C-4.08443872 3.06516892 -2.04720131 1.52730928 0 0 Z " fill="#9EA475" transform="translate(2489,2720)"/>
<path d="M0 0 C4.54109672 4.26587874 8.24735246 9.03612328 12 14 C11.67 14.66 11.34 15.32 11 16 C9.72403068 14.60886005 8.45445352 13.21185587 7.1875 11.8125 C6.47980469 11.03519531 5.77210938 10.25789063 5.04296875 9.45703125 C0 3.39196941 0 3.39196941 0 0 Z " fill="#9DA376" transform="translate(584,2457)"/>
<path d="M0 0 C5.47035213 3.79037089 9.89962427 7.75027653 14 13 C10.33620697 11.42491141 7.70148695 9.15806427 4.75 6.5 C3.85796875 5.7059375 2.9659375 4.911875 2.046875 4.09375 C0 2 0 2 0 0 Z " fill="#9AA377" transform="translate(745,2637)"/>
<path d="M0 0 C0 3 0 3 -2.1875 5.26171875 C-3.115625 6.06222656 -4.04375 6.86273437 -5 7.6875 C-5.928125 8.49574219 -6.85625 9.30398437 -7.8125 10.13671875 C-8.8953125 11.05904297 -8.8953125 11.05904297 -10 12 C-10.66 11.67 -11.32 11.34 -12 11 C-10.56564079 9.5385774 -9.12739414 8.08096951 -7.6875 6.625 C-6.88699219 5.81289062 -6.08648438 5.00078125 -5.26171875 4.1640625 C-3 2 -3 2 0 0 Z " fill="#98A278" transform="translate(2588,2637)"/>
<path d="M0 0 C4.33409466 3.18683431 7.6189962 6.86378916 11 11 C10.67 11.66 10.34 12.32 10 13 C8.69901283 11.78070272 7.40957563 10.54907548 6.125 9.3125 C5.40570312 8.62800781 4.68640625 7.94351563 3.9453125 7.23828125 C1.91664113 4.90408709 0.97007267 2.91532366 0 0 Z " fill="#9BA377" transform="translate(632,2518)"/>
<path d="M0 0 C4.04420651 1.77945087 7.46078487 4.39529673 11 7 C7.63596525 7 6.59907083 6.38119947 3.8125 4.625 C3.09707031 4.18414063 2.38164063 3.74328125 1.64453125 3.2890625 C1.10183594 2.86367187 0.55914063 2.43828125 0 2 C0 1.34 0 0.68 0 0 Z " fill="#96A279" transform="translate(889,2754)"/>
<path d="M0 0 C2.66666667 2.66666667 5.33333333 5.33333333 8 8 C7.67 8.66 7.34 9.32 7 10 C5.82739389 8.71372289 4.6620717 7.42080217 3.5 6.125 C2.8503125 5.40570312 2.200625 4.68640625 1.53125 3.9453125 C0 2 0 2 0 0 Z " fill="#9CA376" transform="translate(610,2491)"/>
</svg>
