<?xml version="1.0" encoding="UTF-8"?>
<svg version="1.1" xmlns="http://www.w3.org/2000/svg" width="512" height="512">
<path d="M0 0 C1.21743896 -0.00856522 1.21743896 -0.00856522 2.45947266 -0.01730347 C3.3462822 -0.01842133 4.23309174 -0.01953918 5.14677429 -0.02069092 C6.08367096 -0.02565582 7.02056763 -0.03062073 7.9858551 -0.03573608 C11.08987662 -0.05035862 14.19384702 -0.05715997 17.29789734 -0.06268311 C19.45399985 -0.0684346 21.61010235 -0.07419233 23.76620483 -0.07995605 C28.28971088 -0.09046638 32.81319915 -0.09630881 37.3367157 -0.09979248 C43.13060532 -0.10527643 48.92425985 -0.12930233 54.71807575 -0.15776443 C59.17306198 -0.17639623 63.62799164 -0.18159672 68.08301353 -0.18312836 C70.2188311 -0.18615432 72.35464768 -0.19418092 74.49042702 -0.20731354 C77.48022423 -0.22438463 80.469448 -0.22249102 83.45927429 -0.21600342 C84.34001114 -0.2252182 85.22074799 -0.23443298 86.12817383 -0.243927 C92.00048298 -0.20404849 95.9642899 0.82902628 100.74182129 4.47013855 C102.48584961 6.79075387 103.19872342 9.10167577 104.08183289 11.86529541 C104.46200058 13.0398378 104.84216827 14.21438019 105.2338562 15.42451477 C105.6382987 16.70603663 106.04245136 17.98764999 106.44633484 19.26934814 C106.86731047 20.58329509 107.28901799 21.89700776 107.71142578 23.210495 C108.59360472 25.96004614 109.46973803 28.7114218 110.34111023 31.4644165 C111.45928421 34.99687607 112.58800044 38.52584801 113.72067547 42.05368137 C114.79966165 45.41603615 115.87310462 48.7801527 116.94633484 52.14434814 C117.15217382 52.78777224 117.35801281 53.43119633 117.57008934 54.09411812 C118.1500005 55.91009237 118.72540339 57.72750444 119.30058289 59.54498291 C119.62906723 60.57962173 119.95755157 61.61426056 120.29598999 62.68025208 C120.99711609 65.14044189 120.99711609 65.14044189 120.99711609 67.14044189 C121.77525085 67.13892301 122.55338561 67.13740413 123.35510021 67.13583922 C169.45835232 67.04635603 215.56159499 66.97771039 261.66491652 66.93618058 C267.19874556 66.93117766 272.73257442 66.92600038 278.2664032 66.92071533 C279.36810388 66.91966609 280.46980455 66.91861685 281.6048901 66.91753581 C299.45103476 66.90012348 317.29712795 66.86858121 335.14324207 66.83183071 C353.45060356 66.79444437 371.75793807 66.77221092 390.06533617 66.76408792 C401.36492702 66.75859536 412.66437242 66.74123825 423.9639185 66.70877603 C431.70904835 66.68765663 439.45410284 66.68123602 447.19925941 66.68643638 C451.66998969 66.68900217 456.14046553 66.68502764 460.61115074 66.66362 C464.70417108 66.64416371 468.79676573 66.64316575 472.88980561 66.65684631 C474.37041344 66.65853729 475.85104777 66.65345507 477.33160342 66.64090917 C491.13899545 66.53071257 491.13899545 66.53071257 496.99711609 71.14044189 C500.01251892 75.34997444 499.52881281 80.18204512 498.99711609 85.14044189 C497.95021016 89.70415325 496.51117222 94.10919929 495.03617859 98.55059814 C494.61366202 99.85846837 494.19249365 101.1667748 493.77256775 102.47547913 C492.87427114 105.2658928 491.96714352 108.05320908 491.05271912 110.83837891 C489.59793095 115.26985224 488.1633007 119.70768983 486.73197937 124.14678955 C485.25909077 128.71176197 483.78498762 133.2763199 482.30384827 137.83862305 C478.11910723 150.72917951 474.02062567 163.645635 469.9551239 176.57434082 C468.87285803 180.01308447 467.7871437 183.45071981 466.70024109 186.88800049 C463.37580928 197.40365823 460.06109499 207.92216765 456.77916527 218.45116806 C455.03496907 224.04651815 453.2846828 229.63994025 451.5304966 235.23216629 C450.27386797 239.24001221 449.02556289 243.25032256 447.78354645 247.26271915 C446.83379582 250.32203286 445.87148244 253.37739617 444.91117859 256.43341064 C444.57342407 257.53373123 444.23566956 258.63405182 443.88768005 259.76771545 C441.62981503 266.89778773 439.58550846 272.96180814 432.99711609 277.14044189 C430.82546508 277.51714808 430.82546508 277.51714808 428.42548943 277.51961613 C427.50755918 277.52783927 426.58962894 277.53606241 425.64388263 277.54453474 C424.63903579 277.53832293 423.63418895 277.53211111 422.59889221 277.52571106 C421.5285559 277.53094675 420.45821959 277.53618245 419.35544884 277.5415768 C415.75656162 277.55558377 412.15803064 277.54822502 408.55912781 277.54107666 C405.98365967 277.54681679 403.40819423 277.55389857 400.83273315 277.56222534 C395.27957854 277.57821096 389.72649689 277.5834752 384.17332077 277.58169746 C376.13346971 277.57931384 368.09373517 277.59530501 360.05391456 277.61615001 C346.99560222 277.6496913 333.93730031 277.6713415 320.87895203 277.68414307 C320.09730545 277.68491256 319.31565888 277.68568205 318.51032604 277.68647485 C315.34369281 277.68957679 312.17705956 277.69265961 309.01042628 277.69571489 C300.30611717 277.70423526 291.60181171 277.71513873 282.89750671 277.72711182 C282.1186318 277.72817984 281.33975689 277.72924785 280.53727971 277.73034824 C267.53516586 277.74846177 254.53307668 277.77446855 241.53098691 277.80524296 C233.51556862 277.82376715 225.50020585 277.83471087 217.48476584 277.83576488 C211.33601942 277.83700219 205.1873274 277.84809298 199.03859901 277.86270523 C196.52075991 277.86697918 194.00291233 277.86784879 191.48507118 277.86503029 C188.04237587 277.8616192 184.59991414 277.87043618 181.15724182 277.88215637 C180.16577931 277.87817528 179.1743168 277.87419418 178.15280998 277.87009245 C165.78628957 277.94447617 155.07079382 280.26840145 145.99711609 289.14044189 C139.20939837 298.22206976 138.0491511 306.93075591 138.99711609 318.14044189 C139.8582219 321.51636809 141.13994317 324.20472446 142.99711609 327.14044189 C143.43281921 327.84813721 143.86852234 328.55583252 144.31742859 329.28497314 C149.00249225 336.18456143 155.00155663 339.94542002 162.99711609 342.14044189 C166.21559896 342.42423894 169.41948103 342.4087704 172.64878845 342.39199829 C173.61466125 342.39496843 174.58053405 342.39793857 175.57567573 342.40099871 C178.8089898 342.40863123 182.04212181 342.40214764 185.2754364 342.39581299 C187.59504316 342.39856325 189.91464898 342.40224337 192.23425293 342.40678406 C197.2286074 342.41489504 202.22291711 342.41706474 207.21727753 342.41483688 C214.44912501 342.41224358 221.68089055 342.42339387 228.91271874 342.43938668 C240.66105905 342.46533769 252.40939941 342.48536131 264.15776062 342.49884033 C264.86052021 342.4996507 265.5632798 342.50046107 266.28733513 342.501296 C276.25458603 342.51251131 286.22183135 342.51779741 296.18908772 342.52068312 C296.89063454 342.52088711 297.59218136 342.5210911 298.31498718 342.52130127 C299.36601855 342.52160117 299.36601855 342.52160117 300.43828288 342.52190714 C312.13871186 342.52564507 323.8390562 342.54476489 335.53944278 342.57639563 C343.38950047 342.59660101 351.23929717 342.59898382 359.08937025 342.58811545 C363.97919623 342.58550529 368.86887078 342.59952759 373.75865746 342.61819649 C376.02171209 342.62351153 378.28479473 342.6220335 380.54783821 342.61316109 C383.64475579 342.60200132 386.74065336 342.61551694 389.83750916 342.63491821 C390.72644277 342.62579356 391.61537638 342.6166689 392.53124738 342.60726774 C401.06594954 342.71082876 408.1734452 345.81530717 415.45024109 350.13653564 C416.38908142 350.68906006 417.32792175 351.24158447 418.29521179 351.81085205 C419.75640442 352.68556152 419.75640442 352.68556152 421.24711609 353.57794189 C422.2747406 354.18686279 423.30236511 354.79578369 424.36112976 355.42315674 C426.50011975 356.69069425 428.63772429 357.96057252 430.77397156 359.23272705 C433.95180695 361.11362432 437.14493473 362.9652366 440.34477234 364.80841064 C441.34798523 365.3898584 442.35119812 365.97130615 443.3848114 366.57037354 C445.29622763 367.67813338 447.21082393 368.78042895 449.12895203 369.87652588 C449.98907898 370.37869629 450.84920593 370.8808667 451.73539734 371.39825439 C452.48861267 371.83282959 453.241828 372.26740479 454.01786804 372.71514893 C457.70378317 375.36944429 458.87146093 377.58396906 459.87211609 382.01544189 C460.24185632 386.15961363 459.37244213 388.65663037 456.99711609 392.14044189 C454.52768878 394.6098692 452.57622367 395.92496 449.30961609 397.14044189 C439.96308802 397.14044189 431.01995718 390.48265108 423.24711609 385.89044189 C420.01030953 383.99714236 416.77429683 382.10466758 413.51911163 380.24310589 C411.2614083 378.92970338 409.20544878 377.57191452 407.07357025 376.04092884 C396.27593445 368.73868942 386.13398603 369.03698171 373.42485046 369.18804932 C371.16966075 369.18535017 368.91447294 369.1790868 366.65930176 369.16955566 C361.82736725 369.15675189 356.99639351 369.16895599 352.16455078 369.2011013 C344.51428712 369.25192288 336.86466448 369.24671018 329.21427917 369.23451233 C318.48140514 369.22330831 307.74895498 369.23770146 297.01615906 369.2744751 C286.00346298 369.31209505 274.99082838 369.34151169 263.97807312 369.35455322 C263.29967092 369.35536422 262.62126871 369.35617523 261.92230886 369.3570108 C250.57873075 369.36998895 239.23516815 369.37056533 227.89158297 369.36637765 C220.29681691 369.36513682 212.70236982 369.38194973 205.10767365 369.41402566 C200.37286366 369.43156377 195.63808903 369.43704031 190.90324974 369.43981934 C188.71924934 369.44377773 186.53525077 369.45290127 184.35129738 369.46776772 C163.42258828 369.60599353 144.87884314 367.50151131 129.05888367 352.46392822 C118.08722251 341.43260807 112.04279193 326.625563 111.74711609 311.07794189 C111.98501599 295.24678486 117.62129622 280.7042061 128.69242859 269.31622314 C134.34348008 263.98124742 139.6696346 260.14955823 146.79399109 256.93731689 C147.95769226 256.40976807 149.12139343 255.88221924 150.32035828 255.33868408 C151.20368835 254.94326416 152.08701843 254.54784424 152.99711609 254.14044189 C145.64834762 230.05008103 138.06785979 206.03945984 130.30961609 182.07794189 C123.82183646 162.037479 117.38610062 141.9826009 111.05961609 121.89044189 C110.52496231 120.19250488 110.52496231 120.19250488 109.97950745 118.46026611 C109.62236664 117.32605225 109.26522583 116.19183838 108.89726257 115.02325439 C108.16367637 112.69380956 107.43003318 110.36438267 106.69633484 108.03497314 C106.14428627 106.28224594 106.14428627 106.28224594 105.58108521 104.49411011 C100.54329783 88.51194634 95.45605926 72.54546939 90.37211609 56.57794189 C89.8951547 55.07977364 89.41819545 53.5816047 88.9412384 52.08343506 C86.29410251 43.76881568 83.64608606 35.45447715 80.99711609 27.14044189 C79.46068703 27.13164253 79.46068703 27.13164253 77.89321899 27.12266541 C68.22673961 27.0653811 58.56048396 26.9925896 48.89423275 26.90472698 C43.92504444 26.86005429 38.95593752 26.82079127 33.98661804 26.79400635 C29.18836369 26.76794251 24.3904231 26.72751818 19.59236336 26.67725563 C17.76444472 26.66060776 15.93647184 26.64908055 14.10848808 26.64282799 C11.54230455 26.63316422 8.97691996 26.60507826 6.41093445 26.57281494 C5.65999008 26.57425003 4.90904572 26.57568512 4.13534546 26.5771637 C-1.97283844 26.46899197 -6.66907325 25.11520476 -11.44038391 21.07794189 C-13.74465364 16.74591481 -14.00953151 12.93506712 -13.00288391 8.14044189 C-9.84638404 2.64872581 -6.41484995 0.02707617 0 0 Z " fill="#FFC006" transform="translate(13.002883911132813,26.85955810546875)"/>
<path d="M0 0 C9.27510962 6.41573093 16.72011833 15.44889567 18.83984375 26.71484375 C19.6540065 39.43446836 18.90243885 50.20903802 10.83984375 60.71484375 C10.15921875 61.68421875 9.47859375 62.65359375 8.77734375 63.65234375 C1.45320754 72.13762351 -8.90053764 75.83166164 -19.75390625 76.9921875 C-31.37459702 77.45186672 -41.48717193 73.15859412 -50.38671875 65.8984375 C-58.22795623 58.62987466 -62.61360881 49.29818946 -63.37890625 38.6796875 C-63.72579473 26.32178542 -60.5872835 15.74528371 -52.12109375 6.484375 C-37.97756224 -6.83453365 -16.97875744 -10.10128607 0 0 Z " fill="#FFC006" transform="translate(395.16015625,408.28515625)"/>
<path d="M0 0 C9.72578479 6.88637782 14.6476782 16.14008359 17.203125 27.5234375 C18.48387844 39.5625198 16.02902625 50.77135026 8.515625 60.4609375 C0.72424601 69.15506094 -9.00481443 74.60662702 -20.73828125 75.6640625 C-32.78592873 75.90868478 -43.73646527 72.65146277 -52.70703125 64.421875 C-61.07544111 55.56856663 -65.27574129 45.70218344 -65.55078125 33.51953125 C-65.0576572 22.05813285 -60.55360275 11.64404548 -52.484375 3.4609375 C-37.19933904 -9.47923499 -16.75997087 -10.38274925 0 0 Z " fill="#FFC006" transform="translate(244.484375,409.5390625)"/>
</svg>
