<?xml version="1.0" encoding="UTF-8"?>
<svg version="1.1" xmlns="http://www.w3.org/2000/svg" width="512" height="512">
<path d="M0 0 C25.9409253 22.11981862 43.44105202 49.88825719 51.75146484 83.02880859 C51.93080566 83.7295752 52.11014648 84.4303418 52.29492188 85.15234375 C57.29419514 105.70049869 56.7695399 130.55150625 51.75146484 151.02880859 C51.58517578 151.75100586 51.41888672 152.47320312 51.24755859 153.21728516 C42.84207878 189.18962561 20.66392541 221.10004631 -9.74853516 241.96630859 C-25.754356 253.03332113 -37.15610879 266.27234198 -40.76708984 285.83862305 C-41.58370496 291.67186436 -41.40460617 297.57307593 -41.42431641 303.45068359 C-41.44157881 305.43114253 -41.45886535 307.41160157 -41.47751904 309.39204788 C-41.52279411 314.24424776 -41.56079977 319.09633071 -41.57446289 323.94873047 C-41.58264802 326.67852583 -41.6013521 329.40786976 -41.63139343 332.13751221 C-41.65928187 334.69626876 -41.67249173 337.25524248 -41.66853333 339.81414795 C-41.82305452 350.85040529 -44.28613863 360.98134372 -52.24853516 369.02880859 C-61.70374639 376.91343944 -69.92760271 379.49583327 -82.05322266 379.46240234 C-83.17238068 379.4676442 -84.2915387 379.47288605 -85.4446106 379.47828674 C-87.80290908 379.48468629 -90.16123956 379.48339688 -92.51953125 379.47485352 C-96.10556572 379.4663512 -99.69000174 379.49512422 -103.27587891 379.52685547 C-105.57665968 379.52846802 -107.87744325 379.52788892 -110.17822266 379.52490234 C-111.23894989 379.53613632 -112.29967712 379.5473703 -113.39254761 379.5589447 C-123.71907855 379.46345681 -132.74433039 376.29948002 -140.24853516 369.02880859 C-148.89391562 358.83837017 -150.68732315 349.67969929 -150.65478516 336.55224609 C-150.67135129 334.59012901 -150.68793439 332.62801191 -150.70545197 330.66590309 C-150.73205483 327.24524628 -150.73975004 323.82455 -150.74853516 320.40380859 C-150.15356493 284.03158378 -150.15356493 284.03158378 -167.80322266 253.26318359 C-171.99863835 249.42967277 -176.55794287 246.22309544 -181.24853516 243.02880859 C-189.55743739 237.27098969 -196.94610318 230.98400677 -204.24853516 224.02880859 C-204.89564453 223.43455078 -205.54275391 222.84029297 -206.20947266 222.22802734 C-228.13177724 201.48932136 -241.59474443 170.42469532 -246.24853516 141.02880859 C-246.43287109 139.87251953 -246.61720703 138.71623047 -246.80712891 137.52490234 C-247.57118712 131.1206355 -247.49286681 124.65728058 -247.49853516 118.21630859 C-247.4992099 117.52728455 -247.49988464 116.8382605 -247.50057983 116.12835693 C-247.48310831 104.87114142 -246.85430325 94.01355735 -244.24853516 83.02880859 C-244.08224609 82.32191895 -243.91595703 81.6150293 -243.74462891 80.88671875 C-237.34020663 54.7649779 -223.66073916 31.47746117 -205.24853516 12.02880859 C-204.42869141 11.14451172 -203.60884766 10.26021484 -202.76416016 9.34912109 C-150.06265855 -45.69120454 -57.78809616 -47.96143725 0 0 Z " fill="#9BC9F1" transform="translate(352.24853515625,126.97119140625)"/>
<path d="M0 0 C25.9409253 22.11981862 43.44105202 49.88825719 51.75146484 83.02880859 C51.93080566 83.7295752 52.11014648 84.4303418 52.29492188 85.15234375 C57.29419514 105.70049869 56.7695399 130.55150625 51.75146484 151.02880859 C51.58517578 151.75100586 51.41888672 152.47320312 51.24755859 153.21728516 C42.84207878 189.18962561 20.66392541 221.10004631 -9.74853516 241.96630859 C-25.754356 253.03332113 -37.15610879 266.27234198 -40.76708984 285.83862305 C-41.58370496 291.67186436 -41.40460617 297.57307593 -41.42431641 303.45068359 C-41.44157881 305.43114253 -41.45886535 307.41160157 -41.47751904 309.39204788 C-41.52279411 314.24424776 -41.56079977 319.09633071 -41.57446289 323.94873047 C-41.58264802 326.67852583 -41.6013521 329.40786976 -41.63139343 332.13751221 C-41.65928187 334.69626876 -41.67249173 337.25524248 -41.66853333 339.81414795 C-41.82305452 350.85040529 -44.28613863 360.98134372 -52.24853516 369.02880859 C-61.70374639 376.91343944 -69.92760271 379.49583327 -82.05322266 379.46240234 C-83.17238068 379.4676442 -84.2915387 379.47288605 -85.4446106 379.47828674 C-87.80290908 379.48468629 -90.16123956 379.48339688 -92.51953125 379.47485352 C-96.10556572 379.4663512 -99.69000174 379.49512422 -103.27587891 379.52685547 C-105.57665968 379.52846802 -107.87744325 379.52788892 -110.17822266 379.52490234 C-111.23894989 379.53613632 -112.29967712 379.5473703 -113.39254761 379.5589447 C-123.71907855 379.46345681 -132.74433039 376.29948002 -140.24853516 369.02880859 C-148.89391562 358.83837017 -150.68732315 349.67969929 -150.65478516 336.55224609 C-150.67135129 334.59012901 -150.68793439 332.62801191 -150.70545197 330.66590309 C-150.73205483 327.24524628 -150.73975004 323.82455 -150.74853516 320.40380859 C-150.15356493 284.03158378 -150.15356493 284.03158378 -167.80322266 253.26318359 C-171.99863835 249.42967277 -176.55794287 246.22309544 -181.24853516 243.02880859 C-189.55743739 237.27098969 -196.94610318 230.98400677 -204.24853516 224.02880859 C-204.89564453 223.43455078 -205.54275391 222.84029297 -206.20947266 222.22802734 C-228.13177724 201.48932136 -241.59474443 170.42469532 -246.24853516 141.02880859 C-246.43287109 139.87251953 -246.61720703 138.71623047 -246.80712891 137.52490234 C-247.57118712 131.1206355 -247.49286681 124.65728058 -247.49853516 118.21630859 C-247.4992099 117.52728455 -247.49988464 116.8382605 -247.50057983 116.12835693 C-247.48310831 104.87114142 -246.85430325 94.01355735 -244.24853516 83.02880859 C-244.08224609 82.32191895 -243.91595703 81.6150293 -243.74462891 80.88671875 C-237.34020663 54.7649779 -223.66073916 31.47746117 -205.24853516 12.02880859 C-204.42869141 11.14451172 -203.60884766 10.26021484 -202.76416016 9.34912109 C-150.06265855 -45.69120454 -57.78809616 -47.96143725 0 0 Z M-141.24853516 -1.97119141 C-142.28107422 -1.60251953 -143.31361328 -1.23384766 -144.37744141 -0.85400391 C-157.398912 4.17426037 -168.80497661 11.85065054 -179.24853516 21.02880859 C-180.08900391 21.73650391 -180.92947266 22.44419922 -181.79541016 23.17333984 C-192.35861463 32.27672258 -200.44839668 42.895497 -207.24853516 55.02880859 C-207.58626953 55.6264502 -207.92400391 56.2240918 -208.27197266 56.83984375 C-218.51398299 75.22059443 -223.66502182 95.24336156 -223.56103516 116.27880859 C-223.55612061 117.46394043 -223.55120605 118.64907227 -223.54614258 119.87011719 C-223.42531292 128.93791823 -222.56280075 137.23085154 -220.24853516 146.02880859 C-220.08756348 146.68929199 -219.9265918 147.34977539 -219.76074219 148.03027344 C-214.39114387 169.92647408 -203.82784648 188.77663665 -188.24853516 205.02880859 C-187.05357422 206.33591797 -187.05357422 206.33591797 -185.83447266 207.66943359 C-178.68844575 215.2256554 -170.68602386 220.89314075 -162.13085938 226.73632812 C-143.59149649 239.46620972 -132.57960282 257.44800872 -127.80712891 279.39599609 C-126.70286863 286.57754895 -126.52554925 293.77103931 -126.24853516 301.02880859 C-120.30853516 301.02880859 -114.36853516 301.02880859 -108.24853516 301.02880859 C-108.24711014 299.48865082 -108.24568512 297.94849304 -108.24421692 296.36166382 C-108.22755372 281.85324532 -108.18509782 267.34516227 -108.11644459 252.83690453 C-108.0818098 245.37789015 -108.05644108 237.91906029 -108.05297852 230.45996094 C-108.04993648 223.95763073 -108.02941435 217.45562926 -107.98801059 210.953426 C-107.96669996 207.5113116 -107.95406961 204.0696643 -107.96238136 200.62748337 C-107.97133851 196.7822601 -107.941265 192.93787424 -107.90795898 189.09277344 C-107.91658463 187.95485352 -107.92521027 186.81693359 -107.93409729 185.64453125 C-107.80890389 177.03266022 -107.80890389 177.03266022 -104.83232117 173.33731079 C-101.76717299 170.5987321 -101.02692034 170.08755465 -96.93603516 169.77880859 C-92.2280645 170.09799304 -89.77999771 171.33454189 -86.63283062 174.81627274 C-84.96124769 177.48798356 -84.86580072 179.04475782 -84.84980774 182.17938232 C-84.83726959 183.21982193 -84.82473145 184.26026154 -84.81181335 185.33222961 C-84.81324844 186.46798935 -84.81468353 187.60374908 -84.81616211 188.77392578 C-84.80087463 190.57433571 -84.80087463 190.57433571 -84.78527832 192.41111755 C-84.76026789 195.69802884 -84.74842347 198.98467167 -84.74242425 202.27166271 C-84.7330414 205.70837952 -84.70683813 209.14496706 -84.68241882 212.581604 C-84.63874755 219.08735835 -84.61020452 225.59308762 -84.58709544 232.09894395 C-84.56004707 239.50646707 -84.51613538 246.91386019 -84.47080672 254.32129049 C-84.37795149 269.55706538 -84.30687302 284.79286028 -84.24853516 300.02880859 C-78.30853516 300.02880859 -72.36853516 300.02880859 -66.24853516 300.02880859 C-66.16603516 297.53318359 -66.08353516 295.03755859 -65.99853516 292.46630859 C-64.85522165 270.04526074 -55.28776818 248.90706632 -39.04931641 233.36083984 C-34.57645313 229.63657294 -29.81252911 226.32920999 -25.05761719 222.97705078 C-18.24464499 218.13711081 -12.22928246 212.86188313 -6.24853516 207.02880859 C-5.53697266 206.37912109 -4.82541016 205.72943359 -4.09228516 205.06005859 C14.96755294 187.21036895 25.34646742 161.28623985 29.75146484 136.02880859 C29.93451172 134.98337891 30.11755859 133.93794922 30.30615234 132.86083984 C34.23725566 99.03266127 25.20287977 65.74027081 4.16943359 38.95068359 C3.37150391 37.98646484 2.57357422 37.02224609 1.75146484 36.02880859 C1.32559082 35.51253906 0.8997168 34.99626953 0.4609375 34.46435547 C-20.07831243 9.93943317 -50.24156096 -5.67670314 -81.93603516 -9.65869141 C-102.39150317 -11.20685082 -121.94743013 -8.97072352 -141.24853516 -1.97119141 Z " fill="#1591ED" transform="translate(352.24853515625,126.97119140625)"/>
<path d="M0 0 C19.8 0 39.6 0 60 0 C60 22 60 22 56 28 C51.04884111 31.43180601 46.46673972 31.45373164 40.65625 31.43359375 C39.76893188 31.4388356 38.88161377 31.44407745 37.96740723 31.44947815 C36.09823652 31.455879 34.22902543 31.45458653 32.35986328 31.44604492 C29.50870796 31.43752602 26.65955193 31.46633679 23.80859375 31.49804688 C21.98697976 31.49965894 20.16536225 31.49908125 18.34375 31.49609375 C17.07319763 31.51294472 17.07319763 31.51294472 15.77697754 31.53013611 C10.39277674 31.46708125 7.19971911 30.68026773 3 27 C0 22 0 22 0 0 Z " fill="#FBFDFE" transform="translate(226,451)"/>
<path d="M0 0 C2.17503938 1.83577042 4.17692861 3.79295906 6.203125 5.79296875 C7.37284839 6.89153026 8.54350055 7.98910328 9.71484375 9.0859375 C10.98332736 10.29915591 12.25024236 11.51401639 13.515625 12.73046875 C14.12680176 13.30313477 14.73797852 13.87580078 15.36767578 14.46582031 C19.58199818 18.60419845 21.62428403 22.07405591 23.203125 27.79296875 C22.96078596 32.55914554 21.7617738 35.13894089 18.640625 38.79296875 C14.40385815 41.25799674 10.99989415 41.95218796 6.203125 40.79296875 C0.01591814 37.45513347 -4.63878142 32.2458851 -9.546875 27.29296875 C-10.40925781 26.43832031 -11.27164063 25.58367187 -12.16015625 24.703125 C-12.98386719 23.87683594 -13.80757813 23.05054687 -14.65625 22.19921875 C-15.40358398 21.44962891 -16.15091797 20.70003906 -16.92089844 19.92773438 C-20.53677416 15.81305227 -21.30855309 12.41970877 -21.17578125 7.046875 C-20.5043841 3.05310021 -18.81213497 1.48048307 -15.796875 -1.20703125 C-10.32368949 -4.12606352 -5.05369098 -3.39476199 0 0 Z " fill="#1491ED" transform="translate(112.796875,71.20703125)"/>
<path d="M0 0 C2.94112182 2.51220822 4.66211164 4.32849919 5.44140625 8.18359375 C5.72386096 13.58667908 4.42185629 16.8200762 1 21 C-2.07298987 24.34634837 -5.27325806 27.55245935 -8.5 30.75 C-9.35464844 31.61238281 -10.20929688 32.47476563 -11.08984375 33.36328125 C-11.91613281 34.18699219 -12.74242187 35.01070312 -13.59375 35.859375 C-14.34333984 36.60670898 -15.09292969 37.35404297 -15.86523438 38.12402344 C-19.97718314 41.73749717 -23.37410904 42.52154472 -28.74609375 42.37109375 C-32.67217438 41.72468533 -34.46651819 39.96602749 -37 37 C-39.05524241 32.88073208 -39.200549 29.82516638 -38.11328125 25.3515625 C-35.7537856 19.48247897 -31.10451973 15.49550659 -26.625 11.1875 C-25.34882813 9.9200293 -25.34882813 9.9200293 -24.046875 8.62695312 C-16.73775412 1.46014379 -10.54253732 -4.50928329 0 0 Z " fill="#1491ED" transform="translate(415,70)"/>
<path d="M0 0 C2.20794073 0.00315941 4.41453912 -0.0203228 6.62231445 -0.0456543 C8.0383284 -0.04792777 9.45434592 -0.04863056 10.87036133 -0.04760742 C12.1477417 -0.05058838 13.42512207 -0.05356934 14.74121094 -0.05664062 C19.29167326 0.42204152 22.57630977 1.90529495 26.09301758 4.81567383 C28.95257243 8.42774312 28.75204435 12.93476142 28.28051758 17.31567383 C26.4871624 21.56309399 24.39153739 23.33276049 20.28051758 25.31567383 C17.55638634 25.61434473 15.06782645 25.76034678 12.34692383 25.74926758 C11.59136703 25.75450943 10.83581024 25.75975128 10.05735779 25.76515198 C8.46468328 25.77155453 6.87196136 25.77025807 5.27929688 25.76171875 C2.85370955 25.75321133 0.43048179 25.78198617 -1.99487305 25.8137207 C-3.54760672 25.81533312 -5.10034453 25.81475442 -6.65307617 25.81176758 C-7.37200546 25.82300156 -8.09093475 25.83423553 -8.83164978 25.84580994 C-13.91928635 25.77604755 -16.82602191 24.55314127 -20.71948242 21.31567383 C-22.94817372 17.50533064 -23.73315526 15.10869844 -23.65698242 10.69067383 C-22.61167566 6.92756948 -21.51114272 5.029788 -18.71948242 2.31567383 C-12.84972665 -0.68640499 -6.42211402 -0.01925992 0 0 Z " fill="#1591ED" transform="translate(454.719482421875,219.684326171875)"/>
<path d="M0 0 C2.22556211 -0.00968583 4.4501924 -0.04071094 6.67553711 -0.07226562 C8.10066186 -0.07879834 9.52579319 -0.08404776 10.95092773 -0.08789062 C12.2410376 -0.09723633 13.53114746 -0.10658203 14.86035156 -0.11621094 C19.50088073 0.34698538 22.87723416 1.73966386 26.24389648 4.99023438 C28.62828717 9.50802726 28.77294653 13.05485481 27.36889648 17.92773438 C25.09413634 21.81684043 23.37941233 23.10771282 19.43139648 25.24023438 C16.61577285 25.62385405 14.20530158 25.80321583 11.40014648 25.77148438 C10.64600464 25.77531128 9.89186279 25.77913818 9.11486816 25.78308105 C7.52814389 25.78579032 5.94137419 25.77849832 4.35473633 25.76171875 C1.93786235 25.7402917 -0.47603979 25.76155056 -2.89282227 25.78710938 C-4.44100585 25.78446592 -5.9891876 25.77934057 -7.53735352 25.77148438 C-8.25314575 25.7795813 -8.96893799 25.78767822 -9.7064209 25.79602051 C-14.77488008 25.70216571 -17.6451408 24.39264622 -21.56860352 21.24023438 C-23.94825694 18.21158457 -23.92822216 14.99272326 -23.82250977 11.20117188 C-23.31776509 7.30298991 -21.45092664 5.01226711 -18.56860352 2.49023438 C-13.03055902 -0.97104343 -6.30343533 0.01661532 0 0 Z " fill="#1491ED" transform="translate(52.568603515625,219.759765625)"/>
<path d="M0 0 C3.12578143 1.6720747 5.39281175 3.7856235 7 7 C7.28463963 12.20710379 7.31378606 17.41524591 7.35009766 22.62939453 C7.36663246 24.36943967 7.39389007 26.10941759 7.43212891 27.84912109 C7.48708652 30.3633126 7.50880068 32.87591254 7.5234375 35.390625 C7.54610687 36.16271301 7.56877625 36.93480103 7.59213257 37.73028564 C7.57650183 41.75506339 7.19568882 44.26994766 4.65478516 47.47558594 C0.92965205 51.01778534 -1.93468515 51.29316058 -7.00390625 51.21875 C-10.74680058 50.8085698 -13.00626547 48.98437677 -15.60742188 46.40771484 C-17.60624352 42.95182791 -17.46773307 39.61351399 -17.46875 35.7265625 C-17.47636353 34.92519867 -17.48397705 34.12383484 -17.49182129 33.29818726 C-17.50260981 31.60539865 -17.50548045 29.91254355 -17.50097656 28.21972656 C-17.5000057 25.64013563 -17.5416051 23.06353546 -17.5859375 20.484375 C-17.59114613 18.83594367 -17.59383267 17.18750205 -17.59375 15.5390625 C-17.61014526 14.7732486 -17.62654053 14.00743469 -17.64343262 13.21841431 C-17.57025192 7.49788564 -16.0938797 5.00041565 -12 1 C-8.27533151 -0.86233425 -4.05504687 -0.57130829 0 0 Z " fill="#1491ED" transform="translate(261,6)"/>
</svg>
