<!DOCTYPE svg PUBLIC "-//W3C//DTD SVG 1.1//EN" "http://www.w3.org/Graphics/SVG/1.1/DTD/svg11.dtd">
<!-- Uploaded to: SVG Repo, www.svgrepo.com, Transformed by: SVG Repo Mixer Tools -->
<svg fill="#595C5F" width="800px" height="800px" viewBox="0 0 24 24" xmlns="http://www.w3.org/2000/svg">
<g id="SVGRepo_bgCarrier" stroke-width="0"/>
<g id="SVGRepo_tracerCarrier" stroke-linecap="round" stroke-linejoin="round"/>
<g id="SVGRepo_iconCarrier">
<path d="M19,6H18a3,3,0,0,0-3,3v8a1,1,0,0,0,2,0V13h3v4a1,1,0,0,0,2,0V9A3,3,0,0,0,19,6Zm1,5H17V9a1,1,0,0,1,1-1h1a1,1,0,0,1,1,1ZM8,6A1,1,0,0,0,7,7v5.76L3.89,6.55A1,1,0,0,0,2,7V17a1,1,0,0,0,2,0V11.24l3.11,6.21A1,1,0,0,0,8,18a.91.91,0,0,0,.23,0A1,1,0,0,0,9,17V7A1,1,0,0,0,8,6Zm4-2a1,1,0,0,0-1,1V19a1,1,0,0,0,2,0V5A1,1,0,0,0,12,4Z"/>
</g>
</svg>