<svg width="124" height="90" viewBox="0 0 124 90" fill="none" xmlns="http://www.w3.org/2000/svg">
<path d="M37.0984 23.1824C37.0984 22.6817 37.3487 22.4314 37.8494 22.4314H43.5568C44.0575 22.4314 44.3078 22.6817 44.3078 23.1824V74.249C44.3078 74.7497 44.0575 75 43.5568 75H38.0747C37.7242 75 37.4238 74.8248 37.1735 74.4743L13.6678 36.0992C13.6178 35.949 13.5427 35.899 13.4425 35.949C13.3424 35.949 13.2923 36.0241 13.2923 36.1743L13.3674 74.249C13.3674 74.7497 13.1171 75 12.6165 75H6.90902C6.40836 75 6.15804 74.7497 6.15804 74.249V23.1824C6.15804 22.6817 6.40836 22.4314 6.90902 22.4314H12.4663C12.8167 22.4314 13.1171 22.6066 13.3674 22.9571L36.798 61.3322C36.8481 61.4824 36.9232 61.5575 37.0233 61.5575C37.1234 61.5074 37.1735 61.4073 37.1735 61.2571L37.0984 23.1824ZM53.3084 75C52.7577 75 52.5575 74.7246 52.7077 74.1739L70.3557 23.0322C70.5059 22.6317 70.8063 22.4314 71.2569 22.4314H76.8892C77.4399 22.4314 77.6402 22.7068 77.49 23.2575L59.842 74.3992C59.6918 74.7997 59.3914 75 58.9408 75H53.3084ZM114.273 75C113.822 75 113.522 74.7997 113.372 74.3992L110.668 65.6128C110.618 65.4626 110.518 65.3875 110.368 65.3875H89.2651C89.1149 65.3875 89.0148 65.4626 88.9647 65.6128L86.2612 74.3992C86.111 74.7997 85.8106 75 85.36 75H79.2771C78.7264 75 78.5261 74.7246 78.6763 74.1739L95.1228 23.0322C95.273 22.6317 95.5734 22.4314 96.0239 22.4314H103.534C103.984 22.4314 104.285 22.6317 104.435 23.0322L121.032 74.1739L121.107 74.4743C121.107 74.8248 120.881 75 120.431 75H114.273ZM90.8422 59.3045C90.7921 59.4046 90.7921 59.5048 90.8422 59.6049C90.9423 59.655 91.0424 59.68 91.1426 59.68H108.415C108.515 59.68 108.59 59.655 108.64 59.6049C108.741 59.5048 108.766 59.4046 108.716 59.3045L100.004 31.4432C99.9541 31.343 99.879 31.293 99.7788 31.293C99.6787 31.293 99.6036 31.343 99.5536 31.4432L90.8422 59.3045Z" fill="#535353"/>
</svg>
