<svg width="106" height="114" viewBox="0 0 106 114" fill="none" xmlns="http://www.w3.org/2000/svg">
<path d="M31.1167 13.2639H13.2641C9.80452 13.2639 7 16.0684 7 19.528V57.1124C7 60.5719 9.80452 63.3765 13.2641 63.3765H31.1167C31.6356 63.3765 32.0563 62.9558 32.0563 62.4369V14.2035C32.0563 13.6846 31.6356 13.2639 31.1167 13.2639Z" stroke="#D93E33" stroke-width="12.5281" stroke-linecap="round"/>
<path d="M32.0562 63.3766L43.5322 80.5907C44.2182 81.6197 44.5843 82.8287 44.5843 84.0654V100.961C44.5843 104.421 47.3888 107.225 50.8484 107.225H57.1124C64.0315 107.225 69.6406 101.616 69.6406 94.697V63.3766" stroke="#D93E33" stroke-width="12.5281" stroke-linecap="round"/>
<path d="M57.1124 63.3765H86.9637C94.4306 63.3765 100.24 56.8861 99.4152 49.4648L95.9351 18.1445C95.2302 11.7998 89.8673 6.99984 83.4836 6.99984H59.7071C58.0458 6.99984 56.4525 7.6598 55.2777 8.83454L52.6831 11.4292C51.5083 12.6039 49.915 13.2639 48.2537 13.2639H32.0562" stroke="#D93E33" stroke-width="12.5281" stroke-linecap="round"/>
<path d="M31.1167 13.2639H13.2641C9.80452 13.2639 7 16.0684 7 19.528V57.1124C7 60.5719 9.80452 63.3765 13.2641 63.3765H31.1167C31.6356 63.3765 32.0563 62.9558 32.0563 62.4369V14.2035C32.0563 13.6846 31.6356 13.2639 31.1167 13.2639Z" stroke="#D93E33" stroke-width="12.5281" stroke-linecap="round"/>
<path d="M32.0562 63.3766L43.5322 80.5907C44.2182 81.6197 44.5843 82.8287 44.5843 84.0654V100.961C44.5843 104.421 47.3888 107.225 50.8484 107.225H57.1124C64.0315 107.225 69.6406 101.616 69.6406 94.697V63.3766" stroke="#D93E33" stroke-width="12.5281" stroke-linecap="round"/>
<path d="M57.1124 63.3765H86.9637C94.4306 63.3765 100.24 56.8861 99.4152 49.4648L95.9351 18.1445C95.2302 11.7998 89.8673 6.99984 83.4836 6.99984H59.7071C58.0458 6.99984 56.4525 7.6598 55.2777 8.83454L52.6831 11.4292C51.5083 12.6039 49.915 13.2639 48.2537 13.2639H32.0562" stroke="#D93E33" stroke-width="12.5281" stroke-linecap="round"/>
</svg>
